Ume-P-Gothic-Balsa-stroke.ufo
<glyph name="quotedbl" format="1">
  <advance width="1542"/>
  <unicode hex="0022"/>
  <outline>
    <contour>
      <point x="569" y="2937" type="move"/>
      <point x="569" y="2858" type="line" smooth="yes"/>
      <point x="569" y="2849"/>
      <point x="566" y="2834"/>
      <point x="570" y="2827" type="curve" smooth="yes"/>
      <point x="576" y="2817"/>
      <point x="587" y="2809"/>
      <point x="596" y="2801" type="curve" smooth="yes"/>
      <point x="650" y="2747" type="line" smooth="yes"/>
      <point x="657" y="2739"/>
      <point x="675" y="2726"/>
      <point x="678" y="2716" type="curve" smooth="yes"/>
      <point x="682" y="2702"/>
      <point x="678" y="2685"/>
      <point x="678" y="2672" type="curve" smooth="yes"/>
      <point x="678" y="2634"/>
      <point x="676" y="2597"/>
      <point x="676" y="2561" type="curve" smooth="yes"/>
      <point x="674" y="2471"/>
      <point x="667" y="2380"/>
      <point x="649" y="2293" type="curve" smooth="yes"/>
      <point x="638" y="2236"/>
      <point x="622" y="2178"/>
      <point x="595" y="2128" type="curve" smooth="yes"/>
      <point x="563" y="2069"/>
      <point x="516" y="2009"/>
      <point x="448" y="1995" type="curve" smooth="yes"/>
    </contour>
    <contour>
      <point x="1303" y="2937" type="move"/>
      <point x="1303" y="2858" type="line" smooth="yes"/>
      <point x="1303" y="2849"/>
      <point x="1300" y="2834"/>
      <point x="1304" y="2827" type="curve" smooth="yes"/>
      <point x="1310" y="2817"/>
      <point x="1321" y="2809"/>
      <point x="1330" y="2801" type="curve" smooth="yes"/>
      <point x="1384" y="2747" type="line" smooth="yes"/>
      <point x="1391" y="2739"/>
      <point x="1409" y="2726"/>
      <point x="1412" y="2716" type="curve" smooth="yes"/>
      <point x="1417" y="2697"/>
      <point x="1413" y="2671"/>
      <point x="1412" y="2653" type="curve" smooth="yes"/>
      <point x="1409" y="2621"/>
      <point x="1410" y="2588"/>
      <point x="1410" y="2557" type="curve" smooth="yes"/>
      <point x="1407" y="2457"/>
      <point x="1401" y="2356"/>
      <point x="1376" y="2260" type="curve" smooth="yes"/>
      <point x="1364" y="2212"/>
      <point x="1350" y="2165"/>
      <point x="1326" y="2123" type="curve" smooth="yes"/>
      <point x="1295" y="2066"/>
      <point x="1249" y="2008"/>
      <point x="1183" y="1995" type="curve" smooth="yes"/>
    </contour>
  </outline>
</glyph>
<glyph name="numbersign" format="1">
  <advance width="1945"/>
  <unicode hex="0023"/>
  <outline>
    <contour>
      <point x="796" y="3043" type="move" smooth="yes"/>
      <point x="794" y="3021"/>
      <point x="789" y="2998"/>
      <point x="785" y="2977" type="curve" smooth="yes"/>
      <point x="778" y="2938"/>
      <point x="772" y="2900"/>
      <point x="766" y="2862" type="curve" smooth="yes"/>
      <point x="747" y="2748"/>
      <point x="728" y="2634"/>
      <point x="710" y="2521" type="curve" smooth="yes"/>
      <point x="701" y="2467"/>
      <point x="701" y="2412"/>
      <point x="696" y="2359" type="curve" smooth="yes"/>
      <point x="694" y="2341"/>
      <point x="695" y="2322"/>
      <point x="691" y="2305" type="curve" smooth="yes"/>
      <point x="690" y="2296"/>
      <point x="678" y="2293"/>
      <point x="673" y="2286" type="curve" smooth="yes"/>
      <point x="667" y="2280"/>
      <point x="670" y="2270"/>
      <point x="666" y="2263" type="curve" smooth="yes"/>
      <point x="661" y="2253"/>
      <point x="647" y="2251"/>
      <point x="646" y="2240" type="curve" smooth="yes"/>
      <point x="637" y="2175"/>
      <point x="639" y="2110"/>
      <point x="631" y="2046" type="curve" smooth="yes"/>
      <point x="623" y="1976"/>
      <point x="608" y="1907"/>
      <point x="597" y="1838" type="curve" smooth="yes"/>
      <point x="575" y="1693"/>
      <point x="549" y="1549"/>
      <point x="526" y="1405" type="curve" smooth="yes"/>
      <point x="517" y="1354"/>
      <point x="515" y="1301"/>
      <point x="512" y="1250" type="curve" smooth="yes"/>
      <point x="510" y="1227"/>
      <point x="512" y="1200"/>
      <point x="506" y="1179" type="curve" smooth="yes"/>
      <point x="504" y="1170"/>
      <point x="491" y="1167"/>
      <point x="486" y="1160" type="curve" smooth="yes"/>
      <point x="482" y="1152"/>
      <point x="485" y="1142"/>
      <point x="479" y="1135" type="curve" smooth="yes"/>
      <point x="474" y="1128"/>
      <point x="462" y="1125"/>
      <point x="461" y="1117" type="curve" smooth="yes"/>
      <point x="458" y="1102"/>
      <point x="458" y="1086"/>
      <point x="457" y="1071" type="curve" smooth="yes"/>
      <point x="454" y="1022"/>
      <point x="453" y="971"/>
      <point x="446" y="923" type="curve" smooth="yes"/>
      <point x="430" y="810"/>
      <point x="409" y="698"/>
      <point x="391" y="587" type="curve" smooth="yes"/>
      <point x="372" y="475"/>
      <point x="356" y="363"/>
      <point x="336" y="253" type="curve" smooth="yes"/>
    </contour>
    <contour>
      <point x="1593" y="3043" type="move" smooth="yes"/>
      <point x="1591" y="3021"/>
      <point x="1586" y="2999"/>
      <point x="1582" y="2978" type="curve" smooth="yes"/>
      <point x="1575" y="2939"/>
      <point x="1569" y="2900"/>
      <point x="1563" y="2861" type="curve" smooth="yes"/>
      <point x="1544" y="2746"/>
      <point x="1525" y="2631"/>
      <point x="1506" y="2517" type="curve" smooth="yes"/>
      <point x="1497" y="2465"/>
      <point x="1498" y="2412"/>
      <point x="1493" y="2360" type="curve" smooth="yes"/>
      <point x="1491" y="2342"/>
      <point x="1493" y="2321"/>
      <point x="1488" y="2304" type="curve" smooth="yes"/>
      <point x="1486" y="2295"/>
      <point x="1473" y="2292"/>
      <point x="1468" y="2284" type="curve" smooth="yes"/>
      <point x="1464" y="2277"/>
      <point x="1467" y="2267"/>
      <point x="1461" y="2260" type="curve" smooth="yes"/>
      <point x="1456" y="2253"/>
      <point x="1445" y="2250"/>
      <point x="1443" y="2241" type="curve" smooth="yes"/>
      <point x="1439" y="2226"/>
      <point x="1441" y="2208"/>
      <point x="1439" y="2192" type="curve" smooth="yes"/>
      <point x="1435" y="2143"/>
      <point x="1434" y="2095"/>
      <point x="1428" y="2047" type="curve" smooth="yes"/>
      <point x="1422" y="1996"/>
      <point x="1412" y="1946"/>
      <point x="1404" y="1897" type="curve" smooth="yes"/>
      <point x="1389" y="1808"/>
      <point x="1375" y="1719"/>
      <point x="1360" y="1631" type="curve" smooth="yes"/>
      <point x="1346" y="1548"/>
      <point x="1329" y="1465"/>
      <point x="1319" y="1382" type="curve" smooth="yes"/>
      <point x="1316" y="1360"/>
      <point x="1316" y="1338"/>
      <point x="1314" y="1317" type="curve" smooth="yes"/>
      <point x="1311" y="1286"/>
      <point x="1309" y="1254"/>
      <point x="1307" y="1224" type="curve" smooth="yes"/>
      <point x="1306" y="1210"/>
      <point x="1308" y="1190"/>
      <point x="1303" y="1178" type="curve" smooth="yes"/>
      <point x="1300" y="1170"/>
      <point x="1289" y="1167"/>
      <point x="1284" y="1160" type="curve" smooth="yes"/>
      <point x="1279" y="1154"/>
      <point x="1282" y="1144"/>
      <point x="1278" y="1137" type="curve" smooth="yes"/>
      <point x="1273" y="1129"/>
      <point x="1263" y="1125"/>
      <point x="1258" y="1120" type="curve"/>
      <point x="1250" y="1127"/>
      <point x="1239" y="1143"/>
      <point x="1229" y="1147" type="curve" smooth="yes"/>
      <point x="1217" y="1151"/>
      <point x="1199" y="1148"/>
      <point x="1188" y="1148" type="curve" smooth="yes"/>
      <point x="1093" y="1148" type="line"/>
      <point x="686" y="1148" type="line"/>
      <point x="581" y="1148" type="line" smooth="yes"/>
      <point x="568" y="1148"/>
      <point x="548" y="1144"/>
      <point x="536" y="1148" type="curve" smooth="yes"/>
      <point x="525" y="1152"/>
      <point x="514" y="1168"/>
      <point x="507" y="1176" type="curve" smooth="yes"/>
    </contour>
    <contour>
      <point x="1444" y="2245" type="move" smooth="yes"/>
      <point x="1436" y="2252"/>
      <point x="1425" y="2268"/>
      <point x="1415" y="2272" type="curve" smooth="yes"/>
      <point x="1402" y="2276"/>
      <point x="1382" y="2273"/>
      <point x="1369" y="2273" type="curve" smooth="yes"/>
      <point x="1264" y="2273" type="line"/>
      <point x="857" y="2273" type="line"/>
      <point x="762" y="2273" type="line" smooth="yes"/>
      <point x="750" y="2273"/>
      <point x="732" y="2269"/>
      <point x="721" y="2273" type="curve" smooth="yes"/>
      <point x="710" y="2277"/>
      <point x="699" y="2293"/>
      <point x="692" y="2301" type="curve" smooth="yes"/>
    </contour>
    <contour>
      <point x="1489" y="2301" type="move"/>
      <point x="1817" y="2273" type="line"/>
      <point x="1605" y="2273" type="line"/>
      <point x="1543" y="2273" type="line"/>
      <point x="1517" y="2274" type="line"/>
    </contour>
    <contour>
      <point x="253" y="2273" type="move"/>
      <point x="520" y="2273" type="line"/>
      <point x="588" y="2273" type="line" smooth="yes"/>
      <point x="596" y="2273"/>
      <point x="609" y="2275"/>
      <point x="618" y="2272" type="curve" smooth="yes"/>
      <point x="628" y="2268"/>
      <point x="639" y="2252"/>
      <point x="647" y="2245" type="curve" smooth="yes"/>
    </contour>
    <contour>
      <point x="1676" y="1148" type="move"/>
      <point x="1427" y="1148" type="line"/>
      <point x="1362" y="1148" type="line" smooth="yes"/>
      <point x="1353" y="1148"/>
      <point x="1340" y="1145"/>
      <point x="1333" y="1148" type="curve" smooth="yes"/>
      <point x="1322" y="1152"/>
      <point x="1311" y="1168"/>
      <point x="1304" y="1176" type="curve" smooth="yes"/>
    </contour>
    <contour>
      <point x="128" y="1148" type="move"/>
      <point x="345" y="1148" type="line"/>
      <point x="408" y="1148" type="line"/>
      <point x="434" y="1146" type="line"/>
      <point x="462" y="1120" type="line"/>
    </contour>
    <contour>
      <point x="1258" y="1120" type="move"/>
      <point x="1249" y="1006" type="line"/>
      <point x="1242" y="919" type="line"/>
      <point x="1207" y="703" type="line"/>
      <point x="1159" y="416" type="line"/>
      <point x="1133" y="253" type="line"/>
    </contour>
  </outline>
</glyph>
<glyph name="percent" format="1">
  <advance width="2028"/>
  <unicode hex="0025"/>
  <outline>
    <contour>
      <point x="1663" y="3198" type="move"/>
      <point x="1586" y="3005" type="line"/>
      <point x="1440" y="2637" type="line"/>
      <point x="930" y="1353" type="line"/>
      <point x="588" y="493" type="line"/>
      <point x="476" y="210" type="line"/>
      <point x="438" y="115" type="line"/>
      <point x="419" y="67" type="line"/>
    </contour>
    <contour>
      <point x="583" y="3106" type="curve" smooth="yes"/>
      <point x="609" y="3101"/>
      <point x="637" y="3096"/>
      <point x="660" y="3082" type="curve" smooth="yes"/>
      <point x="690" y="3062"/>
      <point x="712" y="3031"/>
      <point x="729" y="3000" type="curve" smooth="yes"/>
      <point x="769" y="2928"/>
      <point x="785" y="2847"/>
      <point x="801" y="2768" type="curve" smooth="yes"/>
      <point x="824" y="2653"/>
      <point x="829" y="2536"/>
      <point x="834" y="2420" type="curve" smooth="yes"/>
      <point x="838" y="2323"/>
      <point x="835" y="2226"/>
      <point x="829" y="2130" type="curve" smooth="yes"/>
      <point x="823" y="2039"/>
      <point x="814" y="1948"/>
      <point x="795" y="1859" type="curve" smooth="yes"/>
      <point x="781" y="1791"/>
      <point x="761" y="1722"/>
      <point x="727" y="1662" type="curve" smooth="yes"/>
      <point x="709" y="1630"/>
      <point x="686" y="1598"/>
      <point x="655" y="1579" type="curve" smooth="yes"/>
      <point x="634" y="1566"/>
      <point x="611" y="1562"/>
      <point x="588" y="1557" type="curve" smooth="yes"/>
      <point x="566" y="1553"/>
      <point x="543" y="1548"/>
      <point x="521" y="1546" type="curve" smooth="yes"/>
      <point x="503" y="1544"/>
      <point x="483" y="1551"/>
      <point x="466" y="1553" type="curve" smooth="yes"/>
      <point x="438" y="1558"/>
      <point x="412" y="1563"/>
      <point x="388" y="1577" type="curve" smooth="yes"/>
      <point x="355" y="1597"/>
      <point x="331" y="1632"/>
      <point x="314" y="1665" type="curve" smooth="yes"/>
      <point x="273" y="1738"/>
      <point x="259" y="1819"/>
      <point x="242" y="1900" type="curve" smooth="yes"/>
      <point x="220" y="2003"/>
      <point x="215" y="2111"/>
      <point x="211" y="2217" type="curve" smooth="yes"/>
      <point x="202" y="2408"/>
      <point x="210" y="2604"/>
      <point x="247" y="2793" type="curve" smooth="yes"/>
      <point x="262" y="2865"/>
      <point x="282" y="2940"/>
      <point x="320" y="3005" type="curve" smooth="yes"/>
      <point x="337" y="3034"/>
      <point x="358" y="3063"/>
      <point x="388" y="3082" type="curve" smooth="yes"/>
      <point x="403" y="3092"/>
      <point x="420" y="3095"/>
      <point x="438" y="3099" type="curve" smooth="yes"/>
      <point x="466" y="3106"/>
      <point x="494" y="3112"/>
      <point x="523" y="3115" type="curve" smooth="yes"/>
      <point x="541" y="3117"/>
      <point x="565" y="3110"/>
    </contour>
    <contour>
      <point x="1488" y="1583" type="move" smooth="yes"/>
      <point x="1508" y="1586"/>
      <point x="1533" y="1577"/>
      <point x="1553" y="1573" type="curve" smooth="yes"/>
      <point x="1579" y="1568"/>
      <point x="1607" y="1564"/>
      <point x="1630" y="1550" type="curve" smooth="yes"/>
      <point x="1664" y="1529"/>
      <point x="1689" y="1496"/>
      <point x="1709" y="1462" type="curve" smooth="yes"/>
      <point x="1748" y="1393"/>
      <point x="1766" y="1316"/>
      <point x="1783" y="1240" type="curve" smooth="yes"/>
      <point x="1808" y="1129"/>
      <point x="1813" y="1014"/>
      <point x="1818" y="901" type="curve" smooth="yes"/>
      <point x="1821" y="824"/>
      <point x="1819" y="748"/>
      <point x="1816" y="672" type="curve" smooth="yes"/>
      <point x="1812" y="579"/>
      <point x="1804" y="485"/>
      <point x="1785" y="394" type="curve" smooth="yes"/>
      <point x="1769" y="319"/>
      <point x="1748" y="244"/>
      <point x="1706" y="180" type="curve" smooth="yes"/>
      <point x="1687" y="150"/>
      <point x="1663" y="121"/>
      <point x="1632" y="103" type="curve" smooth="yes"/>
      <point x="1614" y="93"/>
      <point x="1595" y="89"/>
      <point x="1576" y="85" type="curve" smooth="yes"/>
      <point x="1549" y="79"/>
      <point x="1522" y="74"/>
      <point x="1495" y="71" type="curve" smooth="yes"/>
      <point x="1477" y="69"/>
      <point x="1454" y="76"/>
      <point x="1436" y="79" type="curve" smooth="yes"/>
      <point x="1409" y="85"/>
      <point x="1382" y="88"/>
      <point x="1359" y="102" type="curve" smooth="yes"/>
      <point x="1326" y="123"/>
      <point x="1304" y="159"/>
      <point x="1287" y="193" type="curve" smooth="yes"/>
      <point x="1253" y="260"/>
      <point x="1235" y="336"/>
      <point x="1223" y="411" type="curve" smooth="yes"/>
      <point x="1194" y="585"/>
      <point x="1187" y="763"/>
      <point x="1195" y="940" type="curve" smooth="yes"/>
      <point x="1199" y="1050"/>
      <point x="1207" y="1162"/>
      <point x="1229" y="1271" type="curve" smooth="yes"/>
      <point x="1243" y="1340"/>
      <point x="1261" y="1412"/>
      <point x="1296" y="1475" type="curve" smooth="yes"/>
      <point x="1314" y="1506"/>
      <point x="1336" y="1537"/>
      <point x="1368" y="1555" type="curve" smooth="yes"/>
      <point x="1381" y="1563"/>
      <point x="1397" y="1566"/>
      <point x="1412" y="1569" type="curve" smooth="yes"/>
      <point x="1437" y="1575"/>
      <point x="1462" y="1580"/>
      <point x="1488" y="1583" type="curve" smooth="yes"/>
    </contour>
  </outline>
</glyph>
<glyph name="ampersand" format="1">
  <advance width="1964"/>
  <unicode hex="0026"/>
  <outline>
    <contour>
      <point x="741" y="1637" type="move"/>
      <point x="741" y="1598" type="line"/>
      <point x="786" y="1553" type="line" smooth="yes"/>
      <point x="793" y="1545"/>
      <point x="802" y="1538"/>
      <point x="808" y="1530" type="curve" smooth="yes"/>
      <point x="817" y="1516"/>
      <point x="814" y="1495"/>
      <point x="822" y="1481" type="curve" smooth="yes"/>
      <point x="851" y="1428"/>
      <point x="886" y="1378"/>
      <point x="920" y="1329" type="curve" smooth="yes"/>
      <point x="987" y="1233"/>
      <point x="1054" y="1137"/>
      <point x="1124" y="1045" type="curve" smooth="yes"/>
      <point x="1177" y="975"/>
      <point x="1233" y="908"/>
      <point x="1286" y="839" type="curve" smooth="yes"/>
      <point x="1299" y="821"/>
      <point x="1313" y="805"/>
      <point x="1327" y="788" type="curve" smooth="yes"/>
      <point x="1334" y="779"/>
      <point x="1340" y="767"/>
      <point x="1349" y="760" type="curve" smooth="yes"/>
      <point x="1356" y="754"/>
      <point x="1366" y="754"/>
      <point x="1373" y="749" type="curve" smooth="yes"/>
      <point x="1394" y="733"/>
      <point x="1412" y="710"/>
      <point x="1432" y="691" type="curve" smooth="yes"/>
      <point x="1439" y="684"/>
      <point x="1452" y="674"/>
      <point x="1456" y="665" type="curve" smooth="yes"/>
      <point x="1458" y="660"/>
      <point x="1457" y="653"/>
      <point x="1457" y="648" type="curve" smooth="yes"/>
      <point x="1457" y="613" type="line" smooth="yes"/>
      <point x="1457" y="608"/>
      <point x="1458" y="601"/>
      <point x="1456" y="597" type="curve" smooth="yes"/>
      <point x="1453" y="589"/>
      <point x="1442" y="581"/>
      <point x="1437" y="576" type="curve" smooth="yes"/>
      <point x="1400" y="539" type="line" smooth="yes"/>
      <point x="1394" y="533"/>
      <point x="1388" y="525"/>
      <point x="1381" y="521" type="curve" smooth="yes"/>
      <point x="1371" y="515"/>
      <point x="1358" y="516"/>
      <point x="1349" y="510" type="curve" smooth="yes"/>
      <point x="1337" y="503"/>
      <point x="1328" y="491"/>
      <point x="1318" y="482" type="curve" smooth="yes"/>
      <point x="1292" y="460"/>
      <point x="1266" y="439"/>
      <point x="1239" y="419" type="curve" smooth="yes"/>
      <point x="1178" y="378"/>
      <point x="1115" y="342"/>
      <point x="1046" y="318" type="curve" smooth="yes"/>
      <point x="985" y="297"/>
      <point x="922" y="289"/>
      <point x="859" y="282" type="curve" smooth="yes"/>
      <point x="704" y="267"/>
      <point x="536" y="291"/>
      <point x="402" y="371" type="curve" smooth="yes"/>
      <point x="352" y="400"/>
      <point x="307" y="434"/>
      <point x="271" y="480" type="curve" smooth="yes"/>
      <point x="232" y="528"/>
      <point x="206" y="587"/>
      <point x="189" y="648" type="curve" smooth="yes"/>
      <point x="177" y="692"/>
      <point x="171" y="737"/>
      <point x="166" y="783" type="curve" smooth="yes"/>
      <point x="163" y="812"/>
      <point x="159" y="842"/>
      <point x="160" y="872" type="curve" smooth="yes"/>
      <point x="160" y="897"/>
      <point x="164" y="924"/>
      <point x="167" y="950" type="curve" smooth="yes"/>
      <point x="176" y="1024"/>
      <point x="193" y="1094"/>
      <point x="228" y="1161" type="curve" smooth="yes"/>
      <point x="279" y="1259"/>
      <point x="355" y="1342"/>
      <point x="442" y="1411" type="curve" smooth="yes"/>
      <point x="478" y="1440"/>
      <point x="517" y="1467"/>
      <point x="557" y="1493" type="curve" smooth="yes"/>
      <point x="573" y="1504"/>
      <point x="590" y="1517"/>
      <point x="608" y="1526" type="curve" smooth="yes"/>
      <point x="624" y="1535"/>
      <point x="648" y="1537"/>
      <point x="666" y="1541" type="curve" smooth="yes"/>
      <point x="673" y="1542"/>
      <point x="682" y="1543"/>
      <point x="689" y="1547" type="curve" smooth="yes"/>
      <point x="702" y="1556"/>
      <point x="714" y="1572"/>
      <point x="726" y="1584" type="curve" smooth="yes"/>
      <point x="730" y="1588"/>
      <point x="738" y="1593"/>
      <point x="740" y="1600" type="curve" smooth="yes"/>
      <point x="744" y="1610"/>
      <point x="736" y="1625"/>
      <point x="742" y="1636" type="curve" smooth="yes"/>
      <point x="745" y="1642"/>
      <point x="753" y="1648"/>
      <point x="759" y="1654" type="curve" smooth="yes"/>
      <point x="770" y="1665"/>
      <point x="780" y="1677"/>
      <point x="793" y="1687" type="curve" smooth="yes"/>
      <point x="798" y="1692"/>
      <point x="806" y="1692"/>
      <point x="813" y="1694" type="curve" smooth="yes"/>
      <point x="832" y="1699"/>
      <point x="860" y="1701"/>
      <point x="877" y="1712" type="curve" smooth="yes"/>
      <point x="901" y="1728"/>
      <point x="925" y="1748"/>
      <point x="949" y="1766" type="curve" smooth="yes"/>
      <point x="1032" y="1828"/>
      <point x="1109" y="1896"/>
      <point x="1183" y="1971" type="curve" smooth="yes"/>
      <point x="1271" y="2060"/>
      <point x="1343" y="2172"/>
      <point x="1385" y="2291" type="curve" smooth="yes"/>
      <point x="1406" y="2349"/>
      <point x="1416" y="2409"/>
      <point x="1423" y="2471" type="curve" smooth="yes"/>
      <point x="1426" y="2498"/>
      <point x="1430" y="2526"/>
      <point x="1430" y="2554" type="curve" smooth="yes"/>
      <point x="1430" y="2579"/>
      <point x="1426" y="2606"/>
      <point x="1423" y="2632" type="curve" smooth="yes"/>
      <point x="1412" y="2720"/>
      <point x="1390" y="2807"/>
      <point x="1334" y="2879" type="curve" smooth="yes"/>
      <point x="1287" y="2938"/>
      <point x="1221" y="2984"/>
      <point x="1149" y="3006" type="curve" smooth="yes"/>
      <point x="1105" y="3019"/>
      <point x="1061" y="3025"/>
      <point x="1016" y="3030" type="curve" smooth="yes"/>
      <point x="986" y="3033"/>
      <point x="956" y="3037"/>
      <point x="927" y="3036" type="curve" smooth="yes"/>
      <point x="792" y="3033"/>
      <point x="649" y="2997"/>
      <point x="556" y="2894" type="curve" smooth="yes"/>
      <point x="523" y="2858"/>
      <point x="498" y="2818"/>
      <point x="478" y="2775" type="curve" smooth="yes"/>
      <point x="453" y="2718"/>
      <point x="443" y="2656"/>
      <point x="435" y="2596" type="curve" smooth="yes"/>
      <point x="432" y="2568"/>
      <point x="427" y="2539"/>
      <point x="427" y="2511" type="curve" smooth="yes"/>
      <point x="427" y="2478"/>
      <point x="433" y="2445"/>
      <point x="436" y="2413" type="curve" smooth="yes"/>
      <point x="455" y="2240"/>
      <point x="517" y="2074"/>
      <point x="587" y="1917" type="curve" smooth="yes"/>
      <point x="602" y="1881"/>
      <point x="619" y="1846"/>
      <point x="636" y="1812" type="curve" smooth="yes"/>
      <point x="645" y="1794"/>
      <point x="655" y="1776"/>
      <point x="663" y="1758" type="curve" smooth="yes"/>
      <point x="670" y="1741"/>
      <point x="666" y="1718"/>
      <point x="675" y="1703" type="curve" smooth="yes"/>
      <point x="680" y="1694"/>
      <point x="690" y="1687"/>
      <point x="697" y="1681" type="curve" smooth="yes"/>
    </contour>
    <contour>
      <point x="1868" y="1763" type="move" smooth="yes"/>
      <point x="1868" y="1736"/>
      <point x="1861" y="1709"/>
      <point x="1859" y="1683" type="curve" smooth="yes"/>
      <point x="1852" y="1617"/>
      <point x="1841" y="1553"/>
      <point x="1829" y="1489" type="curve" smooth="yes"/>
      <point x="1795" y="1302"/>
      <point x="1746" y="1115"/>
      <point x="1664" y="944" type="curve" smooth="yes"/>
      <point x="1642" y="896"/>
      <point x="1617" y="849"/>
      <point x="1589" y="805" type="curve" smooth="yes"/>
      <point x="1578" y="788"/>
      <point x="1568" y="771"/>
      <point x="1556" y="756" type="curve" smooth="yes"/>
      <point x="1550" y="748"/>
      <point x="1538" y="747"/>
      <point x="1531" y="740" type="curve" smooth="yes"/>
      <point x="1505" y="717"/>
      <point x="1481" y="691"/>
      <point x="1457" y="667" type="curve" smooth="yes"/>
    </contour>
    <contour>
      <point x="1457" y="595" type="move"/>
      <point x="1534" y="518" type="line"/>
      <point x="1564" y="503" type="line"/>
      <point x="1595" y="468" type="line"/>
      <point x="1682" y="368" type="line"/>
      <point x="1794" y="242" type="line"/>
    </contour>
  </outline>
</glyph>
<glyph name="quotesingle" format="1">
  <advance width="910"/>
  <unicode hex="0027"/>
  <outline>
    <contour>
      <point x="431" y="2929" type="move"/>
      <point x="431" y="2862" type="line" smooth="yes"/>
      <point x="431" y="2854"/>
      <point x="428" y="2841"/>
      <point x="432" y="2835" type="curve" smooth="yes"/>
      <point x="438" y="2825"/>
      <point x="449" y="2817"/>
      <point x="458" y="2809" type="curve" smooth="yes"/>
      <point x="512" y="2755" type="line" smooth="yes"/>
      <point x="519" y="2747"/>
      <point x="537" y="2734"/>
      <point x="540" y="2724" type="curve" smooth="yes"/>
      <point x="544" y="2706"/>
      <point x="540" y="2684"/>
      <point x="540" y="2667" type="curve" smooth="yes"/>
      <point x="538" y="2625"/>
      <point x="538" y="2583"/>
      <point x="537" y="2542" type="curve" smooth="yes"/>
      <point x="531" y="2424"/>
      <point x="522" y="2305"/>
      <point x="483" y="2193" type="curve" smooth="yes"/>
      <point x="460" y="2127"/>
      <point x="424" y="2059"/>
      <point x="365" y="2020" type="curve" smooth="yes"/>
      <point x="345" y="2007"/>
      <point x="325" y="2001"/>
      <point x="304" y="1993" type="curve" smooth="yes"/>
    </contour>
  </outline>
</glyph>
<glyph name="parenright" format="1">
  <advance width="733"/>
  <unicode hex="0029"/>
  <outline>
    <contour>
      <point x="64" y="3330" type="move" smooth="yes"/>
      <point x="108" y="3273"/>
      <point x="147" y="3210"/>
      <point x="185" y="3149" type="curve" smooth="yes"/>
      <point x="300" y="2960"/>
      <point x="394" y="2762"/>
      <point x="466" y="2553" type="curve" smooth="yes"/>
      <point x="560" y="2277"/>
      <point x="605" y="1988"/>
      <point x="618" y="1698" type="curve" smooth="yes"/>
      <point x="642" y="1135"/>
      <point x="528" y="561"/>
      <point x="247" y="70" type="curve" smooth="yes"/>
      <point x="192" y="-25"/>
      <point x="132" y="-120"/>
      <point x="65" y="-208" type="curve" smooth="yes"/>
    </contour>
  </outline>
</glyph>
<glyph name="asterisk" format="1">
  <advance width="1378"/>
  <unicode hex="002A"/>
  <outline>
    <contour>
      <point x="672" y="3003" type="move"/>
      <point x="672" y="1695" type="line"/>
      <point x="646" y="1713"/>
      <point x="624" y="1741"/>
      <point x="602" y="1764" type="curve" smooth="yes"/>
      <point x="593" y="1772"/>
      <point x="585" y="1784"/>
      <point x="575" y="1789" type="curve" smooth="yes"/>
      <point x="566" y="1794"/>
      <point x="554" y="1796"/>
      <point x="545" y="1799" type="curve" smooth="yes"/>
      <point x="523" y="1805"/>
      <point x="502" y="1812"/>
      <point x="481" y="1818" type="curve" smooth="yes"/>
      <point x="469" y="1821"/>
      <point x="454" y="1823"/>
      <point x="445" y="1830" type="curve" smooth="yes"/>
      <point x="431" y="1840"/>
      <point x="419" y="1855"/>
      <point x="407" y="1866" type="curve" smooth="yes"/>
      <point x="392" y="1883"/>
      <point x="375" y="1898"/>
      <point x="359" y="1914" type="curve" smooth="yes"/>
      <point x="307" y="1966"/>
      <point x="254" y="2017"/>
      <point x="202" y="2069" type="curve" smooth="yes"/>
      <point x="171" y="2102"/>
      <point x="138" y="2134"/>
      <point x="106" y="2165" type="curve" smooth="yes"/>
      <point x="95" y="2175"/>
      <point x="85" y="2185"/>
      <point x="75" y="2195" type="curve" smooth="yes"/>
      <point x="71" y="2200"/>
      <point x="65" y="2204"/>
      <point x="62" y="2210" type="curve" smooth="yes"/>
      <point x="58" y="2219"/>
      <point x="60" y="2234"/>
      <point x="59" y="2245" type="curve" smooth="yes"/>
      <point x="59" y="2263"/>
      <point x="57" y="2282"/>
      <point x="56" y="2301" type="curve" smooth="yes"/>
      <point x="54" y="2362"/>
      <point x="47" y="2423"/>
      <point x="47" y="2485" type="curve" smooth="yes"/>
    </contour>
    <contour>
      <point x="1311" y="832" type="move" smooth="yes"/>
      <point x="1308" y="893"/>
      <point x="1304" y="954"/>
      <point x="1300" y="1016" type="curve" smooth="yes"/>
      <point x="1298" y="1033"/>
      <point x="1297" y="1052"/>
      <point x="1297" y="1070" type="curve" smooth="yes"/>
      <point x="1296" y="1077"/>
      <point x="1298" y="1088"/>
      <point x="1295" y="1095" type="curve" smooth="yes"/>
      <point x="1293" y="1099"/>
      <point x="1289" y="1102"/>
      <point x="1287" y="1105" type="curve" smooth="yes"/>
      <point x="1279" y="1113"/>
      <point x="1271" y="1120"/>
      <point x="1264" y="1128" type="curve" smooth="yes"/>
      <point x="1240" y="1149"/>
      <point x="1218" y="1172"/>
      <point x="1196" y="1195" type="curve" smooth="yes"/>
      <point x="1112" y="1280"/>
      <point x="1027" y="1364"/>
      <point x="940" y="1447" type="curve" smooth="yes"/>
      <point x="925" y="1461"/>
      <point x="910" y="1483"/>
      <point x="892" y="1493" type="curve" smooth="yes"/>
      <point x="864" y="1509"/>
      <point x="827" y="1508"/>
      <point x="799" y="1522" type="curve" smooth="yes"/>
      <point x="788" y="1527"/>
      <point x="779" y="1540"/>
      <point x="771" y="1549" type="curve" smooth="yes"/>
      <point x="711" y="1609" type="line" smooth="yes"/>
      <point x="702" y="1617"/>
      <point x="684" y="1629"/>
      <point x="679" y="1641" type="curve" smooth="yes"/>
      <point x="675" y="1651"/>
      <point x="678" y="1670"/>
      <point x="679" y="1681" type="curve" smooth="yes"/>
      <point x="679" y="1688"/>
      <point x="684" y="1692"/>
      <point x="690" y="1698" type="curve" smooth="yes"/>
      <point x="721" y="1729" type="line"/>
      <point x="763" y="1771" type="line" smooth="yes"/>
      <point x="769" y="1777"/>
      <point x="775" y="1786"/>
      <point x="784" y="1789" type="curve" smooth="yes"/>
      <point x="811" y="1801"/>
      <point x="842" y="1807"/>
      <point x="871" y="1817" type="curve" smooth="yes"/>
      <point x="884" y="1821"/>
      <point x="897" y="1823"/>
      <point x="908" y="1833" type="curve" smooth="yes"/>
      <point x="999" y="1920"/>
      <point x="1087" y="2009"/>
      <point x="1177" y="2099" type="curve" smooth="yes"/>
      <point x="1203" y="2125"/>
      <point x="1230" y="2151"/>
      <point x="1257" y="2178" type="curve" smooth="yes"/>
      <point x="1267" y="2188"/>
      <point x="1284" y="2200"/>
      <point x="1290" y="2213" type="curve" smooth="yes"/>
      <point x="1293" y="2218"/>
      <point x="1292" y="2228"/>
      <point x="1293" y="2234" type="curve" smooth="yes"/>
      <point x="1293" y="2247"/>
      <point x="1294" y="2261"/>
      <point x="1296" y="2275" type="curve" smooth="yes"/>
      <point x="1300" y="2326"/>
      <point x="1305" y="2379"/>
      <point x="1308" y="2431" type="curve" smooth="yes"/>
    </contour>
    <contour>
      <point x="672" y="1695" type="move"/>
      <point x="679" y="1688" type="line"/>
    </contour>
    <contour>
      <point x="672" y="293" type="move"/>
      <point x="672" y="1299" type="line"/>
      <point x="672" y="1550" type="line"/>
      <point x="672" y="1610" type="line" smooth="yes"/>
      <point x="672" y="1621"/>
      <point x="670" y="1631"/>
      <point x="679" y="1640" type="curve" smooth="yes"/>
    </contour>
    <contour>
      <point x="671" y="1633" type="move"/>
      <point x="595" y="1557" type="line" smooth="yes"/>
      <point x="584" y="1546"/>
      <point x="572" y="1529"/>
      <point x="559" y="1522" type="curve" smooth="yes"/>
      <point x="551" y="1518"/>
      <point x="541" y="1516"/>
      <point x="533" y="1514" type="curve" smooth="yes"/>
      <point x="481" y="1498" type="line" smooth="yes"/>
      <point x="471" y="1496"/>
      <point x="459" y="1494"/>
      <point x="452" y="1488" type="curve" smooth="yes"/>
      <point x="423" y="1466"/>
      <point x="399" y="1436"/>
      <point x="374" y="1411" type="curve" smooth="yes"/>
      <point x="317" y="1354"/>
      <point x="260" y="1296"/>
      <point x="203" y="1240" type="curve" smooth="yes"/>
      <point x="172" y="1209"/>
      <point x="141" y="1176"/>
      <point x="110" y="1146" type="curve" smooth="yes"/>
      <point x="78" y="1114" type="line" smooth="yes"/>
      <point x="72" y="1108"/>
      <point x="65" y="1103"/>
      <point x="62" y="1097" type="curve" smooth="yes"/>
      <point x="59" y="1091"/>
      <point x="60" y="1082"/>
      <point x="60" y="1077" type="curve" smooth="yes"/>
      <point x="58" y="1058"/>
      <point x="59" y="1039"/>
      <point x="57" y="1021" type="curve" smooth="yes"/>
      <point x="54" y="988"/>
      <point x="55" y="954"/>
      <point x="52" y="922" type="curve" smooth="yes"/>
      <point x="50" y="885"/>
      <point x="47" y="848"/>
      <point x="47" y="812" type="curve" smooth="yes"/>
    </contour>
  </outline>
</glyph>
<glyph name="plus" format="1">
  <advance width="1740"/>
  <unicode hex="002B"/>
  <outline>
    <contour>
      <point x="886" y="2866" type="move"/>
      <point x="886" y="275" type="line"/>
    </contour>
    <contour>
      <point x="128" y="1593" type="move"/>
      <point x="1628" y="1593" type="line"/>
    </contour>
  </outline>
</glyph>
<glyph name="hyphen" format="1">
  <advance width="1413"/>
  <unicode hex="002D"/>
  <outline>
    <contour>
      <point x="128" y="1304" type="move"/>
      <point x="1301" y="1304" type="line"/>
    </contour>
  </outline>
</glyph>
<glyph name="slash" format="1">
  <advance width="1244"/>
  <unicode hex="002F"/>
  <outline>
    <contour>
      <point x="1200" y="3199" type="move"/>
      <point x="1111" y="2955" type="line"/>
      <point x="904" y="2390" type="line"/>
      <point x="347" y="869" type="line"/>
      <point x="128" y="271" type="line"/>
      <point x="50" y="57" type="line"/>
      <point x="12" y="-50" type="line"/>
    </contour>
  </outline>
</glyph>
<glyph name="zero" format="1">
  <advance width="1694"/>
  <unicode hex="0030"/>
  <outline>
    <contour>
      <point x="928" y="3022" type="curve" smooth="yes"/>
      <point x="961" y="3017"/>
      <point x="995" y="3011"/>
      <point x="1026" y="2998" type="curve" smooth="yes"/>
      <point x="1102" y="2965"/>
      <point x="1161" y="2908"/>
      <point x="1211" y="2844" type="curve" smooth="yes"/>
      <point x="1273" y="2763"/>
      <point x="1321" y="2672"/>
      <point x="1357" y="2577" type="curve" smooth="yes"/>
      <point x="1374" y="2532"/>
      <point x="1390" y="2487"/>
      <point x="1401" y="2442" type="curve" smooth="yes"/>
      <point x="1426" y="2341"/>
      <point x="1447" y="2241"/>
      <point x="1460" y="2139" type="curve" smooth="yes"/>
      <point x="1473" y="2030"/>
      <point x="1478" y="1922"/>
      <point x="1483" y="1814" type="curve" smooth="yes"/>
      <point x="1487" y="1715"/>
      <point x="1488" y="1616"/>
      <point x="1484" y="1518" type="curve" smooth="yes"/>
      <point x="1481" y="1447"/>
      <point x="1480" y="1377"/>
      <point x="1475" y="1308" type="curve" smooth="yes"/>
      <point x="1463" y="1139"/>
      <point x="1437" y="969"/>
      <point x="1387" y="808" type="curve" smooth="yes"/>
      <point x="1349" y="686"/>
      <point x="1294" y="568"/>
      <point x="1217" y="467" type="curve" smooth="yes"/>
      <point x="1171" y="405"/>
      <point x="1115" y="349"/>
      <point x="1046" y="315" type="curve" smooth="yes"/>
      <point x="998" y="292"/>
      <point x="946" y="284"/>
      <point x="894" y="278" type="curve" smooth="yes"/>
      <point x="854" y="273"/>
      <point x="817" y="276"/>
      <point x="778" y="280" type="curve" smooth="yes"/>
      <point x="716" y="288"/>
      <point x="660" y="303"/>
      <point x="607" y="336" type="curve" smooth="yes"/>
      <point x="549" y="373"/>
      <point x="503" y="427"/>
      <point x="463" y="482" type="curve" smooth="yes"/>
      <point x="398" y="573"/>
      <point x="350" y="677"/>
      <point x="316" y="784" type="curve" smooth="yes"/>
      <point x="305" y="818"/>
      <point x="294" y="852"/>
      <point x="286" y="888" type="curve" smooth="yes"/>
      <point x="271" y="956"/>
      <point x="255" y="1024"/>
      <point x="245" y="1094" type="curve" smooth="yes"/>
      <point x="214" y="1312"/>
      <point x="203" y="1533"/>
      <point x="209" y="1754" type="curve" smooth="yes"/>
      <point x="215" y="1987"/>
      <point x="233" y="2218"/>
      <point x="293" y="2446" type="curve" smooth="yes"/>
      <point x="329" y="2581"/>
      <point x="387" y="2714"/>
      <point x="470" y="2828" type="curve" smooth="yes"/>
      <point x="514" y="2889"/>
      <point x="568" y="2947"/>
      <point x="636" y="2983" type="curve" smooth="yes"/>
      <point x="700" y="3018"/>
      <point x="768" y="3020"/>
      <point x="838" y="3029" type="curve" smooth="yes"/>
      <point x="866" y="3033"/>
      <point x="900" y="3026"/>
    </contour>
    <contour>
      <point x="847" y="1962" type="move"/>
      <point x="847" y="1366" type="line"/>
    </contour>
  </outline>
</glyph>
<glyph name="three" format="1">
  <advance width="1692"/>
  <unicode hex="0033"/>
  <outline>
    <contour>
      <point x="282" y="3039" type="move"/>
      <point x="1139" y="3039" type="line"/>
      <point x="1340" y="3039" type="line" smooth="yes"/>
      <point x="1349" y="3039"/>
      <point x="1367" y="3042"/>
      <point x="1376" y="3037" type="curve" smooth="yes"/>
      <point x="1382" y="3034"/>
      <point x="1387" y="3027"/>
      <point x="1392" y="3023" type="curve" smooth="yes"/>
      <point x="1395" y="3019"/>
      <point x="1401" y="3015"/>
      <point x="1402" y="3010" type="curve" smooth="yes"/>
      <point x="1403" y="3002"/>
      <point x="1398" y="2991"/>
      <point x="1396" y="2984" type="curve" smooth="yes"/>
      <point x="1390" y="2964"/>
      <point x="1385" y="2945"/>
      <point x="1380" y="2926" type="curve" smooth="yes"/>
      <point x="1373" y="2902"/>
      <point x="1367" y="2878"/>
      <point x="1360" y="2855" type="curve" smooth="yes"/>
      <point x="1357" y="2842"/>
      <point x="1354" y="2828"/>
      <point x="1349" y="2817" type="curve" smooth="yes"/>
      <point x="1340" y="2798"/>
      <point x="1323" y="2781"/>
      <point x="1311" y="2766" type="curve" smooth="yes"/>
      <point x="1288" y="2737"/>
      <point x="1266" y="2707"/>
      <point x="1244" y="2679" type="curve" smooth="yes"/>
      <point x="1142" y="2546"/>
      <point x="1041" y="2413"/>
      <point x="940" y="2280" type="curve" smooth="yes"/>
      <point x="914" y="2247"/>
      <point x="889" y="2214"/>
      <point x="864" y="2181" type="curve" smooth="yes"/>
      <point x="853" y="2166"/>
      <point x="838" y="2151"/>
      <point x="829" y="2135" type="curve" smooth="yes"/>
      <point x="824" y="2124"/>
      <point x="822" y="2110"/>
      <point x="819" y="2099" type="curve" smooth="yes"/>
      <point x="812" y="2072"/>
      <point x="804" y="2045"/>
      <point x="797" y="2019" type="curve" smooth="yes"/>
      <point x="782" y="1965" type="line" smooth="yes"/>
      <point x="780" y="1957"/>
      <point x="776" y="1949"/>
      <point x="776" y="1942" type="curve" smooth="yes"/>
      <point x="776" y="1937"/>
      <point x="781" y="1934"/>
      <point x="784" y="1931" type="curve" smooth="yes"/>
      <point x="791" y="1923"/>
      <point x="798" y="1913"/>
      <point x="809" y="1913" type="curve" smooth="yes"/>
      <point x="868" y="1908"/>
      <point x="926" y="1897"/>
      <point x="984" y="1880" type="curve" smooth="yes"/>
      <point x="1152" y="1828"/>
      <point x="1291" y="1687"/>
      <point x="1365" y="1531" type="curve" smooth="yes"/>
      <point x="1393" y="1469"/>
      <point x="1415" y="1405"/>
      <point x="1429" y="1339" type="curve" smooth="yes"/>
      <point x="1438" y="1292"/>
      <point x="1442" y="1245"/>
      <point x="1447" y="1198" type="curve" smooth="yes"/>
      <point x="1458" y="1082"/>
      <point x="1451" y="963"/>
      <point x="1431" y="850" type="curve" smooth="yes"/>
      <point x="1406" y="709"/>
      <point x="1360" y="570"/>
      <point x="1264" y="462" type="curve" smooth="yes"/>
      <point x="1159" y="342"/>
      <point x="1004" y="291"/>
      <point x="851" y="276" type="curve" smooth="yes"/>
      <point x="816" y="273"/>
      <point x="782" y="269"/>
      <point x="748" y="269" type="curve" smooth="yes"/>
      <point x="651" y="267"/>
      <point x="553" y="282"/>
      <point x="461" y="307" type="curve" smooth="yes"/>
      <point x="391" y="326"/>
      <point x="317" y="350"/>
      <point x="256" y="388" type="curve" smooth="yes"/>
    </contour>
  </outline>
</glyph>
<glyph name="four" format="1">
  <advance width="1739"/>
  <unicode hex="0034"/>
  <outline>
    <contour>
      <point x="1578" y="929" type="move"/>
      <point x="511" y="929" type="line"/>
      <point x="252" y="929" type="line"/>
      <point x="198" y="929" type="line" smooth="yes"/>
      <point x="191" y="929"/>
      <point x="181" y="927"/>
      <point x="174" y="929" type="curve" smooth="yes"/>
      <point x="169" y="931"/>
      <point x="164" y="937"/>
      <point x="161" y="941" type="curve" smooth="yes"/>
      <point x="156" y="948"/>
      <point x="163" y="967"/>
      <point x="165" y="976" type="curve" smooth="yes"/>
      <point x="172" y="1008"/>
      <point x="178" y="1042"/>
      <point x="185" y="1075" type="curve" smooth="yes"/>
      <point x="190" y="1100"/>
      <point x="192" y="1127"/>
      <point x="200" y="1152" type="curve" smooth="yes"/>
      <point x="205" y="1167"/>
      <point x="215" y="1183"/>
      <point x="222" y="1198" type="curve" smooth="yes"/>
      <point x="272" y="1301" type="line" smooth="yes"/>
      <point x="303" y="1365"/>
      <point x="333" y="1430"/>
      <point x="365" y="1495" type="curve" smooth="yes"/>
      <point x="440" y="1645"/>
      <point x="511" y="1798"/>
      <point x="584" y="1950" type="curve" smooth="yes"/>
      <point x="699" y="2186"/>
      <point x="812" y="2422"/>
      <point x="926" y="2659" type="curve" smooth="yes"/>
      <point x="929" y="2665"/>
      <point x="932" y="2673"/>
      <point x="937" y="2678" type="curve" smooth="yes"/>
      <point x="940" y="2682"/>
      <point x="947" y="2684"/>
      <point x="952" y="2687" type="curve" smooth="yes"/>
      <point x="962" y="2692"/>
      <point x="973" y="2698"/>
      <point x="983" y="2703" type="curve" smooth="yes"/>
      <point x="1013" y="2717"/>
      <point x="1042" y="2733"/>
      <point x="1071" y="2747" type="curve" smooth="yes"/>
      <point x="1083" y="2753"/>
      <point x="1103" y="2759"/>
      <point x="1112" y="2769" type="curve" smooth="yes"/>
      <point x="1116" y="2774"/>
      <point x="1116" y="2783"/>
      <point x="1117" y="2790" type="curve" smooth="yes"/>
      <point x="1120" y="2807"/>
      <point x="1124" y="2824"/>
      <point x="1127" y="2841" type="curve" smooth="yes"/>
      <point x="1139" y="2903"/>
      <point x="1148" y="2968"/>
      <point x="1164" y="3030" type="curve" smooth="yes"/>
    </contour>
    <contour>
      <point x="1112" y="2769" type="move"/>
      <point x="1148" y="2733" type="line"/>
      <point x="1164" y="2716" type="line"/>
      <point x="1164" y="2699" type="line"/>
      <point x="1164" y="2664" type="line"/>
      <point x="1164" y="2545" type="line"/>
      <point x="1164" y="2111" type="line"/>
      <point x="1164" y="265" type="line"/>
    </contour>
  </outline>
</glyph>
<glyph name="seven" format="1">
  <advance width="1687"/>
  <unicode hex="0037"/>
  <outline>
    <contour>
      <point x="288" y="3039" type="move"/>
      <point x="1152" y="3039" type="line"/>
      <point x="1362" y="3039" type="line"/>
      <point x="1407" y="3039" type="line" smooth="yes"/>
      <point x="1413" y="3039"/>
      <point x="1422" y="3040"/>
      <point x="1428" y="3038" type="curve" smooth="yes"/>
      <point x="1433" y="3036"/>
      <point x="1439" y="3028"/>
      <point x="1443" y="3024" type="curve" smooth="yes"/>
      <point x="1451" y="3015"/>
      <point x="1443" y="2993"/>
      <point x="1442" y="2983" type="curve" smooth="yes"/>
      <point x="1436" y="2943"/>
      <point x="1429" y="2903"/>
      <point x="1424" y="2864" type="curve" smooth="yes"/>
      <point x="1421" y="2844"/>
      <point x="1419" y="2824"/>
      <point x="1415" y="2805" type="curve" smooth="yes"/>
      <point x="1403" y="2756"/>
      <point x="1381" y="2709"/>
      <point x="1364" y="2663" type="curve" smooth="yes"/>
      <point x="1327" y="2559"/>
      <point x="1288" y="2454"/>
      <point x="1256" y="2349" type="curve" smooth="yes"/>
      <point x="1227" y="2252"/>
      <point x="1191" y="2158"/>
      <point x="1162" y="2062" type="curve" smooth="yes"/>
      <point x="1078" y="1794"/>
      <point x="995" y="1527"/>
      <point x="920" y="1257" type="curve" smooth="yes"/>
      <point x="858" y="1035"/>
      <point x="799" y="812"/>
      <point x="745" y="588" type="curve" smooth="yes"/>
      <point x="719" y="476"/>
      <point x="696" y="364"/>
      <point x="668" y="254" type="curve" smooth="yes"/>
    </contour>
  </outline>
</glyph>
<glyph name="eight" format="1">
  <advance width="1370"/>
  <unicode hex="0038"/>
  <outline>
    <contour>
      <point x="730" y="3028" type="curve" smooth="yes"/>
      <point x="758" y="3026"/>
      <point x="786" y="3023"/>
      <point x="813" y="3019" type="curve" smooth="yes"/>
      <point x="848" y="3014"/>
      <point x="882" y="3005"/>
      <point x="914" y="2991" type="curve" smooth="yes"/>
      <point x="945" y="2978"/>
      <point x="974" y="2961"/>
      <point x="1000" y="2941" type="curve" smooth="yes"/>
      <point x="1135" y="2839"/>
      <point x="1186" y="2669"/>
      <point x="1203" y="2509" type="curve" smooth="yes"/>
      <point x="1206" y="2473"/>
      <point x="1211" y="2436"/>
      <point x="1211" y="2401" type="curve" smooth="yes"/>
      <point x="1212" y="2375"/>
      <point x="1208" y="2349"/>
      <point x="1206" y="2324" type="curve" smooth="yes"/>
      <point x="1201" y="2276"/>
      <point x="1197" y="2229"/>
      <point x="1186" y="2183" type="curve" smooth="yes"/>
      <point x="1172" y="2121"/>
      <point x="1151" y="2062"/>
      <point x="1122" y="2006" type="curve" smooth="yes"/>
      <point x="1086" y="1936"/>
      <point x="1036" y="1870"/>
      <point x="978" y="1818" type="curve" smooth="yes"/>
      <point x="966" y="1806"/>
      <point x="954" y="1795"/>
      <point x="940" y="1784" type="curve" smooth="yes"/>
      <point x="933" y="1778"/>
      <point x="924" y="1773"/>
      <point x="918" y="1765" type="curve" smooth="yes"/>
      <point x="914" y="1760"/>
      <point x="913" y="1753"/>
      <point x="910" y="1747" type="curve" smooth="yes"/>
      <point x="904" y="1732"/>
      <point x="898" y="1718"/>
      <point x="892" y="1704" type="curve" smooth="yes"/>
      <point x="888" y="1694"/>
      <point x="884" y="1685"/>
      <point x="880" y="1676" type="curve" smooth="yes"/>
      <point x="878" y="1672"/>
      <point x="875" y="1667"/>
      <point x="875" y="1663" type="curve" smooth="yes"/>
      <point x="876" y="1650"/>
      <point x="887" y="1633"/>
      <point x="892" y="1622" type="curve" smooth="yes"/>
      <point x="898" y="1608"/>
      <point x="904" y="1595"/>
      <point x="909" y="1582" type="curve" smooth="yes"/>
      <point x="912" y="1575"/>
      <point x="914" y="1566"/>
      <point x="918" y="1561" type="curve" smooth="yes"/>
      <point x="924" y="1553"/>
      <point x="935" y="1547"/>
      <point x="942" y="1540" type="curve" smooth="yes"/>
      <point x="959" y="1526"/>
      <point x="976" y="1512"/>
      <point x="992" y="1497" type="curve" smooth="yes"/>
      <point x="1056" y="1439"/>
      <point x="1114" y="1372"/>
      <point x="1157" y="1297" type="curve" smooth="yes"/>
      <point x="1185" y="1246"/>
      <point x="1208" y="1193"/>
      <point x="1225" y="1138" type="curve" smooth="yes"/>
      <point x="1238" y="1094"/>
      <point x="1245" y="1048"/>
      <point x="1250" y="1003" type="curve" smooth="yes"/>
      <point x="1252" y="975"/>
      <point x="1257" y="948"/>
      <point x="1257" y="921" type="curve" smooth="yes"/>
      <point x="1258" y="891"/>
      <point x="1253" y="861"/>
      <point x="1250" y="832" type="curve" smooth="yes"/>
      <point x="1243" y="767"/>
      <point x="1232" y="705"/>
      <point x="1212" y="644" type="curve" smooth="yes"/>
      <point x="1173" y="522"/>
      <point x="1089" y="412"/>
      <point x="977" y="349" type="curve" smooth="yes"/>
      <point x="916" y="314"/>
      <point x="849" y="299"/>
      <point x="779" y="290" type="curve" smooth="yes"/>
      <point x="687" y="278"/>
      <point x="589" y="283"/>
      <point x="499" y="311" type="curve" smooth="yes"/>
      <point x="391" y="344"/>
      <point x="303" y="423"/>
      <point x="241" y="516" type="curve" smooth="yes"/>
      <point x="175" y="612"/>
      <point x="143" y="723"/>
      <point x="132" y="838" type="curve" smooth="yes"/>
      <point x="130" y="861"/>
      <point x="127" y="884"/>
      <point x="127" y="908" type="curve" smooth="yes"/>
      <point x="127" y="940"/>
      <point x="132" y="973"/>
      <point x="135" y="1005" type="curve" smooth="yes"/>
      <point x="145" y="1092"/>
      <point x="167" y="1176"/>
      <point x="205" y="1255" type="curve" smooth="yes"/>
      <point x="250" y="1345"/>
      <point x="313" y="1422"/>
      <point x="385" y="1492" type="curve" smooth="yes"/>
      <point x="403" y="1510"/>
      <point x="423" y="1525"/>
      <point x="441" y="1541" type="curve" smooth="yes"/>
      <point x="449" y="1547"/>
      <point x="461" y="1553"/>
      <point x="467" y="1562" type="curve" smooth="yes"/>
      <point x="471" y="1567"/>
      <point x="473" y="1576"/>
      <point x="476" y="1583" type="curve" smooth="yes"/>
      <point x="481" y="1596"/>
      <point x="487" y="1609"/>
      <point x="492" y="1623" type="curve" smooth="yes"/>
      <point x="497" y="1634"/>
      <point x="508" y="1649"/>
      <point x="509" y="1662" type="curve" smooth="yes"/>
      <point x="509" y="1666"/>
      <point x="506" y="1670"/>
      <point x="504" y="1674" type="curve" smooth="yes"/>
      <point x="500" y="1684"/>
      <point x="495" y="1693"/>
      <point x="491" y="1704" type="curve" smooth="yes"/>
      <point x="485" y="1716"/>
      <point x="479" y="1729"/>
      <point x="474" y="1743" type="curve" smooth="yes"/>
      <point x="471" y="1749"/>
      <point x="469" y="1758"/>
      <point x="465" y="1764" type="curve" smooth="yes"/>
      <point x="460" y="1771"/>
      <point x="451" y="1776"/>
      <point x="444" y="1781" type="curve" smooth="yes"/>
      <point x="432" y="1791"/>
      <point x="420" y="1801"/>
      <point x="408" y="1812" type="curve" smooth="yes"/>
      <point x="340" y="1874"/>
      <point x="283" y="1948"/>
      <point x="242" y="2031" type="curve" smooth="yes"/>
      <point x="215" y="2085"/>
      <point x="195" y="2143"/>
      <point x="182" y="2203" type="curve" smooth="yes"/>
      <point x="173" y="2241"/>
      <point x="168" y="2280"/>
      <point x="164" y="2320" type="curve" smooth="yes"/>
      <point x="162" y="2347"/>
      <point x="158" y="2374"/>
      <point x="157" y="2402" type="curve" smooth="yes"/>
      <point x="157" y="2433"/>
      <point x="162" y="2466"/>
      <point x="165" y="2498" type="curve" smooth="yes"/>
      <point x="172" y="2564"/>
      <point x="184" y="2630"/>
      <point x="206" y="2694" type="curve" smooth="yes"/>
      <point x="241" y="2797"/>
      <point x="311" y="2893"/>
      <point x="402" y="2954" type="curve" smooth="yes"/>
      <point x="449" y="2986"/>
      <point x="502" y="3006"/>
      <point x="557" y="3016" type="curve" smooth="yes"/>
      <point x="600" y="3024"/>
      <point x="644" y="3023"/>
      <point x="686" y="3029" type="curve" smooth="yes"/>
      <point x="701" y="3031"/>
      <point x="716" y="3029"/>
    </contour>
    <contour>
      <point x="511" y="1663" type="move"/>
      <point x="630" y="1664" type="line"/>
      <point x="873" y="1663" type="line"/>
    </contour>
  </outline>
</glyph>
<glyph name="nine" format="1">
  <advance width="1527"/>
  <unicode hex="0039"/>
  <outline>
    <contour>
      <point x="829" y="3013" type="curve" smooth="yes"/>
      <point x="868" y="3008"/>
      <point x="907" y="3002"/>
      <point x="944" y="2988" type="curve" smooth="yes"/>
      <point x="1060" y="2945"/>
      <point x="1139" y="2855"/>
      <point x="1199" y="2750" type="curve" smooth="yes"/>
      <point x="1278" y="2611"/>
      <point x="1302" y="2448"/>
      <point x="1313" y="2292" type="curve" smooth="yes"/>
      <point x="1324" y="2134"/>
      <point x="1321" y="1972"/>
      <point x="1291" y="1817" type="curve" smooth="yes"/>
      <point x="1274" y="1725"/>
      <point x="1253" y="1634"/>
      <point x="1216" y="1548" type="curve" smooth="yes"/>
      <point x="1207" y="1526"/>
      <point x="1198" y="1505"/>
      <point x="1188" y="1485" type="curve" smooth="yes"/>
      <point x="1184" y="1477"/>
      <point x="1181" y="1466"/>
      <point x="1175" y="1460" type="curve" smooth="yes"/>
      <point x="1168" y="1453"/>
      <point x="1152" y="1450"/>
      <point x="1143" y="1447" type="curve" smooth="yes"/>
      <point x="1116" y="1437"/>
      <point x="1088" y="1428"/>
      <point x="1060" y="1421" type="curve" smooth="yes"/>
      <point x="1025" y="1412"/>
      <point x="988" y="1408"/>
      <point x="954" y="1399" type="curve" smooth="yes"/>
      <point x="932" y="1393"/>
      <point x="912" y="1381"/>
      <point x="891" y="1375" type="curve" smooth="yes"/>
      <point x="849" y="1362"/>
      <point x="804" y="1356"/>
      <point x="761" y="1351" type="curve" smooth="yes"/>
      <point x="724" y="1346"/>
      <point x="689" y="1350"/>
      <point x="652" y="1355" type="curve" smooth="yes"/>
      <point x="606" y="1362"/>
      <point x="561" y="1370"/>
      <point x="520" y="1389" type="curve" smooth="yes"/>
      <point x="342" y="1475"/>
      <point x="249" y="1674"/>
      <point x="208" y="1857" type="curve" smooth="yes"/>
      <point x="192" y="1929"/>
      <point x="185" y="2002"/>
      <point x="180" y="2076" type="curve" smooth="yes"/>
      <point x="176" y="2133"/>
      <point x="174" y="2191"/>
      <point x="177" y="2249" type="curve" smooth="yes"/>
      <point x="186" y="2457"/>
      <point x="219" y="2672"/>
      <point x="352" y="2841" type="curve" smooth="yes"/>
      <point x="388" y="2887"/>
      <point x="432" y="2928"/>
      <point x="483" y="2959" type="curve" smooth="yes"/>
      <point x="517" y="2979"/>
      <point x="554" y="2994"/>
      <point x="593" y="3002" type="curve" smooth="yes"/>
      <point x="640" y="3013"/>
      <point x="689" y="3014"/>
      <point x="737" y="3020" type="curve" smooth="yes"/>
      <point x="766" y="3024"/>
      <point x="800" y="3016"/>
    </contour>
    <contour>
      <point x="1175" y="1459" type="move" smooth="yes"/>
      <point x="1183" y="1451"/>
      <point x="1200" y="1439"/>
      <point x="1203" y="1429" type="curve" smooth="yes"/>
      <point x="1205" y="1422"/>
      <point x="1201" y="1410"/>
      <point x="1200" y="1403" type="curve" smooth="yes"/>
      <point x="1197" y="1383"/>
      <point x="1195" y="1363"/>
      <point x="1192" y="1344" type="curve" smooth="yes"/>
      <point x="1187" y="1309"/>
      <point x="1182" y="1275"/>
      <point x="1176" y="1241" type="curve" smooth="yes"/>
      <point x="1173" y="1221"/>
      <point x="1172" y="1201"/>
      <point x="1166" y="1183" type="curve" smooth="yes"/>
      <point x="1160" y="1158"/>
      <point x="1148" y="1135"/>
      <point x="1138" y="1112" type="curve" smooth="yes"/>
      <point x="1006" y="802"/>
      <point x="839" y="511"/>
      <point x="650" y="234" type="curve" smooth="yes"/>
    </contour>
  </outline>
</glyph>
<glyph name="colon" format="1">
  <advance width="688"/>
  <unicode hex="003A"/>
  <outline>
    <contour>
      <point x="336" y="2335" type="move"/>
      <point x="336" y="2118" type="line"/>
    </contour>
    <contour>
      <point x="336" y="929" type="move"/>
      <point x="336" y="696" type="line"/>
    </contour>
  </outline>
</glyph>
<glyph name="less" format="1">
  <advance width="1910"/>
  <unicode hex="003C"/>
  <outline>
    <contour>
      <point x="1622" y="2504" type="move" smooth="yes"/>
      <point x="1592" y="2487"/>
      <point x="1565" y="2464"/>
      <point x="1537" y="2445" type="curve" smooth="yes"/>
      <point x="1461" y="2394"/>
      <point x="1387" y="2341"/>
      <point x="1313" y="2290" type="curve" smooth="yes"/>
      <point x="1174" y="2194"/>
      <point x="1037" y="2098"/>
      <point x="899" y="2003" type="curve" smooth="yes"/>
      <point x="823" y="1950"/>
      <point x="746" y="1899"/>
      <point x="672" y="1846" type="curve" smooth="yes"/>
      <point x="628" y="1814"/>
      <point x="584" y="1784"/>
      <point x="540" y="1754" type="curve" smooth="yes"/>
      <point x="517" y="1739"/>
      <point x="489" y="1724"/>
      <point x="470" y="1705" type="curve" smooth="yes"/>
      <point x="463" y="1699"/>
      <point x="461" y="1687"/>
      <point x="457" y="1679" type="curve" smooth="yes"/>
      <point x="450" y="1659"/>
      <point x="442" y="1640"/>
      <point x="434" y="1622" type="curve" smooth="yes"/>
      <point x="431" y="1614"/>
      <point x="427" y="1598"/>
      <point x="420" y="1594" type="curve" smooth="yes"/>
      <point x="415" y="1591"/>
      <point x="406" y="1593"/>
      <point x="401" y="1593" type="curve" smooth="yes"/>
      <point x="352" y="1593" type="line" smooth="yes"/>
    </contour>
    <contour>
      <point x="423" y="1592" type="move"/>
      <point x="449" y="1525" type="line"/>
      <point x="464" y="1492" type="line"/>
      <point x="494" y="1469" type="line"/>
      <point x="558" y="1424" type="line"/>
      <point x="761" y="1279" type="line"/>
      <point x="1268" y="915" type="line"/>
      <point x="1472" y="769" type="line"/>
      <point x="1619" y="664" type="line"/>
    </contour>
  </outline>
</glyph>
<glyph name="equal" format="1">
  <advance width="1789"/>
  <unicode hex="003D"/>
  <outline>
    <contour>
      <point x="128" y="1742" type="move"/>
      <point x="1629" y="1742" type="line"/>
    </contour>
    <contour>
      <point x="128" y="992" type="move"/>
      <point x="1629" y="992" type="line"/>
    </contour>
  </outline>
</glyph>
<glyph name="at" format="1">
  <advance width="2662"/>
  <unicode hex="0040"/>
  <outline>
    <contour>
      <point x="2200" y="342" type="move" smooth="yes"/>
      <point x="2157" y="330"/>
      <point x="2112" y="324"/>
      <point x="2067" y="317" type="curve" smooth="yes"/>
      <point x="1978" y="303"/>
      <point x="1890" y="292"/>
      <point x="1800" y="283" type="curve" smooth="yes"/>
      <point x="1724" y="276"/>
      <point x="1649" y="273"/>
      <point x="1572" y="269" type="curve" smooth="yes"/>
      <point x="1520" y="267"/>
      <point x="1467" y="265"/>
      <point x="1414" y="267" type="curve" smooth="yes"/>
      <point x="1100" y="274"/>
      <point x="758" y="343"/>
      <point x="543" y="594" type="curve" smooth="yes"/>
      <point x="363" y="803"/>
      <point x="308" y="1081"/>
      <point x="282" y="1348" type="curve" smooth="yes"/>
      <point x="273" y="1447"/>
      <point x="269" y="1548"/>
      <point x="273" y="1648" type="curve" smooth="yes"/>
      <point x="277" y="1734"/>
      <point x="281" y="1820"/>
      <point x="292" y="1907" type="curve" smooth="yes"/>
      <point x="338" y="2285"/>
      <point x="504" y="2693"/>
      <point x="849" y="2890" type="curve" smooth="yes"/>
      <point x="927" y="2934"/>
      <point x="1009" y="2966"/>
      <point x="1095" y="2989" type="curve" smooth="yes"/>
      <point x="1170" y="3008"/>
      <point x="1247" y="3017"/>
      <point x="1323" y="3023" type="curve" smooth="yes"/>
      <point x="1512" y="3036"/>
      <point x="1705" y="3013"/>
      <point x="1878" y="2933" type="curve" smooth="yes"/>
      <point x="1994" y="2880"/>
      <point x="2099" y="2799"/>
      <point x="2184" y="2705" type="curve" smooth="yes"/>
      <point x="2234" y="2650"/>
      <point x="2275" y="2587"/>
      <point x="2310" y="2522" type="curve" smooth="yes"/>
      <point x="2404" y="2343"/>
      <point x="2436" y="2142"/>
      <point x="2449" y="1944" type="curve" smooth="yes"/>
      <point x="2456" y="1846"/>
      <point x="2456" y="1747"/>
      <point x="2449" y="1650" type="curve" smooth="yes"/>
      <point x="2435" y="1441"/>
      <point x="2404" y="1235"/>
      <point x="2322" y="1042" type="curve" smooth="yes"/>
      <point x="2302" y="994"/>
      <point x="2278" y="949"/>
      <point x="2251" y="905" type="curve" smooth="yes"/>
      <point x="2244" y="893"/>
      <point x="2237" y="882"/>
      <point x="2229" y="871" type="curve" smooth="yes"/>
      <point x="2226" y="865"/>
      <point x="2223" y="858"/>
      <point x="2217" y="854" type="curve" smooth="yes"/>
      <point x="2202" y="844"/>
      <point x="2177" y="840"/>
      <point x="2159" y="834" type="curve" smooth="yes"/>
      <point x="2145" y="829"/>
      <point x="2129" y="822"/>
      <point x="2113" y="820" type="curve" smooth="yes"/>
      <point x="2103" y="818"/>
      <point x="2092" y="820"/>
      <point x="2081" y="820" type="curve" smooth="yes"/>
      <point x="2019" y="820" type="line"/>
      <point x="1867" y="820" type="line"/>
      <point x="1803" y="820" type="line" smooth="yes"/>
      <point x="1794" y="820"/>
      <point x="1782" y="817"/>
      <point x="1772" y="820" type="curve" smooth="yes"/>
      <point x="1766" y="821"/>
      <point x="1756" y="832"/>
      <point x="1754" y="838" type="curve" smooth="yes"/>
      <point x="1750" y="848"/>
      <point x="1753" y="865"/>
      <point x="1753" y="876" type="curve" smooth="yes"/>
      <point x="1753" y="963" type="line" smooth="yes"/>
      <point x="1753" y="967"/>
      <point x="1754" y="972"/>
      <point x="1752" y="976" type="curve" smooth="yes"/>
      <point x="1750" y="980"/>
      <point x="1747" y="982"/>
      <point x="1746" y="987" type="curve" smooth="yes"/>
      <point x="1742" y="1057"/>
      <point x="1746" y="1130"/>
      <point x="1746" y="1201" type="curve" smooth="yes"/>
      <point x="1746" y="2017" type="line"/>
      <point x="1746" y="2245" type="line"/>
      <point x="1746" y="2312" type="line" smooth="yes"/>
      <point x="1746" y="2320"/>
      <point x="1749" y="2333"/>
      <point x="1746" y="2342" type="curve" smooth="yes"/>
      <point x="1741" y="2355"/>
      <point x="1716" y="2358"/>
      <point x="1704" y="2362" type="curve" smooth="yes"/>
      <point x="1664" y="2373"/>
      <point x="1624" y="2385"/>
      <point x="1583" y="2394" type="curve" smooth="yes"/>
      <point x="1566" y="2398"/>
      <point x="1544" y="2399"/>
      <point x="1527" y="2406" type="curve" smooth="yes"/>
      <point x="1517" y="2410"/>
      <point x="1508" y="2418"/>
      <point x="1498" y="2423" type="curve" smooth="yes"/>
      <point x="1478" y="2434"/>
      <point x="1457" y="2444"/>
      <point x="1435" y="2451" type="curve" smooth="yes"/>
      <point x="1406" y="2462"/>
      <point x="1374" y="2467"/>
      <point x="1343" y="2473" type="curve" smooth="yes"/>
      <point x="1323" y="2477"/>
      <point x="1302" y="2482"/>
      <point x="1281" y="2482" type="curve" smooth="yes"/>
      <point x="1264" y="2483"/>
      <point x="1245" y="2478"/>
      <point x="1228" y="2475" type="curve" smooth="yes"/>
      <point x="1200" y="2470"/>
      <point x="1170" y="2466"/>
      <point x="1143" y="2456" type="curve" smooth="yes"/>
      <point x="996" y="2401"/>
      <point x="938" y="2231"/>
      <point x="900" y="2093" type="curve" smooth="yes"/>
      <point x="877" y="2010"/>
      <point x="862" y="1923"/>
      <point x="854" y="1838" type="curve" smooth="yes"/>
      <point x="835" y="1642"/>
      <point x="842" y="1445"/>
      <point x="883" y="1253" type="curve" smooth="yes"/>
      <point x="909" y="1128"/>
      <point x="957" y="994"/>
      <point x="1062" y="914" type="curve" smooth="yes"/>
      <point x="1102" y="884"/>
      <point x="1150" y="869"/>
      <point x="1198" y="861" type="curve" smooth="yes"/>
      <point x="1224" y="857"/>
      <point x="1251" y="851"/>
      <point x="1277" y="851" type="curve" smooth="yes"/>
      <point x="1294" y="851"/>
      <point x="1311" y="855"/>
      <point x="1327" y="857" type="curve" smooth="yes"/>
      <point x="1363" y="862"/>
      <point x="1400" y="868"/>
      <point x="1434" y="880" type="curve" smooth="yes"/>
      <point x="1456" y="886"/>
      <point x="1477" y="895"/>
      <point x="1496" y="906" type="curve" smooth="yes"/>
      <point x="1506" y="911"/>
      <point x="1517" y="919"/>
      <point x="1527" y="923" type="curve" smooth="yes"/>
      <point x="1547" y="929"/>
      <point x="1570" y="932"/>
      <point x="1590" y="936" type="curve" smooth="yes"/>
      <point x="1641" y="948"/>
      <point x="1696" y="962"/>
      <point x="1744" y="984" type="curve" smooth="yes"/>
    </contour>
    <contour>
      <point x="1753" y="2492" type="move"/>
      <point x="1753" y="2388" type="line" smooth="yes"/>
      <point x="1753" y="2372"/>
      <point x="1757" y="2355"/>
      <point x="1745" y="2344" type="curve" smooth="yes"/>
    </contour>
  </outline>
</glyph>
<glyph name="B" format="1">
  <advance width="2195"/>
  <unicode hex="0042"/>
  <outline>
    <contour>
      <point x="1521" y="1716" type="curve" smooth="yes"/>
      <point x="1525" y="1708"/>
      <point x="1529" y="1698"/>
      <point x="1536" y="1692" type="curve" smooth="yes"/>
      <point x="1546" y="1683"/>
      <point x="1561" y="1679"/>
      <point x="1573" y="1672" type="curve" smooth="yes"/>
      <point x="1597" y="1659"/>
      <point x="1621" y="1644"/>
      <point x="1645" y="1628" type="curve" smooth="yes"/>
      <point x="1714" y="1582"/>
      <point x="1778" y="1523"/>
      <point x="1829" y="1457" type="curve" smooth="yes"/>
      <point x="1922" y="1335"/>
      <point x="1963" y="1185"/>
      <point x="1978" y="1036" type="curve" smooth="yes"/>
      <point x="1981" y="1000"/>
      <point x="1986" y="963"/>
      <point x="1986" y="927" type="curve" smooth="yes"/>
      <point x="1986" y="894"/>
      <point x="1982" y="861"/>
      <point x="1979" y="829" type="curve" smooth="yes"/>
      <point x="1968" y="715"/>
      <point x="1941" y="606"/>
      <point x="1874" y="512" type="curve" smooth="yes"/>
      <point x="1805" y="413"/>
      <point x="1689" y="339"/>
      <point x="1574" y="308" type="curve" smooth="yes"/>
      <point x="1516" y="292"/>
      <point x="1457" y="286"/>
      <point x="1398" y="280" type="curve" smooth="yes"/>
      <point x="1289" y="270"/>
      <point x="1180" y="273"/>
      <point x="1071" y="273" type="curve" smooth="yes"/>
      <point x="623" y="273" type="line"/>
      <point x="312" y="273" type="line"/>
      <point x="236" y="273" type="line" smooth="yes"/>
      <point x="230" y="273"/>
      <point x="213" y="270"/>
      <point x="210" y="274" type="curve" smooth="yes"/>
      <point x="206" y="279"/>
      <point x="209" y="297"/>
      <point x="209" y="304" type="curve" smooth="yes"/>
      <point x="209" y="387" type="line"/>
      <point x="209" y="709" type="line"/>
      <point x="209" y="1957" type="line"/>
      <point x="209" y="2768" type="line"/>
      <point x="209" y="2964" type="line"/>
      <point x="209" y="3007" type="line" smooth="yes"/>
      <point x="209" y="3016"/>
      <point x="208" y="3023"/>
      <point x="217" y="3029" type="curve" smooth="yes"/>
      <point x="226" y="3035"/>
      <point x="249" y="3031"/>
      <point x="261" y="3031" type="curve" smooth="yes"/>
      <point x="377" y="3031" type="line"/>
      <point x="808" y="3031" type="line" smooth="yes"/>
      <point x="951" y="3031"/>
      <point x="1096" y="3035"/>
      <point x="1240" y="3026" type="curve" smooth="yes"/>
      <point x="1322" y="3020"/>
      <point x="1404" y="3011"/>
      <point x="1482" y="2983" type="curve" smooth="yes"/>
      <point x="1583" y="2947"/>
      <point x="1680" y="2876"/>
      <point x="1740" y="2787" type="curve" smooth="yes"/>
      <point x="1790" y="2711"/>
      <point x="1815" y="2623"/>
      <point x="1826" y="2534" type="curve" smooth="yes"/>
      <point x="1830" y="2500"/>
      <point x="1836" y="2465"/>
      <point x="1836" y="2431" type="curve" smooth="yes"/>
      <point x="1836" y="2400"/>
      <point x="1831" y="2368"/>
      <point x="1827" y="2338" type="curve" smooth="yes"/>
      <point x="1817" y="2264"/>
      <point x="1803" y="2192"/>
      <point x="1773" y="2124" type="curve" smooth="yes"/>
      <point x="1743" y="2051"/>
      <point x="1695" y="1987"/>
      <point x="1636" y="1936" type="curve" smooth="yes"/>
      <point x="1619" y="1921"/>
      <point x="1600" y="1906"/>
      <point x="1582" y="1894" type="curve" smooth="yes"/>
      <point x="1571" y="1887"/>
      <point x="1556" y="1881"/>
      <point x="1548" y="1871" type="curve" smooth="yes"/>
      <point x="1540" y="1863"/>
      <point x="1536" y="1848"/>
      <point x="1531" y="1838" type="curve" smooth="yes"/>
      <point x="1518" y="1813"/>
      <point x="1505" y="1788"/>
      <point x="1488" y="1766" type="curve"/>
      <point x="1500" y="1750"/>
      <point x="1511" y="1732"/>
    </contour>
    <contour>
      <point x="210" y="1765" type="move"/>
      <point x="1488" y="1766" type="line"/>
    </contour>
  </outline>
</glyph>
<glyph name="C" format="1">
  <advance width="2419"/>
  <unicode hex="0043"/>
  <outline>
    <contour>
      <point x="2164" y="1128" type="move" smooth="yes"/>
      <point x="2162" y="1101"/>
      <point x="2155" y="1075"/>
      <point x="2150" y="1050" type="curve" smooth="yes"/>
      <point x="2141" y="1005"/>
      <point x="2130" y="961"/>
      <point x="2116" y="919" type="curve" smooth="yes"/>
      <point x="2034" y="671"/>
      <point x="1869" y="453"/>
      <point x="1625" y="348" type="curve" smooth="yes"/>
      <point x="1534" y="309"/>
      <point x="1438" y="292"/>
      <point x="1340" y="282" type="curve" smooth="yes"/>
      <point x="1307" y="279"/>
      <point x="1273" y="275"/>
      <point x="1240" y="276" type="curve" smooth="yes"/>
      <point x="1204" y="276"/>
      <point x="1168" y="280"/>
      <point x="1132" y="283" type="curve" smooth="yes"/>
      <point x="1000" y="296"/>
      <point x="867" y="331"/>
      <point x="756" y="406" type="curve" smooth="yes"/>
      <point x="471" y="598"/>
      <point x="341" y="936"/>
      <point x="288" y="1263" type="curve" smooth="yes"/>
      <point x="279" y="1324"/>
      <point x="271" y="1386"/>
      <point x="267" y="1449" type="curve" smooth="yes"/>
      <point x="261" y="1534"/>
      <point x="254" y="1620"/>
      <point x="256" y="1706" type="curve" smooth="yes"/>
      <point x="264" y="2018"/>
      <point x="308" y="2338"/>
      <point x="476" y="2609" type="curve" smooth="yes"/>
      <point x="557" y="2737"/>
      <point x="661" y="2854"/>
      <point x="795" y="2929" type="curve" smooth="yes"/>
      <point x="868" y="2969"/>
      <point x="948" y="2998"/>
      <point x="1031" y="3013" type="curve" smooth="yes"/>
      <point x="1086" y="3023"/>
      <point x="1142" y="3026"/>
      <point x="1198" y="3029" type="curve" smooth="yes"/>
      <point x="1302" y="3033"/>
      <point x="1409" y="3026"/>
      <point x="1511" y="3002" type="curve" smooth="yes"/>
      <point x="1618" y="2976"/>
      <point x="1718" y="2929"/>
      <point x="1809" y="2867" type="curve" smooth="yes"/>
      <point x="1869" y="2827"/>
      <point x="1925" y="2781"/>
      <point x="1973" y="2726" type="curve" smooth="yes"/>
      <point x="2026" y="2663"/>
      <point x="2067" y="2591"/>
      <point x="2100" y="2516" type="curve" smooth="yes"/>
      <point x="2122" y="2463"/>
      <point x="2139" y="2408"/>
      <point x="2151" y="2353" type="curve" smooth="yes"/>
      <point x="2155" y="2333"/>
      <point x="2162" y="2312"/>
      <point x="2163" y="2292" type="curve" smooth="yes"/>
    </contour>
  </outline>
</glyph>
<glyph name="D" format="1">
  <advance width="2315"/>
  <unicode hex="0044"/>
  <outline>
    <contour>
      <point x="225" y="3029" type="move" smooth="yes"/>
      <point x="235" y="3034"/>
      <point x="255" y="3031"/>
      <point x="266" y="3031" type="curve" smooth="yes"/>
      <point x="366" y="3031" type="line" smooth="yes"/>
      <point x="486" y="3031"/>
      <point x="607" y="3031"/>
      <point x="728" y="3029" type="curve" smooth="yes"/>
      <point x="849" y="3026"/>
      <point x="971" y="3019"/>
      <point x="1090" y="2991" type="curve" smooth="yes"/>
      <point x="1286" y="2945"/>
      <point x="1466" y="2850"/>
      <point x="1606" y="2704" type="curve" smooth="yes"/>
      <point x="1759" y="2543"/>
      <point x="1858" y="2337"/>
      <point x="1909" y="2123" type="curve" smooth="yes"/>
      <point x="1934" y="2016"/>
      <point x="1948" y="1909"/>
      <point x="1956" y="1801" type="curve" smooth="yes"/>
      <point x="1960" y="1745"/>
      <point x="1964" y="1689"/>
      <point x="1964" y="1634" type="curve" smooth="yes"/>
      <point x="1960" y="1299"/>
      <point x="1884" y="959"/>
      <point x="1676" y="690" type="curve" smooth="yes"/>
      <point x="1628" y="627"/>
      <point x="1574" y="569"/>
      <point x="1513" y="520" type="curve" smooth="yes"/>
      <point x="1449" y="469"/>
      <point x="1382" y="425"/>
      <point x="1309" y="390" type="curve" smooth="yes"/>
      <point x="1049" y="264"/>
      <point x="757" y="273"/>
      <point x="476" y="273" type="curve" smooth="yes"/>
      <point x="278" y="273" type="line"/>
      <point x="232" y="273" type="line" smooth="yes"/>
      <point x="224" y="273"/>
      <point x="216" y="271"/>
      <point x="211" y="279" type="curve" smooth="yes"/>
      <point x="206" y="285"/>
      <point x="209" y="301"/>
      <point x="209" y="310" type="curve" smooth="yes"/>
      <point x="209" y="392" type="line"/>
      <point x="209" y="707" type="line"/>
      <point x="209" y="1923" type="line"/>
      <point x="209" y="2763" type="line"/>
      <point x="209" y="2962" type="line" smooth="yes"/>
      <point x="209" y="2983"/>
      <point x="201" y="3018"/>
      <point x="225" y="3029" type="curve" smooth="yes"/>
    </contour>
  </outline>
</glyph>
<glyph name="G" format="1">
  <advance width="2313"/>
  <unicode hex="0047"/>
  <outline>
    <contour>
      <point x="1518" y="1625" type="move"/>
      <point x="1957" y="1625" type="line"/>
      <point x="2071" y="1625" type="line" smooth="yes"/>
      <point x="2082" y="1625"/>
      <point x="2105" y="1629"/>
      <point x="2114" y="1622" type="curve" smooth="yes"/>
      <point x="2122" y="1616"/>
      <point x="2121" y="1609"/>
      <point x="2121" y="1601" type="curve" smooth="yes"/>
      <point x="2121" y="1558" type="line"/>
      <point x="2121" y="1370" type="line"/>
      <point x="2121" y="700" type="line"/>
      <point x="2121" y="535" type="line" smooth="yes"/>
      <point x="2121" y="516"/>
      <point x="2126" y="486"/>
      <point x="2110" y="471" type="curve" smooth="yes"/>
      <point x="2106" y="467"/>
      <point x="2097" y="467"/>
      <point x="2092" y="466" type="curve" smooth="yes"/>
      <point x="2078" y="463"/>
      <point x="2063" y="460"/>
      <point x="2049" y="457" type="curve" smooth="yes"/>
      <point x="2009" y="448"/>
      <point x="1968" y="441"/>
      <point x="1928" y="434" type="curve" smooth="yes"/>
      <point x="1908" y="430"/>
      <point x="1885" y="430"/>
      <point x="1867" y="422" type="curve" smooth="yes"/>
      <point x="1807" y="395"/>
      <point x="1746" y="370"/>
      <point x="1683" y="351" type="curve" smooth="yes"/>
      <point x="1396" y="263"/>
      <point x="1066" y="252"/>
      <point x="792" y="387" type="curve" smooth="yes"/>
      <point x="723" y="421"/>
      <point x="660" y="466"/>
      <point x="602" y="516" type="curve" smooth="yes"/>
      <point x="543" y="566"/>
      <point x="492" y="628"/>
      <point x="449" y="692" type="curve" smooth="yes"/>
      <point x="412" y="747"/>
      <point x="384" y="809"/>
      <point x="358" y="871" type="curve" smooth="yes"/>
      <point x="300" y="1014"/>
      <point x="270" y="1170"/>
      <point x="256" y="1324" type="curve" smooth="yes"/>
      <point x="247" y="1420"/>
      <point x="240" y="1517"/>
      <point x="240" y="1615" type="curve" smooth="yes"/>
      <point x="240" y="1664"/>
      <point x="243" y="1714"/>
      <point x="245" y="1764" type="curve" smooth="yes"/>
      <point x="249" y="1866"/>
      <point x="258" y="1969"/>
      <point x="278" y="2071" type="curve" smooth="yes"/>
      <point x="319" y="2287"/>
      <point x="402" y="2494"/>
      <point x="536" y="2670" type="curve" smooth="yes"/>
      <point x="638" y="2803"/>
      <point x="769" y="2919"/>
      <point x="927" y="2979" type="curve" smooth="yes"/>
      <point x="1041" y="3023"/>
      <point x="1168" y="3034"/>
      <point x="1289" y="3029" type="curve" smooth="yes"/>
      <point x="1402" y="3024"/>
      <point x="1513" y="3009"/>
      <point x="1620" y="2968" type="curve" smooth="yes"/>
      <point x="1740" y="2923"/>
      <point x="1852" y="2847"/>
      <point x="1938" y="2751" type="curve" smooth="yes"/>
      <point x="2011" y="2670"/>
      <point x="2062" y="2569"/>
      <point x="2092" y="2464" type="curve" smooth="yes"/>
    </contour>
    <contour>
      <point x="2111" y="470" type="move" smooth="yes"/>
      <point x="2126" y="455"/>
      <point x="2121" y="433"/>
      <point x="2121" y="413" type="curve" smooth="yes"/>
      <point x="2121" y="273" type="line"/>
    </contour>
  </outline>
</glyph>
<glyph name="I" format="1">
  <advance width="1045"/>
  <unicode hex="0049"/>
  <outline>
    <contour>
      <point x="224" y="3039" type="move"/>
      <point x="421" y="3039" type="line"/>
      <point x="468" y="3039" type="line"/>
      <point x="489" y="3038" type="line"/>
      <point x="507" y="3022" type="line"/>
      <point x="525" y="3038" type="line"/>
      <point x="546" y="3039" type="line"/>
      <point x="593" y="3039" type="line"/>
      <point x="789" y="3039" type="line"/>
      <point x="546" y="3039" type="line"/>
    </contour>
    <contour>
      <point x="507" y="3022" type="move" smooth="yes"/>
      <point x="507" y="472" type="line" smooth="yes"/>
      <point x="507" y="328" type="line"/>
      <point x="507" y="290" type="line" smooth="yes"/>
      <point x="507" y="284"/>
      <point x="505" y="277"/>
      <point x="508" y="273" type="curve" smooth="yes"/>
      <point x="514" y="264"/>
      <point x="521" y="265"/>
      <point x="531" y="265" type="curve" smooth="yes"/>
      <point x="577" y="265" type="line"/>
      <point x="780" y="265" type="line"/>
    </contour>
    <contour>
      <point x="507" y="274" type="move"/>
      <point x="497" y="265" type="line"/>
      <point x="477" y="265" type="line"/>
      <point x="432" y="265" type="line"/>
      <point x="233" y="265" type="line"/>
    </contour>
  </outline>
</glyph>
<glyph name="K" format="1">
  <advance width="1831"/>
  <unicode hex="004B"/>
  <outline>
    <contour>
      <point x="209" y="274" type="move"/>
      <point x="209" y="1287" type="line"/>
      <point x="209" y="1551" type="line" smooth="yes"/>
      <point x="209" y="1583"/>
      <point x="205" y="1617"/>
      <point x="209" y="1650" type="curve" smooth="yes"/>
      <point x="211" y="1662"/>
      <point x="217" y="1675"/>
      <point x="221" y="1688" type="curve" smooth="yes"/>
      <point x="225" y="1699"/>
      <point x="227" y="1712"/>
      <point x="233" y="1722" type="curve" smooth="yes"/>
      <point x="235" y="1727"/>
      <point x="242" y="1728"/>
      <point x="246" y="1730" type="curve" smooth="yes"/>
      <point x="257" y="1733"/>
      <point x="269" y="1737"/>
      <point x="280" y="1741" type="curve" smooth="yes"/>
      <point x="326" y="1757"/>
      <point x="372" y="1772"/>
      <point x="418" y="1788" type="curve" smooth="yes"/>
      <point x="426" y="1790"/>
      <point x="436" y="1792"/>
      <point x="443" y="1796" type="curve" smooth="yes"/>
      <point x="456" y="1805"/>
      <point x="467" y="1820"/>
      <point x="478" y="1832" type="curve" smooth="yes"/>
      <point x="499" y="1852"/>
      <point x="519" y="1874"/>
      <point x="540" y="1895" type="curve" smooth="yes"/>
      <point x="549" y="1903"/>
      <point x="558" y="1916"/>
      <point x="568" y="1923" type="curve" smooth="yes"/>
      <point x="577" y="1929"/>
      <point x="591" y="1930"/>
      <point x="601" y="1934" type="curve" smooth="yes"/>
      <point x="625" y="1943"/>
      <point x="650" y="1951"/>
      <point x="674" y="1959" type="curve" smooth="yes"/>
      <point x="685" y="1963"/>
      <point x="706" y="1966"/>
      <point x="714" y="1974" type="curve" smooth="yes"/>
      <point x="721" y="1982"/>
      <point x="724" y="2003"/>
      <point x="728" y="2014" type="curve" smooth="yes"/>
      <point x="735" y="2040"/>
      <point x="744" y="2066"/>
      <point x="753" y="2092" type="curve" smooth="yes"/>
      <point x="757" y="2102"/>
      <point x="759" y="2118"/>
      <point x="766" y="2127" type="curve" smooth="yes"/>
      <point x="802" y="2168"/>
      <point x="843" y="2204"/>
      <point x="881" y="2244" type="curve" smooth="yes"/>
      <point x="965" y="2332"/>
      <point x="1052" y="2418"/>
      <point x="1137" y="2506" type="curve" smooth="yes"/>
      <point x="1319" y="2692"/>
      <point x="1498" y="2880"/>
      <point x="1682" y="3064" type="curve" smooth="yes"/>
    </contour>
    <contour>
      <point x="209" y="3023" type="move"/>
      <point x="234" y="1726" type="line"/>
      <point x="227" y="1733"/>
      <point x="213" y="1742"/>
      <point x="210" y="1752" type="curve" smooth="yes"/>
      <point x="207" y="1759"/>
      <point x="209" y="1770"/>
      <point x="209" y="1778" type="curve" smooth="yes"/>
      <point x="209" y="1837" type="line"/>
      <point x="209" y="2065" type="line"/>
    </contour>
    <contour>
      <point x="714" y="1974" type="move"/>
      <point x="763" y="1924" type="line"/>
      <point x="796" y="1866" type="line"/>
      <point x="846" y="1780" type="line"/>
      <point x="1000" y="1510" type="line"/>
      <point x="1474" y="680" type="line"/>
      <point x="1623" y="418" type="line"/>
      <point x="1678" y="322" type="line"/>
      <point x="1718" y="252" type="line"/>
    </contour>
  </outline>
</glyph>
<glyph name="O" format="1">
  <advance width="2616"/>
  <unicode hex="004F"/>
  <outline>
    <contour>
      <point x="1307" y="3030" type="move" smooth="yes"/>
      <point x="1319" y="3032"/>
      <point x="1331" y="3030"/>
      <point x="1343" y="3030" type="curve" smooth="yes"/>
      <point x="1374" y="3029"/>
      <point x="1405" y="3027"/>
      <point x="1436" y="3025" type="curve" smooth="yes"/>
      <point x="1487" y="3021"/>
      <point x="1538" y="3012"/>
      <point x="1587" y="2998" type="curve" smooth="yes"/>
      <point x="1760" y="2951"/>
      <point x="1905" y="2834"/>
      <point x="2018" y="2699" type="curve" smooth="yes"/>
      <point x="2063" y="2644"/>
      <point x="2104" y="2586"/>
      <point x="2138" y="2524" type="curve" smooth="yes"/>
      <point x="2160" y="2482"/>
      <point x="2180" y="2440"/>
      <point x="2198" y="2397" type="curve" smooth="yes"/>
      <point x="2259" y="2255"/>
      <point x="2290" y="2103"/>
      <point x="2309" y="1951" type="curve" smooth="yes"/>
      <point x="2328" y="1805"/>
      <point x="2332" y="1657"/>
      <point x="2325" y="1511" type="curve" smooth="yes"/>
      <point x="2312" y="1212"/>
      <point x="2259" y="895"/>
      <point x="2078" y="649" type="curve" smooth="yes"/>
      <point x="2039" y="596"/>
      <point x="1994" y="547"/>
      <point x="1945" y="503" type="curve" smooth="yes"/>
      <point x="1880" y="444"/>
      <point x="1808" y="401"/>
      <point x="1730" y="361" type="curve" smooth="yes"/>
      <point x="1656" y="323"/>
      <point x="1570" y="303"/>
      <point x="1488" y="291" type="curve" smooth="yes"/>
      <point x="1381" y="275"/>
      <point x="1272" y="272"/>
      <point x="1164" y="288" type="curve" smooth="yes"/>
      <point x="1076" y="300"/>
      <point x="990" y="324"/>
      <point x="909" y="360" type="curve" smooth="yes"/>
      <point x="853" y="385"/>
      <point x="799" y="418"/>
      <point x="749" y="455" type="curve" smooth="yes"/>
      <point x="691" y="498"/>
      <point x="639" y="548"/>
      <point x="591" y="603" type="curve" smooth="yes"/>
      <point x="423" y="798"/>
      <point x="345" y="1055"/>
      <point x="310" y="1306" type="curve" smooth="yes"/>
      <point x="298" y="1392"/>
      <point x="293" y="1479"/>
      <point x="289" y="1567" type="curve" smooth="yes"/>
      <point x="286" y="1642"/>
      <point x="288" y="1717"/>
      <point x="293" y="1793" type="curve" smooth="yes"/>
      <point x="313" y="2081"/>
      <point x="374" y="2377"/>
      <point x="546" y="2617" type="curve" smooth="yes"/>
      <point x="592" y="2682"/>
      <point x="645" y="2742"/>
      <point x="703" y="2797" type="curve" smooth="yes"/>
      <point x="764" y="2853"/>
      <point x="831" y="2903"/>
      <point x="905" y="2941" type="curve" smooth="yes"/>
      <point x="989" y="2984"/>
      <point x="1080" y="3011"/>
      <point x="1173" y="3022" type="curve" smooth="yes"/>
      <point x="1218" y="3028"/>
      <point x="1263" y="3024"/>
      <point x="1307" y="3030" type="curve" smooth="yes"/>
    </contour>
  </outline>
</glyph>
<glyph name="P" format="1">
  <advance width="1965"/>
  <unicode hex="0050"/>
  <outline>
    <contour>
      <point x="224" y="1766" type="move"/>
      <point x="224" y="2715" type="line"/>
      <point x="224" y="2945" type="line"/>
      <point x="224" y="2992" type="line" smooth="yes"/>
      <point x="224" y="2998"/>
      <point x="223" y="3007"/>
      <point x="225" y="3013" type="curve" smooth="yes"/>
      <point x="227" y="3018"/>
      <point x="234" y="3025"/>
      <point x="239" y="3028" type="curve" smooth="yes"/>
      <point x="247" y="3034"/>
      <point x="264" y="3031"/>
      <point x="273" y="3031" type="curve" smooth="yes"/>
      <point x="362" y="3031" type="line"/>
      <point x="705" y="3031" type="line"/>
      <point x="900" y="3031" type="line" smooth="yes"/>
      <point x="951" y="3031"/>
      <point x="1001" y="3029"/>
      <point x="1051" y="3027" type="curve" smooth="yes"/>
      <point x="1297" y="3016"/>
      <point x="1586" y="2985"/>
      <point x="1749" y="2776" type="curve" smooth="yes"/>
      <point x="1768" y="2751"/>
      <point x="1784" y="2722"/>
      <point x="1797" y="2694" type="curve" smooth="yes"/>
      <point x="1816" y="2652"/>
      <point x="1829" y="2607"/>
      <point x="1836" y="2563" type="curve" smooth="yes"/>
      <point x="1846" y="2507"/>
      <point x="1856" y="2445"/>
      <point x="1851" y="2389" type="curve" smooth="yes"/>
      <point x="1842" y="2297"/>
      <point x="1833" y="2207"/>
      <point x="1794" y="2123" type="curve" smooth="yes"/>
      <point x="1778" y="2088"/>
      <point x="1758" y="2055"/>
      <point x="1735" y="2026" type="curve" smooth="yes"/>
      <point x="1565" y="1807"/>
      <point x="1264" y="1774"/>
      <point x="1006" y="1767" type="curve" smooth="yes"/>
      <point x="957" y="1766"/>
      <point x="907" y="1765"/>
      <point x="857" y="1765" type="curve" smooth="yes"/>
      <point x="659" y="1765" type="line"/>
      <point x="338" y="1765" type="line"/>
      <point x="255" y="1765" type="line" smooth="yes"/>
      <point x="249" y="1765"/>
      <point x="231" y="1768"/>
      <point x="226" y="1763" type="curve" smooth="yes"/>
      <point x="222" y="1760"/>
      <point x="224" y="1745"/>
      <point x="224" y="1741" type="curve" smooth="yes"/>
      <point x="224" y="1674" type="line"/>
      <point x="224" y="1400" type="line"/>
      <point x="224" y="281" type="line"/>
    </contour>
  </outline>
</glyph>
<glyph name="Q" format="1">
  <advance width="2904"/>
  <unicode hex="0051"/>
  <outline>
    <contour>
      <point x="2616" y="-236" type="move" smooth="yes"/>
      <point x="2584" y="-249"/>
      <point x="2547" y="-256"/>
      <point x="2514" y="-262" type="curve" smooth="yes"/>
      <point x="2450" y="-274"/>
      <point x="2387" y="-282"/>
      <point x="2323" y="-285" type="curve" smooth="yes"/>
      <point x="2119" y="-293"/>
      <point x="1899" y="-277"/>
      <point x="1737" y="-140" type="curve" smooth="yes"/>
      <point x="1709" y="-117"/>
      <point x="1683" y="-89"/>
      <point x="1661" y="-61" type="curve" smooth="yes"/>
      <point x="1640" y="-33"/>
      <point x="1622" y="-3"/>
      <point x="1602" y="25" type="curve" smooth="yes"/>
      <point x="1591" y="41"/>
      <point x="1575" y="64"/>
      <point x="1570" y="84" type="curve" smooth="yes"/>
      <point x="1559" y="127"/>
      <point x="1551" y="171"/>
      <point x="1544" y="215" type="curve" smooth="yes"/>
      <point x="1541" y="228"/>
      <point x="1539" y="242"/>
      <point x="1537" y="256" type="curve" smooth="yes"/>
      <point x="1536" y="262"/>
      <point x="1536" y="270"/>
      <point x="1533" y="276" type="curve" smooth="yes"/>
      <point x="1530" y="283"/>
      <point x="1521" y="289"/>
      <point x="1516" y="295" type="curve"/>
      <point x="1523" y="302"/>
      <point x="1532" y="314"/>
      <point x="1542" y="320" type="curve" smooth="yes"/>
      <point x="1553" y="326"/>
      <point x="1572" y="325"/>
      <point x="1585" y="327" type="curve" smooth="yes"/>
      <point x="1611" y="331"/>
      <point x="1637" y="335"/>
      <point x="1663" y="340" type="curve" smooth="yes"/>
      <point x="1675" y="342"/>
      <point x="1688" y="343"/>
      <point x="1700" y="347" type="curve" smooth="yes"/>
      <point x="1728" y="357"/>
      <point x="1756" y="373"/>
      <point x="1783" y="387" type="curve" smooth="yes"/>
      <point x="1846" y="422"/>
      <point x="1905" y="465"/>
      <point x="1959" y="515" type="curve" smooth="yes"/>
      <point x="2200" y="740"/>
      <point x="2294" y="1069"/>
      <point x="2325" y="1389" type="curve" smooth="yes"/>
      <point x="2335" y="1495"/>
      <point x="2340" y="1602"/>
      <point x="2336" y="1710" type="curve" smooth="yes"/>
      <point x="2332" y="1803"/>
      <point x="2326" y="1896"/>
      <point x="2313" y="1989" type="curve" smooth="yes"/>
      <point x="2289" y="2159"/>
      <point x="2244" y="2326"/>
      <point x="2167" y="2481" type="curve" smooth="yes"/>
      <point x="2105" y="2605"/>
      <point x="2016" y="2719"/>
      <point x="1914" y="2812" type="curve" smooth="yes"/>
      <point x="1835" y="2883"/>
      <point x="1743" y="2944"/>
      <point x="1644" y="2980" type="curve" smooth="yes"/>
      <point x="1546" y="3015"/>
      <point x="1446" y="3027"/>
      <point x="1344" y="3030" type="curve" smooth="yes"/>
      <point x="1248" y="3032"/>
      <point x="1149" y="3025"/>
      <point x="1057" y="3000" type="curve" smooth="yes"/>
      <point x="929" y="2966"/>
      <point x="810" y="2896"/>
      <point x="714" y="2806" type="curve" smooth="yes"/>
      <point x="634" y="2732"/>
      <point x="563" y="2648"/>
      <point x="506" y="2556" type="curve" smooth="yes"/>
      <point x="422" y="2421"/>
      <point x="367" y="2267"/>
      <point x="335" y="2112" type="curve" smooth="yes"/>
      <point x="304" y="1960"/>
      <point x="288" y="1806"/>
      <point x="287" y="1652" type="curve" smooth="yes"/>
      <point x="286" y="1581"/>
      <point x="291" y="1511"/>
      <point x="296" y="1441" type="curve" smooth="yes"/>
      <point x="306" y="1284"/>
      <point x="329" y="1127"/>
      <point x="381" y="978" type="curve" smooth="yes"/>
      <point x="402" y="915"/>
      <point x="426" y="851"/>
      <point x="459" y="793" type="curve" smooth="yes"/>
      <point x="514" y="695"/>
      <point x="578" y="603"/>
      <point x="661" y="527" type="curve" smooth="yes"/>
      <point x="810" y="387"/>
      <point x="1008" y="297"/>
      <point x="1213" y="282" type="curve" smooth="yes"/>
      <point x="1272" y="278"/>
      <point x="1331" y="274"/>
      <point x="1391" y="274" type="curve" smooth="yes"/>
      <point x="1438" y="274" type="line" smooth="yes"/>
      <point x="1443" y="274"/>
      <point x="1452" y="272"/>
      <point x="1458" y="275" type="curve" smooth="yes"/>
      <point x="1466" y="279"/>
      <point x="1473" y="289"/>
      <point x="1480" y="296" type="curve"/>
      <point x="1472" y="303"/>
      <point x="1459" y="312"/>
      <point x="1455" y="322" type="curve" smooth="yes"/>
      <point x="1449" y="336"/>
      <point x="1453" y="357"/>
      <point x="1452" y="373" type="curve" smooth="yes"/>
      <point x="1449" y="415"/>
      <point x="1448" y="458"/>
      <point x="1447" y="501" type="curve" smooth="yes"/>
      <point x="1444" y="557"/>
      <point x="1437" y="614"/>
      <point x="1432" y="671" type="curve" smooth="yes"/>
      <point x="1426" y="736"/>
      <point x="1422" y="801"/>
      <point x="1420" y="867" type="curve" smooth="yes"/>
      <point x="1418" y="907"/>
      <point x="1415" y="947"/>
      <point x="1415" y="988" type="curve" smooth="yes"/>
    </contour>
    <contour>
      <point x="1481" y="295" type="move"/>
      <point x="1516" y="295" type="line"/>
    </contour>
  </outline>
</glyph>
<glyph name="S" format="1">
  <advance width="1941"/>
  <unicode hex="0053"/>
  <outline>
    <contour>
      <point x="177" y="867" type="move" smooth="yes"/>
      <point x="181" y="844"/>
      <point x="190" y="821"/>
      <point x="198" y="800" type="curve" smooth="yes"/>
      <point x="217" y="748"/>
      <point x="240" y="698"/>
      <point x="270" y="652" type="curve" smooth="yes"/>
      <point x="322" y="569"/>
      <point x="386" y="491"/>
      <point x="464" y="430" type="curve" smooth="yes"/>
      <point x="662" y="275"/>
      <point x="929" y="259"/>
      <point x="1170" y="290" type="curve" smooth="yes"/>
      <point x="1276" y="304"/>
      <point x="1379" y="334"/>
      <point x="1476" y="382" type="curve" smooth="yes"/>
      <point x="1576" y="431"/>
      <point x="1666" y="499"/>
      <point x="1720" y="600" type="curve" smooth="yes"/>
      <point x="1761" y="675"/>
      <point x="1770" y="759"/>
      <point x="1778" y="844" type="curve" smooth="yes"/>
      <point x="1784" y="902"/>
      <point x="1777" y="961"/>
      <point x="1770" y="1019" type="curve" smooth="yes"/>
      <point x="1763" y="1071"/>
      <point x="1750" y="1122"/>
      <point x="1730" y="1172" type="curve" smooth="yes"/>
      <point x="1679" y="1296"/>
      <point x="1577" y="1383"/>
      <point x="1464" y="1448" type="curve" smooth="yes"/>
      <point x="1367" y="1503"/>
      <point x="1264" y="1552"/>
      <point x="1159" y="1588" type="curve" smooth="yes"/>
      <point x="1081" y="1615"/>
      <point x="1000" y="1634"/>
      <point x="922" y="1660" type="curve" smooth="yes"/>
      <point x="830" y="1690"/>
      <point x="738" y="1723"/>
      <point x="648" y="1757" type="curve" smooth="yes"/>
      <point x="485" y="1819"/>
      <point x="309" y="1903"/>
      <point x="223" y="2063" type="curve" smooth="yes"/>
      <point x="191" y="2121"/>
      <point x="177" y="2186"/>
      <point x="168" y="2252" type="curve" smooth="yes"/>
      <point x="164" y="2282"/>
      <point x="159" y="2314"/>
      <point x="159" y="2345" type="curve" smooth="yes"/>
      <point x="158" y="2377"/>
      <point x="163" y="2410"/>
      <point x="166" y="2443" type="curve" smooth="yes"/>
      <point x="177" y="2545"/>
      <point x="203" y="2646"/>
      <point x="262" y="2733" type="curve" smooth="yes"/>
      <point x="307" y="2798"/>
      <point x="365" y="2849"/>
      <point x="432" y="2892" type="curve" smooth="yes"/>
      <point x="512" y="2945"/>
      <point x="601" y="2985"/>
      <point x="695" y="3007" type="curve" smooth="yes"/>
      <point x="788" y="3029"/>
      <point x="887" y="3033"/>
      <point x="983" y="3029" type="curve" smooth="yes"/>
      <point x="1080" y="3024"/>
      <point x="1177" y="3013"/>
      <point x="1269" y="2976" type="curve" smooth="yes"/>
      <point x="1435" y="2909"/>
      <point x="1572" y="2792"/>
      <point x="1655" y="2632" type="curve" smooth="yes"/>
      <point x="1680" y="2582"/>
      <point x="1699" y="2529"/>
      <point x="1715" y="2476" type="curve" smooth="yes"/>
      <point x="1722" y="2453"/>
      <point x="1726" y="2430"/>
      <point x="1733" y="2408" type="curve" smooth="yes"/>
    </contour>
  </outline>
</glyph>
<glyph name="T" format="1">
  <advance width="2200"/>
  <unicode hex="0054"/>
  <outline>
    <contour>
      <point x="208" y="3031" type="move"/>
      <point x="1029" y="3031" type="line"/>
    </contour>
    <contour>
      <point x="1155" y="3031" type="move"/>
      <point x="1976" y="3031" type="line"/>
      <point x="1318" y="3031" type="line"/>
      <point x="1155" y="3031" type="line" smooth="yes"/>
      <point x="1134" y="3031"/>
      <point x="1106" y="3036"/>
      <point x="1092" y="3022" type="curve"/>
      <point x="1077" y="3036"/>
      <point x="1049" y="3031"/>
      <point x="1029" y="3031" type="curve" smooth="yes"/>
      <point x="866" y="3031" type="line"/>
    </contour>
    <contour>
      <point x="1092" y="3022" type="move"/>
      <point x="1092" y="274" type="line"/>
    </contour>
  </outline>
</glyph>
<glyph name="V" format="1">
  <advance width="1849"/>
  <unicode hex="0056"/>
  <outline>
    <contour>
      <point x="1849" y="3043" type="move" smooth="yes"/>
      <point x="1843" y="3018"/>
      <point x="1834" y="2993"/>
      <point x="1827" y="2969" type="curve" smooth="yes"/>
      <point x="1811" y="2913"/>
      <point x="1794" y="2857"/>
      <point x="1777" y="2802" type="curve" smooth="yes"/>
      <point x="1734" y="2658"/>
      <point x="1692" y="2515"/>
      <point x="1649" y="2372" type="curve" smooth="yes"/>
      <point x="1553" y="2051"/>
      <point x="1460" y="1730"/>
      <point x="1364" y="1410" type="curve" smooth="yes"/>
      <point x="1310" y="1231"/>
      <point x="1255" y="1053"/>
      <point x="1204" y="874" type="curve" smooth="yes"/>
      <point x="1165" y="735"/>
      <point x="1122" y="598"/>
      <point x="1081" y="461" type="curve" smooth="yes"/>
      <point x="1070" y="423"/>
      <point x="1058" y="385"/>
      <point x="1048" y="348" type="curve" smooth="yes"/>
      <point x="1044" y="336"/>
      <point x="1041" y="326"/>
      <point x="1038" y="315" type="curve" smooth="yes"/>
      <point x="1036" y="309"/>
      <point x="1036" y="302"/>
      <point x="1032" y="298" type="curve" smooth="yes"/>
      <point x="1028" y="293"/>
      <point x="1021" y="290"/>
      <point x="1016" y="287" type="curve" smooth="yes"/>
      <point x="1009" y="283"/>
      <point x="1002" y="277"/>
      <point x="995" y="274" type="curve" smooth="yes"/>
      <point x="986" y="271"/>
      <point x="974" y="274"/>
      <point x="965" y="274" type="curve" smooth="yes"/>
      <point x="902" y="274" type="line" smooth="yes"/>
      <point x="887" y="274"/>
      <point x="867" y="270"/>
      <point x="854" y="274" type="curve" smooth="yes"/>
      <point x="842" y="278"/>
      <point x="830" y="288"/>
      <point x="820" y="295" type="curve" smooth="yes"/>
      <point x="815" y="297"/>
      <point x="808" y="300"/>
      <point x="805" y="305" type="curve" smooth="yes"/>
      <point x="798" y="316"/>
      <point x="796" y="336"/>
      <point x="792" y="349" type="curve" smooth="yes"/>
      <point x="783" y="381"/>
      <point x="773" y="414"/>
      <point x="764" y="447" type="curve" smooth="yes"/>
      <point x="716" y="615"/>
      <point x="664" y="782"/>
      <point x="615" y="951" type="curve" smooth="yes"/>
      <point x="484" y="1398"/>
      <point x="351" y="1844"/>
      <point x="220" y="2292" type="curve" smooth="yes"/>
      <point x="167" y="2474"/>
      <point x="114" y="2656"/>
      <point x="59" y="2838" type="curve" smooth="yes"/>
      <point x="39" y="2905"/>
      <point x="21" y="2974"/>
      <point x="0" y="3042" type="curve" smooth="yes"/>
    </contour>
  </outline>
</glyph>
<glyph name="W" format="1">
  <advance width="2286"/>
  <unicode hex="0057"/>
  <outline>
    <contour>
      <point x="2286" y="3021" type="move" smooth="yes"/>
      <point x="2269" y="2930"/>
      <point x="2258" y="2838"/>
      <point x="2245" y="2747" type="curve" smooth="yes"/>
      <point x="2224" y="2598"/>
      <point x="2202" y="2450"/>
      <point x="2180" y="2303" type="curve" smooth="yes"/>
      <point x="2110" y="1823"/>
      <point x="2040" y="1342"/>
      <point x="1969" y="863" type="curve" smooth="yes"/>
      <point x="1951" y="743"/>
      <point x="1933" y="623"/>
      <point x="1916" y="503" type="curve" smooth="yes"/>
      <point x="1910" y="466"/>
      <point x="1905" y="429"/>
      <point x="1900" y="392" type="curve" smooth="yes"/>
      <point x="1898" y="377"/>
      <point x="1898" y="354"/>
      <point x="1891" y="341" type="curve" smooth="yes"/>
      <point x="1887" y="333"/>
      <point x="1876" y="327"/>
      <point x="1870" y="322" type="curve" smooth="yes"/>
      <point x="1860" y="314"/>
      <point x="1849" y="302"/>
      <point x="1838" y="298" type="curve" smooth="yes"/>
      <point x="1831" y="296"/>
      <point x="1821" y="298"/>
      <point x="1814" y="298" type="curve" smooth="yes"/>
      <point x="1762" y="298" type="line" smooth="yes"/>
      <point x="1748" y="298"/>
      <point x="1726" y="293"/>
      <point x="1714" y="298" type="curve" smooth="yes"/>
      <point x="1705" y="302"/>
      <point x="1696" y="311"/>
      <point x="1689" y="317" type="curve" smooth="yes"/>
      <point x="1677" y="326"/>
      <point x="1663" y="334"/>
      <point x="1654" y="345" type="curve" smooth="yes"/>
      <point x="1646" y="354"/>
      <point x="1647" y="376"/>
      <point x="1645" y="388" type="curve" smooth="yes"/>
      <point x="1640" y="423"/>
      <point x="1634" y="458"/>
      <point x="1629" y="494" type="curve" smooth="yes"/>
      <point x="1611" y="624"/>
      <point x="1590" y="754"/>
      <point x="1571" y="885" type="curve" smooth="yes"/>
      <point x="1499" y="1372"/>
      <point x="1421" y="1858"/>
      <point x="1353" y="2346" type="curve" smooth="yes"/>
      <point x="1336" y="2465"/>
      <point x="1317" y="2584"/>
      <point x="1299" y="2704" type="curve" smooth="yes"/>
      <point x="1293" y="2741"/>
      <point x="1287" y="2779"/>
      <point x="1282" y="2818" type="curve" smooth="yes"/>
      <point x="1279" y="2833"/>
      <point x="1280" y="2854"/>
      <point x="1274" y="2869" type="curve" smooth="yes"/>
      <point x="1270" y="2878"/>
      <point x="1256" y="2885"/>
      <point x="1249" y="2891" type="curve" smooth="yes"/>
      <point x="1227" y="2907"/>
      <point x="1206" y="2923"/>
      <point x="1185" y="2940" type="curve" smooth="yes"/>
      <point x="1176" y="2946"/>
      <point x="1165" y="2959"/>
      <point x="1155" y="2959" type="curve" smooth="yes"/>
      <point x="1140" y="2960"/>
      <point x="1131" y="2951"/>
      <point x="1120" y="2942" type="curve" smooth="yes"/>
      <point x="1063" y="2900" type="line" smooth="yes"/>
      <point x="1055" y="2894"/>
      <point x="1039" y="2886"/>
      <point x="1036" y="2877" type="curve" smooth="yes"/>
      <point x="1030" y="2861"/>
      <point x="1030" y="2843"/>
      <point x="1027" y="2827" type="curve" smooth="yes"/>
      <point x="1009" y="2719" type="line" smooth="yes"/>
      <point x="989" y="2599"/>
      <point x="972" y="2479"/>
      <point x="949" y="2360" type="curve" smooth="yes"/>
      <point x="914" y="2178"/>
      <point x="888" y="1995"/>
      <point x="857" y="1814" type="curve" smooth="yes"/>
      <point x="806" y="1508"/>
      <point x="754" y="1204"/>
      <point x="704" y="899" type="curve" smooth="yes"/>
      <point x="682" y="765"/>
      <point x="659" y="632"/>
      <point x="637" y="500" type="curve" smooth="yes"/>
      <point x="619" y="393" type="line" smooth="yes"/>
      <point x="617" y="381"/>
      <point x="618" y="360"/>
      <point x="610" y="351" type="curve" smooth="yes"/>
      <point x="604" y="343"/>
      <point x="593" y="337"/>
      <point x="585" y="331" type="curve" smooth="yes"/>
      <point x="574" y="323"/>
      <point x="563" y="311"/>
      <point x="551" y="306" type="curve" smooth="yes"/>
      <point x="546" y="303"/>
      <point x="539" y="305"/>
      <point x="534" y="305" type="curve" smooth="yes"/>
      <point x="499" y="305" type="line"/>
      <point x="437" y="305" type="line" smooth="yes"/>
      <point x="428" y="305"/>
      <point x="416" y="302"/>
      <point x="409" y="305" type="curve" smooth="yes"/>
      <point x="398" y="309"/>
      <point x="387" y="321"/>
      <point x="379" y="328" type="curve" smooth="yes"/>
      <point x="372" y="333"/>
      <point x="360" y="339"/>
      <point x="357" y="347" type="curve" smooth="yes"/>
      <point x="351" y="358"/>
      <point x="352" y="379"/>
      <point x="350" y="392" type="curve" smooth="yes"/>
      <point x="346" y="426"/>
      <point x="341" y="460"/>
      <point x="336" y="495" type="curve" smooth="yes"/>
      <point x="319" y="616"/>
      <point x="305" y="738"/>
      <point x="288" y="860" type="curve" smooth="yes"/>
      <point x="234" y="1248"/>
      <point x="183" y="1637"/>
      <point x="132" y="2026" type="curve" smooth="yes"/>
      <point x="89" y="2357"/>
      <point x="41" y="2687"/>
      <point x="0" y="3019" type="curve" smooth="yes"/>
    </contour>
  </outline>
</glyph>
<glyph name="Y" format="1">
  <advance width="1643"/>
  <unicode hex="0059"/>
  <outline>
    <contour>
      <point x="817" y="281" type="move"/>
      <point x="817" y="1168" type="line"/>
      <point x="817" y="1441" type="line"/>
      <point x="817" y="1525" type="line" smooth="yes"/>
      <point x="817" y="1536"/>
      <point x="814" y="1552"/>
      <point x="817" y="1563" type="curve" smooth="yes"/>
      <point x="819" y="1570"/>
      <point x="836" y="1576"/>
      <point x="843" y="1579" type="curve" smooth="yes"/>
      <point x="861" y="1588"/>
      <point x="880" y="1597"/>
      <point x="898" y="1607" type="curve" smooth="yes"/>
      <point x="904" y="1610"/>
      <point x="912" y="1612"/>
      <point x="917" y="1618" type="curve" smooth="yes"/>
      <point x="931" y="1633"/>
      <point x="938" y="1659"/>
      <point x="947" y="1678" type="curve" smooth="yes"/>
      <point x="970" y="1724"/>
      <point x="992" y="1771"/>
      <point x="1015" y="1819" type="curve" smooth="yes"/>
      <point x="1410" y="2634" type="line" smooth="yes"/>
      <point x="1458" y="2732"/>
      <point x="1506" y="2830"/>
      <point x="1553" y="2930" type="curve" smooth="yes"/>
      <point x="1572" y="2969"/>
      <point x="1594" y="3007"/>
      <point x="1611" y="3048" type="curve" smooth="yes"/>
    </contour>
    <contour>
      <point x="32" y="3043" type="move"/>
      <point x="70" y="2962" type="line"/>
      <point x="187" y="2714" type="line"/>
      <point x="491" y="2074" type="line"/>
      <point x="637" y="1765" type="line"/>
      <point x="685" y="1664" type="line"/>
      <point x="705" y="1623" type="line"/>
      <point x="734" y="1607" type="line"/>
      <point x="817" y="1565" type="line"/>
    </contour>
  </outline>
</glyph>
<glyph name="Z" format="1">
  <advance width="1881"/>
  <unicode hex="005A"/>
  <outline>
    <contour>
      <point x="256" y="3031" type="move"/>
      <point x="1239" y="3031" type="line"/>
      <point x="1494" y="3031" type="line"/>
      <point x="1560" y="3031" type="line" smooth="yes"/>
      <point x="1567" y="3031"/>
      <point x="1579" y="3033"/>
      <point x="1586" y="3028" type="curve" smooth="yes"/>
      <point x="1590" y="3025"/>
      <point x="1597" y="3019"/>
      <point x="1599" y="3014" type="curve" smooth="yes"/>
      <point x="1601" y="3005"/>
      <point x="1594" y="2988"/>
      <point x="1593" y="2980" type="curve" smooth="yes"/>
      <point x="1585" y="2942"/>
      <point x="1577" y="2904"/>
      <point x="1569" y="2867" type="curve" smooth="yes"/>
      <point x="1564" y="2844"/>
      <point x="1562" y="2819"/>
      <point x="1554" y="2798" type="curve" smooth="yes"/>
      <point x="1548" y="2781"/>
      <point x="1537" y="2766"/>
      <point x="1529" y="2751" type="curve" smooth="yes"/>
      <point x="1512" y="2717"/>
      <point x="1494" y="2684"/>
      <point x="1476" y="2651" type="curve" smooth="yes"/>
      <point x="1429" y="2563"/>
      <point x="1381" y="2476"/>
      <point x="1336" y="2389" type="curve" smooth="yes"/>
      <point x="1231" y="2186"/>
      <point x="1121" y="1985"/>
      <point x="1013" y="1785" type="curve" smooth="yes"/>
      <point x="840" y="1464"/>
      <point x="671" y="1142"/>
      <point x="498" y="822" type="curve" smooth="yes"/>
      <point x="462" y="754"/>
      <point x="427" y="687"/>
      <point x="390" y="620" type="curve" smooth="yes"/>
      <point x="372" y="586"/>
      <point x="349" y="553"/>
      <point x="336" y="518" type="curve" smooth="yes"/>
      <point x="332" y="508"/>
      <point x="331" y="497"/>
      <point x="329" y="487" type="curve" smooth="yes"/>
      <point x="324" y="462"/>
      <point x="319" y="437"/>
      <point x="314" y="413" type="curve" smooth="yes"/>
      <point x="307" y="380"/>
      <point x="300" y="348"/>
      <point x="293" y="317" type="curve" smooth="yes"/>
      <point x="291" y="308"/>
      <point x="284" y="289"/>
      <point x="289" y="282" type="curve" smooth="yes"/>
      <point x="296" y="271"/>
      <point x="305" y="273"/>
      <point x="317" y="273" type="curve" smooth="yes"/>
      <point x="373" y="273" type="line"/>
      <point x="617" y="273" type="line"/>
      <point x="1625" y="273" type="line"/>
    </contour>
  </outline>
</glyph>
<glyph name="asciicircum" format="1">
  <advance width="1169"/>
  <unicode hex="005E"/>
  <outline>
    <contour>
      <point x="48" y="2785" type="move" smooth="yes"/>
      <point x="82" y="2819"/>
      <point x="119" y="2851"/>
      <point x="155" y="2884" type="curve" smooth="yes"/>
      <point x="230" y="2954"/>
      <point x="306" y="3023"/>
      <point x="382" y="3094" type="curve" smooth="yes"/>
      <point x="403" y="3114"/>
      <point x="425" y="3134"/>
      <point x="447" y="3154" type="curve" smooth="yes"/>
      <point x="457" y="3163"/>
      <point x="466" y="3176"/>
      <point x="479" y="3182" type="curve" smooth="yes"/>
      <point x="495" y="3192"/>
      <point x="518" y="3196"/>
      <point x="537" y="3201" type="curve" smooth="yes"/>
      <point x="548" y="3205"/>
      <point x="561" y="3212"/>
      <point x="573" y="3212" type="curve" smooth="yes"/>
      <point x="586" y="3213"/>
      <point x="604" y="3203"/>
      <point x="617" y="3199" type="curve" smooth="yes"/>
      <point x="634" y="3193"/>
      <point x="656" y="3190"/>
      <point x="672" y="3181" type="curve" smooth="yes"/>
      <point x="682" y="3174"/>
      <point x="690" y="3164"/>
      <point x="699" y="3156" type="curve" smooth="yes"/>
      <point x="719" y="3136"/>
      <point x="739" y="3117"/>
      <point x="760" y="3098" type="curve" smooth="yes"/>
      <point x="879" y="2983"/>
      <point x="1003" y="2872"/>
      <point x="1121" y="2755" type="curve" smooth="yes"/>
    </contour>
  </outline>
</glyph>
<glyph name="c" format="1">
  <advance width="1508"/>
  <unicode hex="0063"/>
  <outline>
    <contour>
      <point x="1430" y="796" type="move" smooth="yes"/>
      <point x="1417" y="754"/>
      <point x="1410" y="712"/>
      <point x="1395" y="672" type="curve" smooth="yes"/>
      <point x="1355" y="567"/>
      <point x="1288" y="465"/>
      <point x="1200" y="395" type="curve" smooth="yes"/>
      <point x="1156" y="360"/>
      <point x="1107" y="332"/>
      <point x="1054" y="315" type="curve" smooth="yes"/>
      <point x="1016" y="303"/>
      <point x="976" y="298"/>
      <point x="936" y="293" type="curve" smooth="yes"/>
      <point x="909" y="290"/>
      <point x="882" y="286"/>
      <point x="855" y="287" type="curve" smooth="yes"/>
      <point x="827" y="287"/>
      <point x="798" y="292"/>
      <point x="771" y="295" type="curve" smooth="yes"/>
      <point x="706" y="304"/>
      <point x="645" y="317"/>
      <point x="586" y="347" type="curve" smooth="yes"/>
      <point x="504" y="388"/>
      <point x="434" y="452"/>
      <point x="379" y="526" type="curve" smooth="yes"/>
      <point x="244" y="705"/>
      <point x="210" y="933"/>
      <point x="195" y="1152" type="curve" smooth="yes"/>
      <point x="189" y="1234"/>
      <point x="189" y="1316"/>
      <point x="195" y="1399" type="curve" smooth="yes"/>
      <point x="203" y="1520"/>
      <point x="214" y="1641"/>
      <point x="249" y="1759" type="curve" smooth="yes"/>
      <point x="300" y="1929"/>
      <point x="394" y="2095"/>
      <point x="545" y="2197" type="curve" smooth="yes"/>
      <point x="619" y="2247"/>
      <point x="698" y="2269"/>
      <point x="786" y="2280" type="curve" smooth="yes"/>
      <point x="883" y="2292"/>
      <point x="987" y="2286"/>
      <point x="1080" y="2254" type="curve" smooth="yes"/>
      <point x="1174" y="2222"/>
      <point x="1259" y="2159"/>
      <point x="1320" y="2081" type="curve" smooth="yes"/>
      <point x="1387" y="1992"/>
      <point x="1419" y="1886"/>
      <point x="1444" y="1780" type="curve" smooth="yes"/>
    </contour>
  </outline>
</glyph>
<glyph name="f" format="1">
  <advance width="369"/>
  <unicode hex="0066"/>
  <outline>
    <contour>
      <point x="0" y="2297" type="move"/>
      <point x="274" y="2297" type="line"/>
      <point x="274" y="2645" type="line" smooth="yes"/>
      <point x="274" y="2727"/>
      <point x="271" y="2810"/>
      <point x="279" y="2892" type="curve" smooth="yes"/>
      <point x="284" y="2938"/>
      <point x="288" y="2986"/>
      <point x="300" y="3032" type="curve" smooth="yes"/>
      <point x="309" y="3063"/>
      <point x="322" y="3094"/>
      <point x="348" y="3115" type="curve" smooth="yes"/>
      <point x="384" y="3145"/>
      <point x="437" y="3153"/>
      <point x="483" y="3159" type="curve" smooth="yes"/>
      <point x="577" y="3170"/>
      <point x="672" y="3172"/>
      <point x="768" y="3172" type="curve"/>
    </contour>
    <contour>
      <point x="274" y="274" type="move"/>
      <point x="274" y="1772" type="line"/>
      <point x="274" y="2159" type="line"/>
      <point x="274" y="2259" type="line"/>
      <point x="274" y="2284" type="line" smooth="yes"/>
      <point x="274" y="2286"/>
      <point x="273" y="2291"/>
      <point x="275" y="2294" type="curve" smooth="yes"/>
      <point x="279" y="2299"/>
      <point x="299" y="2297"/>
      <point x="306" y="2297" type="curve" smooth="yes"/>
      <point x="397" y="2297" type="line"/>
      <point x="768" y="2297" type="line"/>
    </contour>
  </outline>
</glyph>
<glyph name="i" format="1">
  <advance width="288"/>
  <unicode hex="0069"/>
  <outline>
    <contour>
      <point x="144" y="3156" type="move"/>
      <point x="144" y="2938" type="line"/>
    </contour>
    <contour>
      <point x="144" y="2281" type="move"/>
      <point x="144" y="282" type="line"/>
    </contour>
  </outline>
</glyph>
<glyph name="n" format="1">
  <advance width="1253"/>
  <unicode hex="006E"/>
  <outline>
    <contour>
      <point x="80" y="274" type="move"/>
      <point x="80" y="1534" type="line"/>
      <point x="80" y="1876" type="line"/>
      <point x="80" y="1967" type="line" smooth="yes"/>
      <point x="80" y="1982"/>
      <point x="78" y="2001"/>
      <point x="86" y="2014" type="curve" smooth="yes"/>
      <point x="89" y="2019"/>
      <point x="96" y="2021"/>
      <point x="101" y="2023" type="curve" smooth="yes"/>
      <point x="138" y="2038" type="line" smooth="yes"/>
      <point x="171" y="2051"/>
      <point x="204" y="2063"/>
      <point x="238" y="2075" type="curve" smooth="yes"/>
      <point x="254" y="2080"/>
      <point x="276" y="2083"/>
      <point x="291" y="2092" type="curve" smooth="yes"/>
      <point x="296" y="2096"/>
      <point x="300" y="2103"/>
      <point x="305" y="2108" type="curve" smooth="yes"/>
      <point x="315" y="2119"/>
      <point x="325" y="2130"/>
      <point x="336" y="2141" type="curve" smooth="yes"/>
      <point x="366" y="2170"/>
      <point x="399" y="2198"/>
      <point x="437" y="2219" type="curve" smooth="yes"/>
      <point x="524" y="2267"/>
      <point x="617" y="2286"/>
      <point x="716" y="2293" type="curve" smooth="yes"/>
      <point x="779" y="2297"/>
      <point x="841" y="2295"/>
      <point x="904" y="2282" type="curve" smooth="yes"/>
      <point x="969" y="2269"/>
      <point x="1045" y="2240"/>
      <point x="1089" y="2188" type="curve" smooth="yes"/>
      <point x="1138" y="2130"/>
      <point x="1155" y="2054"/>
      <point x="1163" y="1981" type="curve" smooth="yes"/>
      <point x="1175" y="1863"/>
      <point x="1173" y="1744"/>
      <point x="1173" y="1626" type="curve" smooth="yes"/>
      <point x="1173" y="274" type="line"/>
    </contour>
    <contour>
      <point x="80" y="2289" type="move"/>
      <point x="80" y="2090" type="line"/>
      <point x="80" y="2045" type="line" smooth="yes"/>
      <point x="80" y="2033"/>
      <point x="78" y="2025"/>
      <point x="87" y="2017" type="curve" smooth="yes"/>
    </contour>
  </outline>
</glyph>
<glyph name="o" format="1">
  <advance width="1605"/>
  <unicode hex="006F"/>
  <outline>
    <contour>
      <point x="791" y="2287" type="move" smooth="yes"/>
      <point x="822" y="2291"/>
      <point x="856" y="2284"/>
      <point x="887" y="2281" type="curve" smooth="yes"/>
      <point x="927" y="2276"/>
      <point x="966" y="2269"/>
      <point x="1004" y="2255" type="curve" smooth="yes"/>
      <point x="1183" y="2186"/>
      <point x="1288" y="2007"/>
      <point x="1353" y="1837" type="curve" smooth="yes"/>
      <point x="1393" y="1731"/>
      <point x="1408" y="1618"/>
      <point x="1419" y="1507" type="curve" smooth="yes"/>
      <point x="1426" y="1434"/>
      <point x="1429" y="1361"/>
      <point x="1429" y="1289" type="curve" smooth="yes"/>
      <point x="1429" y="1235"/>
      <point x="1425" y="1182"/>
      <point x="1422" y="1129" type="curve" smooth="yes"/>
      <point x="1410" y="951"/>
      <point x="1379" y="776"/>
      <point x="1298" y="616" type="curve" smooth="yes"/>
      <point x="1237" y="497"/>
      <point x="1148" y="388"/>
      <point x="1025" y="333" type="curve" smooth="yes"/>
      <point x="975" y="311"/>
      <point x="922" y="302"/>
      <point x="869" y="295" type="curve" smooth="yes"/>
      <point x="845" y="292"/>
      <point x="820" y="288"/>
      <point x="796" y="287" type="curve" smooth="yes"/>
      <point x="770" y="286"/>
      <point x="743" y="292"/>
      <point x="718" y="295" type="curve" smooth="yes"/>
      <point x="654" y="304"/>
      <point x="593" y="317"/>
      <point x="537" y="348" type="curve" smooth="yes"/>
      <point x="354" y="449"/>
      <point x="259" y="659"/>
      <point x="206" y="852" type="curve" smooth="yes"/>
      <point x="178" y="954"/>
      <point x="167" y="1060"/>
      <point x="163" y="1166" type="curve" smooth="yes"/>
      <point x="158" y="1264"/>
      <point x="158" y="1361"/>
      <point x="165" y="1460" type="curve" smooth="yes"/>
      <point x="175" y="1605"/>
      <point x="194" y="1751"/>
      <point x="249" y="1887" type="curve" smooth="yes"/>
      <point x="300" y="2012"/>
      <point x="378" y="2135"/>
      <point x="494" y="2209" type="curve" smooth="yes"/>
      <point x="543" y="2241"/>
      <point x="600" y="2263"/>
      <point x="658" y="2273" type="curve" smooth="yes"/>
      <point x="702" y="2281"/>
      <point x="747" y="2281"/>
      <point x="791" y="2287" type="curve" smooth="yes"/>
    </contour>
  </outline>
</glyph>
<glyph name="p" format="1">
  <advance width="1413"/>
  <unicode hex="0070"/>
  <outline>
    <contour>
      <point x="80" y="2289" type="move"/>
      <point x="80" y="2154" type="line" smooth="yes"/>
      <point x="80" y="2142"/>
      <point x="75" y="2114"/>
      <point x="89" y="2110" type="curve" smooth="yes"/>
      <point x="96" y="2108"/>
      <point x="110" y="2116"/>
      <point x="117" y="2118" type="curve" smooth="yes"/>
      <point x="140" y="2125"/>
      <point x="163" y="2132"/>
      <point x="186" y="2138" type="curve" smooth="yes"/>
      <point x="215" y="2146"/>
      <point x="243" y="2153"/>
      <point x="272" y="2160" type="curve" smooth="yes"/>
      <point x="284" y="2163"/>
      <point x="299" y="2164"/>
      <point x="310" y="2169" type="curve" smooth="yes"/>
      <point x="328" y="2177"/>
      <point x="345" y="2191"/>
      <point x="363" y="2201" type="curve" smooth="yes"/>
      <point x="396" y="2219"/>
      <point x="430" y="2235"/>
      <point x="466" y="2247" type="curve" smooth="yes"/>
      <point x="506" y="2261"/>
      <point x="548" y="2269"/>
      <point x="590" y="2276" type="curve" smooth="yes"/>
      <point x="614" y="2280"/>
      <point x="639" y="2285"/>
      <point x="664" y="2285" type="curve" smooth="yes"/>
      <point x="693" y="2286"/>
      <point x="722" y="2281"/>
      <point x="751" y="2278" type="curve" smooth="yes"/>
      <point x="799" y="2272"/>
      <point x="846" y="2261"/>
      <point x="889" y="2240" type="curve" smooth="yes"/>
      <point x="975" y="2198"/>
      <point x="1047" y="2127"/>
      <point x="1098" y="2047" type="curve" smooth="yes"/>
      <point x="1136" y="1987"/>
      <point x="1162" y="1918"/>
      <point x="1180" y="1850" type="curve" smooth="yes"/>
      <point x="1208" y="1744"/>
      <point x="1221" y="1635"/>
      <point x="1228" y="1527" type="curve" smooth="yes"/>
      <point x="1237" y="1397"/>
      <point x="1239" y="1267"/>
      <point x="1233" y="1138" type="curve" smooth="yes"/>
      <point x="1226" y="972"/>
      <point x="1212" y="806"/>
      <point x="1156" y="649" type="curve" smooth="yes"/>
      <point x="1110" y="516"/>
      <point x="1029" y="391"/>
      <point x="899" y="329" type="curve" smooth="yes"/>
      <point x="861" y="310"/>
      <point x="819" y="298"/>
      <point x="777" y="291" type="curve" smooth="yes"/>
      <point x="738" y="284"/>
      <point x="696" y="277"/>
      <point x="656" y="278" type="curve" smooth="yes"/>
      <point x="628" y="278"/>
      <point x="600" y="282"/>
      <point x="572" y="285" type="curve" smooth="yes"/>
      <point x="489" y="294"/>
      <point x="409" y="315"/>
      <point x="334" y="353" type="curve" smooth="yes"/>
      <point x="313" y="363"/>
      <point x="289" y="364"/>
      <point x="266" y="369" type="curve" smooth="yes"/>
      <point x="229" y="376"/>
      <point x="192" y="385"/>
      <point x="155" y="394" type="curve" smooth="yes"/>
      <point x="141" y="398"/>
      <point x="126" y="401"/>
      <point x="112" y="406" type="curve" smooth="yes"/>
      <point x="107" y="407"/>
      <point x="99" y="408"/>
      <point x="94" y="411" type="curve" smooth="yes"/>
      <point x="89" y="415"/>
      <point x="88" y="426"/>
      <point x="85" y="432" type="curve" smooth="yes"/>
      <point x="76" y="457"/>
      <point x="80" y="486"/>
      <point x="80" y="513" type="curve" smooth="yes"/>
      <point x="80" y="798" type="line"/>
      <point x="80" y="1748" type="line"/>
      <point x="80" y="2001" type="line"/>
      <point x="80" y="2060" type="line" smooth="yes"/>
      <point x="80" y="2076"/>
      <point x="80" y="2093"/>
      <point x="89" y="2109" type="curve" smooth="yes"/>
    </contour>
    <contour>
      <point x="93" y="411" type="move" smooth="yes"/>
      <point x="89" y="406"/>
      <point x="83" y="402"/>
      <point x="81" y="397" type="curve" smooth="yes"/>
      <point x="76" y="384"/>
      <point x="80" y="364"/>
      <point x="80" y="352" type="curve" smooth="yes"/>
      <point x="80" y="228" type="line"/>
      <point x="80" y="-289" type="line"/>
    </contour>
  </outline>
</glyph>
<glyph name="t" format="1">
  <advance width="959"/>
  <unicode hex="0074"/>
  <outline>
    <contour>
      <point x="292" y="3023" type="move" smooth="yes"/>
      <point x="292" y="766" type="line" smooth="yes"/>
      <point x="292" y="694"/>
      <point x="289" y="622"/>
      <point x="296" y="552" type="curve" smooth="yes"/>
      <point x="301" y="506"/>
      <point x="305" y="460"/>
      <point x="316" y="417" type="curve" smooth="yes"/>
      <point x="323" y="390"/>
      <point x="332" y="365"/>
      <point x="350" y="344" type="curve" smooth="yes"/>
      <point x="387" y="299"/>
      <point x="448" y="292"/>
      <point x="503" y="284" type="curve" smooth="yes"/>
      <point x="624" y="267"/>
      <point x="747" y="273"/>
      <point x="870" y="273" type="curve"/>
    </contour>
    <contour>
      <point x="48" y="2297" type="move"/>
      <point x="879" y="2297" type="line"/>
    </contour>
  </outline>
</glyph>
<glyph name="u" format="1">
  <advance width="1269"/>
  <unicode hex="0075"/>
  <outline>
    <contour>
      <point x="80" y="2281" type="move"/>
      <point x="80" y="956" type="line"/>
      <point x="80" y="834"/>
      <point x="76,754" y="712,091"/>
      <point x="91" y="591" type="curve" smooth="yes"/>
      <point x="99" y="523"/>
      <point x="110" y="454"/>
      <point x="153" y="399" type="curve" smooth="yes"/>
      <point x="201" y="335"/>
      <point x="276" y="305"/>
      <point x="352" y="291" type="curve" smooth="yes"/>
      <point x="392" y="284"/>
      <point x="437" y="277"/>
      <point x="478" y="278" type="curve" smooth="yes"/>
      <point x="511" y="278"/>
      <point x="545" y="283"/>
      <point x="578" y="287" type="curve" smooth="yes"/>
      <point x="639" y="295"/>
      <point x="699" y="307"/>
      <point x="756" y="331" type="curve" smooth="yes"/>
      <point x="794" y="348"/>
      <point x="831" y="368"/>
      <point x="866" y="391" type="curve" smooth="yes"/>
      <point x="882" y="402"/>
      <point x="899" y="420"/>
      <point x="917" y="428" type="curve" smooth="yes"/>
      <point x="935" y="436"/>
      <point x="956" y="439"/>
      <point x="975" y="444" type="curve" smooth="yes"/>
      <point x="1013" y="455"/>
      <point x="1050" y="466"/>
      <point x="1087" y="479" type="curve" smooth="yes"/>
      <point x="1101" y="483"/>
      <point x="1114" y="488"/>
      <point x="1128" y="493" type="curve" smooth="yes"/>
      <point x="1133" y="494"/>
      <point x="1141" y="496"/>
      <point x="1144" y="501" type="curve" smooth="yes"/>
      <point x="1158" y="530"/>
      <point x="1158" y="562"/>
      <point x="1158" y="594" type="curve" smooth="yes"/>
      <point x="1158" y="675" type="line"/>
      <point x="1158" y="1025" type="line"/>
      <point x="1158" y="2281" type="line"/>
    </contour>
    <contour>
      <point x="1143" y="498" type="move"/>
      <point x="1157" y="482" type="line"/>
      <point x="1158" y="465" type="line"/>
      <point x="1158" y="429" type="line"/>
      <point x="1158" y="281" type="line"/>
    </contour>
  </outline>
</glyph>
<glyph name="v" format="1">
  <advance width="1270"/>
  <unicode hex="0076"/>
  <outline>
    <contour>
      <point x="1222" y="2296" type="move" smooth="yes"/>
      <point x="1214" y="2238"/>
      <point x="1195" y="2182"/>
      <point x="1183" y="2126" type="curve" smooth="yes"/>
      <point x="1154" y="1996"/>
      <point x="1124" y="1866"/>
      <point x="1093" y="1737" type="curve" smooth="yes"/>
      <point x="1017" y="1414"/>
      <point x="948" y="1091"/>
      <point x="872" y="769" type="curve" smooth="yes"/>
      <point x="851" y="681"/>
      <point x="830" y="593"/>
      <point x="811" y="506" type="curve" smooth="yes"/>
      <point x="806" y="483"/>
      <point x="800" y="461"/>
      <point x="796" y="439" type="curve" smooth="yes"/>
      <point x="793" y="429"/>
      <point x="792" y="413"/>
      <point x="787" y="405" type="curve" smooth="yes"/>
      <point x="780" y="395"/>
      <point x="765" y="389"/>
      <point x="756" y="382" type="curve" smooth="yes"/>
      <point x="736" y="369"/>
      <point x="716" y="355"/>
      <point x="696" y="342" type="curve" smooth="yes"/>
      <point x="685" y="335"/>
      <point x="677" y="326"/>
      <point x="664" y="328" type="curve" smooth="yes"/>
      <point x="654" y="329"/>
      <point x="644" y="339"/>
      <point x="636" y="344" type="curve" smooth="yes"/>
      <point x="615" y="357"/>
      <point x="594" y="370"/>
      <point x="574" y="384" type="curve" smooth="yes"/>
      <point x="566" y="389"/>
      <point x="551" y="395"/>
      <point x="547" y="404" type="curve" smooth="yes"/>
      <point x="542" y="412"/>
      <point x="541" y="425"/>
      <point x="538" y="435" type="curve" smooth="yes"/>
      <point x="531" y="462"/>
      <point x="525" y="489"/>
      <point x="518" y="517" type="curve" smooth="yes"/>
      <point x="494" y="605"/>
      <point x="475" y="694"/>
      <point x="450" y="782" type="curve" smooth="yes"/>
      <point x="425" y="867"/>
      <point x="406" y="954"/>
      <point x="384" y="1041" type="curve" smooth="yes"/>
      <point x="328" y="1253"/>
      <point x="274" y="1467"/>
      <point x="220" y="1681" type="curve" smooth="yes"/>
      <point x="187" y="1813"/>
      <point x="153" y="1945"/>
      <point x="119" y="2078" type="curve" smooth="yes"/>
      <point x="100" y="2149"/>
      <point x="78" y="2220"/>
      <point x="64" y="2293" type="curve" smooth="yes"/>
    </contour>
  </outline>
</glyph>
<glyph name="w" format="1">
  <advance width="2033"/>
  <unicode hex="0077"/>
  <outline>
    <contour>
      <point x="1953" y="2297" type="move" smooth="yes"/>
      <point x="1946" y="2242"/>
      <point x="1934" y="2188"/>
      <point x="1925" y="2135" type="curve" smooth="yes"/>
      <point x="1872" y="1829" type="line" smooth="yes"/>
      <point x="1806" y="1448"/>
      <point x="1738" y="1068"/>
      <point x="1674" y="688" type="curve" smooth="yes"/>
      <point x="1661" y="612"/>
      <point x="1649" y="536"/>
      <point x="1635" y="461" type="curve" smooth="yes"/>
      <point x="1631" y="439"/>
      <point x="1628" y="416"/>
      <point x="1623" y="395" type="curve" smooth="yes"/>
      <point x="1622" y="386"/>
      <point x="1622" y="375"/>
      <point x="1618" y="368" type="curve" smooth="yes"/>
      <point x="1612" y="356"/>
      <point x="1593" y="347"/>
      <point x="1583" y="339" type="curve" smooth="yes"/>
      <point x="1572" y="331"/>
      <point x="1559" y="318"/>
      <point x="1547" y="313" type="curve" smooth="yes"/>
      <point x="1536" y="309"/>
      <point x="1518" y="313"/>
      <point x="1507" y="313" type="curve" smooth="yes"/>
      <point x="1491" y="313"/>
      <point x="1469" y="309"/>
      <point x="1454" y="313" type="curve" smooth="yes"/>
      <point x="1445" y="316"/>
      <point x="1436" y="325"/>
      <point x="1429" y="331" type="curve" smooth="yes"/>
      <point x="1412" y="344"/>
      <point x="1389" y="356"/>
      <point x="1376" y="373" type="curve" smooth="yes"/>
      <point x="1370" y="380"/>
      <point x="1371" y="395"/>
      <point x="1369" y="404" type="curve" smooth="yes"/>
      <point x="1358" y="480" type="line" smooth="yes"/>
      <point x="1345" y="574"/>
      <point x="1331" y="667"/>
      <point x="1317" y="762" type="curve" smooth="yes"/>
      <point x="1285" y="988"/>
      <point x="1252" y="1214"/>
      <point x="1219" y="1440" type="curve" smooth="yes"/>
      <point x="1200" y="1564"/>
      <point x="1185" y="1689"/>
      <point x="1165" y="1814" type="curve" smooth="yes"/>
      <point x="1151" y="1898"/>
      <point x="1140" y="1982"/>
      <point x="1128" y="2067" type="curve" smooth="yes"/>
      <point x="1117" y="2143" type="line" smooth="yes"/>
      <point x="1115" y="2155"/>
      <point x="1115" y="2170"/>
      <point x="1111" y="2183" type="curve" smooth="yes"/>
      <point x="1108" y="2191"/>
      <point x="1099" y="2196"/>
      <point x="1093" y="2201" type="curve" smooth="yes"/>
      <point x="1077" y="2212"/>
      <point x="1062" y="2224"/>
      <point x="1048" y="2236" type="curve" smooth="yes"/>
      <point x="1041" y="2241"/>
      <point x="1034" y="2248"/>
      <point x="1025" y="2249" type="curve" smooth="yes"/>
      <point x="988" y="2249" type="line" smooth="yes"/>
      <point x="982" y="2249"/>
      <point x="974" y="2250"/>
      <point x="969" y="2248" type="curve" smooth="yes"/>
      <point x="962" y="2246"/>
      <point x="956" y="2239"/>
      <point x="951" y="2235" type="curve" smooth="yes"/>
      <point x="915" y="2208" type="line" smooth="yes"/>
      <point x="904" y="2201"/>
      <point x="886" y="2192"/>
      <point x="879" y="2181" type="curve" smooth="yes"/>
      <point x="875" y="2171"/>
      <point x="875" y="2157"/>
      <point x="873" y="2147" type="curve" smooth="yes"/>
      <point x="869" y="2122"/>
      <point x="865" y="2097"/>
      <point x="861" y="2073" type="curve" smooth="yes"/>
      <point x="846" y="1985"/>
      <point x="833" y="1896"/>
      <point x="818" y="1809" type="curve" smooth="yes"/>
      <point x="760" y="1458"/>
      <point x="703" y="1107"/>
      <point x="649" y="757" type="curve" smooth="yes"/>
      <point x="634" y="661"/>
      <point x="618" y="567"/>
      <point x="603" y="472" type="curve" smooth="yes"/>
      <point x="599" y="446"/>
      <point x="595" y="421"/>
      <point x="591" y="396" type="curve" smooth="yes"/>
      <point x="590" y="387"/>
      <point x="590" y="372"/>
      <point x="584" y="366" type="curve" smooth="yes"/>
      <point x="572" y="351"/>
      <point x="552" y="340"/>
      <point x="537" y="329" type="curve" smooth="yes"/>
      <point x="530" y="324"/>
      <point x="522" y="316"/>
      <point x="515" y="313" type="curve" smooth="yes"/>
      <point x="499" y="308"/>
      <point x="476" y="313"/>
      <point x="461" y="313" type="curve" smooth="yes"/>
      <point x="449" y="313"/>
      <point x="432" y="310"/>
      <point x="422" y="313" type="curve" smooth="yes"/>
      <point x="407" y="318"/>
      <point x="392" y="334"/>
      <point x="380" y="343" type="curve" smooth="yes"/>
      <point x="369" y="351"/>
      <point x="349" y="361"/>
      <point x="341" y="373" type="curve" smooth="yes"/>
      <point x="337" y="379"/>
      <point x="338" y="392"/>
      <point x="336" y="400" type="curve" smooth="yes"/>
      <point x="333" y="421"/>
      <point x="329" y="442"/>
      <point x="325" y="463" type="curve" smooth="yes"/>
      <point x="312" y="536"/>
      <point x="299" y="610"/>
      <point x="288" y="685" type="curve" smooth="yes"/>
      <point x="268" y="811"/>
      <point x="245" y="937"/>
      <point x="224" y="1063" type="curve" smooth="yes"/>
      <point x="177" y="1339"/>
      <point x="130" y="1615"/>
      <point x="84" y="1892" type="curve" smooth="yes"/>
      <point x="68" y="1987"/>
      <point x="51" y="2083"/>
      <point x="35" y="2179" type="curve" smooth="yes"/>
      <point x="29" y="2217"/>
      <point x="20" y="2256"/>
      <point x="16" y="2296" type="curve" smooth="yes"/>
    </contour>
  </outline>
</glyph>
<glyph name="y" format="1">
  <advance width="1278"/>
  <unicode hex="0079"/>
  <outline>
    <contour>
      <point x="1214" y="2313" type="move" smooth="yes"/>
      <point x="1205" y="2276"/>
      <point x="1189" y="2240"/>
      <point x="1177" y="2205" type="curve" smooth="yes"/>
      <point x="1149" y="2122"/>
      <point x="1120" y="2040"/>
      <point x="1092" y="1959" type="curve" smooth="yes"/>
      <point x="1006" y="1711"/>
      <point x="919" y="1465"/>
      <point x="837" y="1217" type="curve" smooth="yes"/>
      <point x="816" y="1156"/>
      <point x="795" y="1095"/>
      <point x="774" y="1035" type="curve" smooth="yes"/>
      <point x="768" y="1018"/>
      <point x="762" y="1001"/>
      <point x="757" y="984" type="curve" smooth="yes"/>
      <point x="754" y="976"/>
      <point x="752" y="965"/>
      <point x="747" y="960" type="curve" smooth="yes"/>
      <point x="736" y="947"/>
      <point x="713" y="939"/>
      <point x="699" y="930" type="curve" smooth="yes"/>
      <point x="685" y="922"/>
      <point x="670" y="913"/>
      <point x="657" y="905" type="curve" smooth="yes"/>
      <point x="652" y="902"/>
      <point x="644" y="896"/>
      <point x="639" y="896" type="curve" smooth="yes"/>
      <point x="633" y="896"/>
      <point x="626" y="902"/>
      <point x="622" y="904" type="curve" smooth="yes"/>
      <point x="580" y="928" type="line" smooth="yes"/>
      <point x="566" y="936"/>
      <point x="553" y="943"/>
      <point x="540" y="951" type="curve" smooth="yes"/>
      <point x="533" y="955"/>
      <point x="525" y="958"/>
      <point x="520" y="963" type="curve" smooth="yes"/>
      <point x="515" y="968"/>
      <point x="513" y="979"/>
      <point x="511" y="986" type="curve" smooth="yes"/>
      <point x="504" y="1003"/>
      <point x="497" y="1021"/>
      <point x="491" y="1039" type="curve" smooth="yes"/>
      <point x="469" y="1097"/>
      <point x="447" y="1156"/>
      <point x="425" y="1215" type="curve" smooth="yes"/>
      <point x="336" y="1451"/>
      <point x="249" y="1690"/>
      <point x="160" y="1927" type="curve" smooth="yes"/>
      <point x="128" y="2011"/>
      <point x="97" y="2096"/>
      <point x="65" y="2181" type="curve" smooth="yes"/>
      <point x="48" y="2224"/>
      <point x="28" y="2269"/>
      <point x="16" y="2315" type="curve" smooth="yes"/>
    </contour>
    <contour>
      <point x="639" y="895" type="move" smooth="yes"/>
      <point x="639" y="864"/>
      <point x="642" y="832"/>
      <point x="639" y="802" type="curve" smooth="yes"/>
      <point x="636" y="746"/>
      <point x="623" y="689"/>
      <point x="615" y="635" type="curve" smooth="yes"/>
      <point x="610" y="600"/>
      <point x="608" y="564"/>
      <point x="600" y="531" type="curve" smooth="yes"/>
      <point x="589" y="488"/>
      <point x="571" y="446"/>
      <point x="557" y="405" type="curve" smooth="yes"/>
      <point x="525" y="311"/>
      <point x="492" y="217"/>
      <point x="460" y="124" type="curve" smooth="yes"/>
      <point x="427" y="29"/>
      <point x="395" y="-64"/>
      <point x="363" y="-159" type="curve" smooth="yes"/>
      <point x="352" y="-191"/>
      <point x="340" y="-222"/>
      <point x="330" y="-255" type="curve" smooth="yes"/>
      <point x="323" y="-274"/>
      <point x="318" y="-294"/>
      <point x="310" y="-313" type="curve" smooth="yes"/>
    </contour>
  </outline>
</glyph>
<glyph name="z" format="1">
  <advance width="1612"/>
  <unicode hex="007A"/>
  <outline>
    <contour>
      <point x="192" y="2297" type="move"/>
      <point x="1087" y="2297" type="line"/>
      <point x="1301" y="2297" type="line"/>
      <point x="1343" y="2297" type="line" smooth="yes"/>
      <point x="1348" y="2297"/>
      <point x="1357" y="2298"/>
      <point x="1363" y="2296" type="curve" smooth="yes"/>
      <point x="1369" y="2294"/>
      <point x="1377" y="2284"/>
      <point x="1381" y="2279" type="curve" smooth="yes"/>
      <point x="1386" y="2272"/>
      <point x="1378" y="2252"/>
      <point x="1376" y="2245" type="curve" smooth="yes"/>
      <point x="1368" y="2213"/>
      <point x="1360" y="2180"/>
      <point x="1352" y="2149" type="curve" smooth="yes"/>
      <point x="1345" y="2122"/>
      <point x="1342" y="2090"/>
      <point x="1331" y="2065" type="curve" smooth="yes"/>
      <point x="1327" y="2054"/>
      <point x="1318" y="2044"/>
      <point x="1312" y="2035" type="curve" smooth="yes"/>
      <point x="1297" y="2012"/>
      <point x="1282" y="1991"/>
      <point x="1268" y="1969" type="curve" smooth="yes"/>
      <point x="1220" y="1894"/>
      <point x="1170" y="1821"/>
      <point x="1122" y="1747" type="curve" smooth="yes"/>
      <point x="889" y="1390"/>
      <point x="654" y="1036"/>
      <point x="418" y="682" type="curve" smooth="yes"/>
      <point x="398" y="652"/>
      <point x="379" y="621"/>
      <point x="359" y="592" type="curve" smooth="yes"/>
      <point x="344" y="570"/>
      <point x="324" y="546"/>
      <point x="313" y="522" type="curve" smooth="yes"/>
      <point x="307" y="508"/>
      <point x="305" y="492"/>
      <point x="302" y="478" type="curve" smooth="yes"/>
      <point x="295" y="449"/>
      <point x="287" y="421"/>
      <point x="280" y="393" type="curve" smooth="yes"/>
      <point x="262" y="321" type="line" smooth="yes"/>
      <point x="260" y="314"/>
      <point x="254" y="301"/>
      <point x="259" y="295" type="curve" smooth="yes"/>
      <point x="264" y="288"/>
      <point x="274" y="276"/>
      <point x="282" y="273" type="curve" smooth="yes"/>
      <point x="293" y="269"/>
      <point x="311" y="273"/>
      <point x="324" y="273" type="curve" smooth="yes"/>
      <point x="420" y="273" type="line"/>
      <point x="883" y="273" type="line"/>
      <point x="1421" y="273" type="line"/>
    </contour>
  </outline>
</glyph>
<glyph name="bar" format="1">
  <advance width="656"/>
  <unicode hex="007C"/>
  <outline>
    <contour>
      <point x="320" y="3242" type="move"/>
      <point x="320" y="-70" type="line"/>
    </contour>
  </outline>
</glyph>
<glyph name="braceright" format="1">
  <advance width="760"/>
  <unicode hex="007D"/>
  <outline>
    <contour>
      <point x="64" y="3298" type="move" smooth="yes"/>
      <point x="85" y="3294"/>
      <point x="106" y="3293"/>
      <point x="128" y="3289" type="curve" smooth="yes"/>
      <point x="172" y="3281"/>
      <point x="216" y="3265"/>
      <point x="255" y="3242" type="curve" smooth="yes"/>
      <point x="411" y="3147"/>
      <point x="428" y="2949"/>
      <point x="436" y="2785" type="curve" smooth="yes"/>
      <point x="437" y="2752"/>
      <point x="438" y="2719"/>
      <point x="438" y="2687" type="curve" smooth="yes"/>
      <point x="438" y="2174" type="line" smooth="yes"/>
      <point x="438" y="2129"/>
      <point x="434" y="2085"/>
      <point x="436" y="2041" type="curve" smooth="yes"/>
      <point x="438" y="1974"/>
      <point x="447" y="1907"/>
      <point x="460" y="1843" type="curve" smooth="yes"/>
      <point x="468" y="1805"/>
      <point x="475" y="1767"/>
      <point x="489" y="1732" type="curve" smooth="yes"/>
      <point x="503" y="1693"/>
      <point x="524" y="1657"/>
      <point x="553" y="1628" type="curve" smooth="yes"/>
      <point x="562" y="1618"/>
      <point x="572" y="1608"/>
      <point x="583" y="1600" type="curve" smooth="yes"/>
      <point x="588" y="1595"/>
      <point x="596" y="1591"/>
      <point x="601" y="1585" type="curve" smooth="yes"/>
      <point x="614" y="1568"/>
      <point x="617" y="1543"/>
      <point x="631" y="1525" type="curve"/>
      <point x="620" y="1512"/>
      <point x="614" y="1494"/>
      <point x="607" y="1480" type="curve" smooth="yes"/>
      <point x="604" y="1474"/>
      <point x="603" y="1467"/>
      <point x="599" y="1462" type="curve" smooth="yes"/>
      <point x="595" y="1457"/>
      <point x="588" y="1454"/>
      <point x="584" y="1450" type="curve" smooth="yes"/>
      <point x="574" y="1443"/>
      <point x="565" y="1435"/>
      <point x="556" y="1426" type="curve" smooth="yes"/>
      <point x="529" y="1399"/>
      <point x="508" y="1367"/>
      <point x="493" y="1332" type="curve" smooth="yes"/>
      <point x="475" y="1290"/>
      <point x="466" y="1244"/>
      <point x="458" y="1200" type="curve" smooth="yes"/>
      <point x="447" y="1137"/>
      <point x="438" y="1072"/>
      <point x="436" y="1009" type="curve" smooth="yes"/>
      <point x="434" y="972"/>
      <point x="438" y="937"/>
      <point x="438" y="901" type="curve" smooth="yes"/>
      <point x="438" y="533" type="line" smooth="yes"/>
      <point x="438" y="436"/>
      <point x="439" y="339"/>
      <point x="429" y="243" type="curve" smooth="yes"/>
      <point x="418" y="131"/>
      <point x="400" y="14"/>
      <point x="320" y="-71" type="curve" smooth="yes"/>
      <point x="298" y="-95"/>
      <point x="272" y="-114"/>
      <point x="244" y="-130" type="curve" smooth="yes"/>
      <point x="218" y="-145"/>
      <point x="189" y="-156"/>
      <point x="161" y="-164" type="curve" smooth="yes"/>
      <point x="131" y="-172"/>
      <point x="99" y="-179"/>
      <point x="69" y="-180" type="curve" smooth="yes"/>
    </contour>
    <contour>
      <point x="631" y="1525" type="move"/>
      <point x="696" y="1523" type="line"/>
    </contour>
  </outline>
</glyph>
<glyph name="asciitilde" format="1">
  <advance width="1332"/>
  <unicode hex="007E"/>
  <outline>
    <contour>
      <point x="208" y="2914" type="move" smooth="yes"/>
      <point x="227" y="2933"/>
      <point x="250" y="2951"/>
      <point x="275" y="2964" type="curve" smooth="yes"/>
      <point x="298" y="2976"/>
      <point x="324" y="2982"/>
      <point x="350" y="2989" type="curve" smooth="yes"/>
      <point x="366" y="2993"/>
      <point x="384" y="2999"/>
      <point x="401" y="3000" type="curve" smooth="yes"/>
      <point x="419" y="3001"/>
      <point x="442" y="2994"/>
      <point x="461" y="2990" type="curve" smooth="yes"/>
      <point x="501" y="2982"/>
      <point x="543" y="2975"/>
      <point x="582" y="2959" type="curve" smooth="yes"/>
      <point x="638" y="2936"/>
      <point x="690" y="2903"/>
      <point x="748" y="2882" type="curve" smooth="yes"/>
      <point x="778" y="2872"/>
      <point x="812" y="2868"/>
      <point x="844" y="2862" type="curve" smooth="yes"/>
      <point x="873" y="2857"/>
      <point x="906" y="2847"/>
      <point x="936" y="2848" type="curve" smooth="yes"/>
      <point x="952" y="2848"/>
      <point x="970" y="2854"/>
      <point x="986" y="2857" type="curve" smooth="yes"/>
      <point x="1038" y="2869"/>
      <point x="1085" y="2888"/>
      <point x="1124" y="2927" type="curve" smooth="yes"/>
    </contour>
  </outline>
</glyph>
<glyph name="cent" format="1">
  <advance width="1539"/>
  <unicode hex="00A2"/>
  <outline>
    <contour>
      <point x="1053" y="2971" type="move" smooth="yes"/>
      <point x="1051" y="2956"/>
      <point x="1046" y="2942"/>
      <point x="1043" y="2928" type="curve" smooth="yes"/>
      <point x="1032" y="2879"/>
      <point x="1018" y="2831"/>
      <point x="1008" y="2782" type="curve" smooth="yes"/>
      <point x="1005" y="2763"/>
      <point x="1004" y="2743"/>
      <point x="1003" y="2724" type="curve" smooth="yes"/>
      <point x="1002" y="2715"/>
      <point x="1003" y="2703"/>
      <point x="999" y="2696" type="curve" smooth="yes"/>
      <point x="996" y="2688"/>
      <point x="987" y="2682"/>
      <point x="982" y="2677" type="curve" smooth="yes"/>
      <point x="945" y="2640" type="line" smooth="yes"/>
      <point x="938" y="2633"/>
      <point x="930" y="2622"/>
      <point x="922" y="2618" type="curve" smooth="yes"/>
      <point x="917" y="2615"/>
      <point x="911" y="2617"/>
      <point x="907" y="2617" type="curve" smooth="yes"/>
      <point x="874" y="2617" type="line" smooth="yes"/>
      <point x="834" y="2617"/>
      <point x="792" y="2620"/>
      <point x="753" y="2616" type="curve" smooth="yes"/>
      <point x="699" y="2611"/>
      <point x="643" y="2605"/>
      <point x="591" y="2591" type="curve" smooth="yes"/>
      <point x="510" y="2568"/>
      <point x="436" y="2523"/>
      <point x="376" y="2465" type="curve" smooth="yes"/>
      <point x="334" y="2426"/>
      <point x="296" y="2382"/>
      <point x="266" y="2333" type="curve" smooth="yes"/>
      <point x="188" y="2207"/>
      <point x="154" y="2059"/>
      <point x="139" y="1915" type="curve" smooth="yes"/>
      <point x="134" y="1858"/>
      <point x="128" y="1800"/>
      <point x="128" y="1743" type="curve" smooth="yes"/>
      <point x="127" y="1677"/>
      <point x="132" y="1611"/>
      <point x="138" y="1546" type="curve" smooth="yes"/>
      <point x="153" y="1394"/>
      <point x="188" y="1243"/>
      <point x="271" y="1114" type="curve" smooth="yes"/>
      <point x="300" y="1069"/>
      <point x="334" y="1029"/>
      <point x="373" y="993" type="curve" smooth="yes"/>
      <point x="389" y="978"/>
      <point x="407" y="958"/>
      <point x="428" y="948" type="curve" smooth="yes"/>
      <point x="449" y="938"/>
      <point x="477" y="935"/>
      <point x="500" y="929" type="curve" smooth="yes"/>
      <point x="507" y="927"/>
      <point x="518" y="927"/>
      <point x="524" y="923" type="curve" smooth="yes"/>
      <point x="529" y="920"/>
      <point x="531" y="912"/>
      <point x="533" y="908" type="curve" smooth="yes"/>
      <point x="538" y="896"/>
      <point x="543" y="883"/>
      <point x="551" y="874" type="curve" smooth="yes"/>
      <point x="556" y="866"/>
      <point x="568" y="868"/>
      <point x="575" y="863" type="curve" smooth="yes"/>
      <point x="586" y="854"/>
      <point x="593" y="840"/>
      <point x="603" y="830" type="curve"/>
      <point x="554" y="781" type="line"/>
      <point x="532" y="758" type="line"/>
      <point x="529" y="742" type="line"/>
      <point x="525" y="702" type="line"/>
      <point x="507" y="621" type="line"/>
      <point x="431" y="296" type="line"/>
    </contour>
    <contour>
      <point x="923" y="2617" type="move" smooth="yes"/>
      <point x="928" y="2611"/>
      <point x="933" y="2604"/>
      <point x="940" y="2601" type="curve" smooth="yes"/>
      <point x="954" y="2595"/>
      <point x="974" y="2599"/>
      <point x="989" y="2593" type="curve" smooth="yes"/>
      <point x="997" y="2589"/>
      <point x="997" y="2576"/>
      <point x="1006" y="2572" type="curve" smooth="yes"/>
      <point x="1021" y="2566"/>
      <point x="1041" y="2566"/>
      <point x="1058" y="2562" type="curve" smooth="yes"/>
      <point x="1094" y="2555"/>
      <point x="1126" y="2545"/>
      <point x="1159" y="2525" type="curve" smooth="yes"/>
      <point x="1262" y="2459"/>
      <point x="1325" y="2345"/>
      <point x="1365" y="2233" type="curve" smooth="yes"/>
      <point x="1376" y="2201"/>
      <point x="1384" y="2167"/>
      <point x="1395" y="2136" type="curve" smooth="yes"/>
    </contour>
    <contour>
      <point x="1003" y="2573" type="move"/>
      <point x="959" y="2529" type="line"/>
      <point x="939" y="2508" type="line"/>
      <point x="934" y="2477" type="line"/>
      <point x="927" y="2417" type="line"/>
      <point x="870" y="2176" type="line"/>
      <point x="666" y="1319" type="line"/>
      <point x="610" y="1086" type="line"/>
      <point x="598" y="1030" type="line"/>
      <point x="593" y="993" type="line"/>
      <point x="572" y="970" type="line"/>
      <point x="526" y="924" type="line"/>
    </contour>
    <contour>
      <point x="1382" y="1234" type="move" smooth="yes"/>
      <point x="1380" y="1218"/>
      <point x="1372" y="1201"/>
      <point x="1366" y="1187" type="curve" smooth="yes"/>
      <point x="1350" y="1147"/>
      <point x="1331" y="1109"/>
      <point x="1307" y="1074" type="curve" smooth="yes"/>
      <point x="1238" y="975"/>
      <point x="1136" y="897"/>
      <point x="1022" y="860" type="curve" smooth="yes"/>
      <point x="927" y="829"/>
      <point x="823" y="821"/>
      <point x="725" y="827" type="curve" smooth="yes"/>
      <point x="692" y="830"/>
      <point x="658" y="825"/>
      <point x="626" y="828" type="curve" smooth="yes"/>
      <point x="618" y="829"/>
      <point x="611" y="827"/>
      <point x="604" y="830" type="curve" smooth="yes"/>
    </contour>
  </outline>
</glyph>
<glyph name="brokenbar" format="1">
  <advance width="256"/>
  <unicode hex="00A6"/>
  <outline>
    <contour>
      <point x="128" y="3226" type="move"/>
      <point x="128" y="-86" type="line"/>
    </contour>
  </outline>
</glyph>
<glyph name="section" format="1">
  <advance width="4281"/>
  <unicode hex="00A7"/>
  <outline>
    <contour>
      <point x="3254" y="2703" type="move" smooth="yes"/>
      <point x="3252" y="2719"/>
      <point x="3245" y="2737"/>
      <point x="3239" y="2753" type="curve" smooth="yes"/>
      <point x="3223" y="2793"/>
      <point x="3201" y="2831"/>
      <point x="3174" y="2866" type="curve" smooth="yes"/>
      <point x="3067" y="3003"/>
      <point x="2895" y="3065"/>
      <point x="2732" y="3106" type="curve" smooth="yes"/>
      <point x="2625" y="3133"/>
      <point x="2514" y="3145"/>
      <point x="2404" y="3153" type="curve" smooth="yes"/>
      <point x="2260" y="3162"/>
      <point x="2116" y="3165"/>
      <point x="1972" y="3156" type="curve" smooth="yes"/>
      <point x="1833" y="3146"/>
      <point x="1695" y="3134"/>
      <point x="1561" y="3094" type="curve" smooth="yes"/>
      <point x="1443" y="3059"/>
      <point x="1319" y="3007"/>
      <point x="1245" y="2905" type="curve" smooth="yes"/>
      <point x="1197" y="2840"/>
      <point x="1181" y="2756"/>
      <point x="1167" y="2679" type="curve" smooth="yes"/>
      <point x="1161" y="2646"/>
      <point x="1177" y="2607"/>
      <point x="1185" y="2576" type="curve" smooth="yes"/>
      <point x="1196" y="2538"/>
      <point x="1205" y="2500"/>
      <point x="1221" y="2466" type="curve" smooth="yes"/>
      <point x="1245" y="2417"/>
      <point x="1286" y="2373"/>
      <point x="1330" y="2341" type="curve" smooth="yes"/>
      <point x="1360" y="2320"/>
      <point x="1390" y="2300"/>
      <point x="1423" y="2282" type="curve" smooth="yes"/>
      <point x="1435" y="2275"/>
      <point x="1460" y="2268"/>
      <point x="1468" y="2256" type="curve" smooth="yes"/>
      <point x="1482" y="2237"/>
      <point x="1492" y="2213"/>
      <point x="1504" y="2192" type="curve" smooth="yes"/>
      <point x="1507" y="2185"/>
      <point x="1512" y="2171"/>
      <point x="1519" y="2168" type="curve" smooth="yes"/>
      <point x="1528" y="2163"/>
      <point x="1547" y="2167"/>
      <point x="1557" y="2167" type="curve" smooth="yes"/>
      <point x="1583" y="2166"/>
      <point x="1609" y="2165"/>
      <point x="1636" y="2161" type="curve" smooth="yes"/>
      <point x="1709" y="2151"/>
      <point x="1783" y="2145"/>
      <point x="1856" y="2132" type="curve" smooth="yes"/>
      <point x="1887" y="2126"/>
      <point x="1918" y="2115"/>
      <point x="1949" y="2107" type="curve" smooth="yes"/>
      <point x="2214" y="2037"/>
      <point x="2482" y="1974"/>
      <point x="2741" y="1882" type="curve" smooth="yes"/>
      <point x="2882" y="1832"/>
      <point x="3032" y="1777"/>
      <point x="3150" y="1681" type="curve" smooth="yes"/>
      <point x="3170" y="1665"/>
      <point x="3190" y="1644"/>
      <point x="3203" y="1622" type="curve" smooth="yes"/>
      <point x="3221" y="1590"/>
      <point x="3231" y="1551"/>
      <point x="3241" y="1517" type="curve" smooth="yes"/>
      <point x="3245" y="1503"/>
      <point x="3248" y="1490"/>
      <point x="3252" y="1477" type="curve" smooth="yes"/>
      <point x="3254" y="1469"/>
      <point x="3258" y="1461"/>
      <point x="3257" y="1454" type="curve" smooth="yes"/>
      <point x="3257" y="1436"/>
      <point x="3247" y="1416"/>
      <point x="3242" y="1399" type="curve" smooth="yes"/>
      <point x="3229" y="1355"/>
      <point x="3216" y="1308"/>
      <point x="3190" y="1271" type="curve" smooth="yes"/>
      <point x="3144" y="1207"/>
      <point x="3075" y="1166"/>
      <point x="3008" y="1130" type="curve" smooth="yes"/>
      <point x="2979" y="1115"/>
      <point x="2949" y="1103"/>
      <point x="2920" y="1090" type="curve" smooth="yes"/>
      <point x="2909" y="1085"/>
      <point x="2892" y="1082"/>
      <point x="2883" y="1074" type="curve" smooth="yes"/>
      <point x="2877" y="1069"/>
      <point x="2873" y="1059"/>
      <point x="2869" y="1052" type="curve" smooth="yes"/>
      <point x="2861" y="1037"/>
      <point x="2852" y="1022"/>
      <point x="2843" y="1008" type="curve" smooth="yes"/>
      <point x="2835" y="995"/>
      <point x="2827" y="982"/>
      <point x="2820" y="970" type="curve" smooth="yes"/>
      <point x="2817" y="966"/>
      <point x="2811" y="959"/>
      <point x="2812" y="955" type="curve" smooth="yes"/>
      <point x="2815" y="942"/>
      <point x="2828" y="928"/>
      <point x="2834" y="918" type="curve" smooth="yes"/>
      <point x="2842" y="905"/>
      <point x="2849" y="892"/>
      <point x="2857" y="880" type="curve" smooth="yes"/>
      <point x="2860" y="874"/>
      <point x="2863" y="866"/>
      <point x="2868" y="862" type="curve" smooth="yes"/>
      <point x="2881" y="852"/>
      <point x="2904" y="848"/>
      <point x="2919" y="841" type="curve" smooth="yes"/>
      <point x="2956" y="825"/>
      <point x="2991" y="809"/>
      <point x="3027" y="790" type="curve" smooth="yes"/>
      <point x="3096" y="755"/>
      <point x="3167" y="703"/>
      <point x="3205" y="634" type="curve" smooth="yes"/>
      <point x="3221" y="604"/>
      <point x="3229" y="569"/>
      <point x="3238" y="537" type="curve" smooth="yes"/>
      <point x="3244" y="514"/>
      <point x="3255" y="485"/>
      <point x="3255" y="462" type="curve" smooth="yes"/>
      <point x="3255" y="435"/>
      <point x="3242" y="406"/>
      <point x="3236" y="381" type="curve" smooth="yes"/>
      <point x="3224" y="336"/>
      <point x="3211" y="291"/>
      <point x="3185" y="254" type="curve" smooth="yes"/>
      <point x="3154" y="208"/>
      <point x="3109" y="172"/>
      <point x="3063" y="143" type="curve" smooth="yes"/>
      <point x="2984" y="95"/>
      <point x="2896" y="64"/>
      <point x="2807" y="41" type="curve" smooth="yes"/>
      <point x="2677" y="6"/>
      <point x="2544" y="-10"/>
      <point x="2411" y="-20" type="curve" smooth="yes"/>
      <point x="2299" y="-27"/>
      <point x="2187" y="-32"/>
      <point x="2075" y="-28" type="curve" smooth="yes"/>
      <point x="1869" y="-19"/>
      <point x="1662" y="-3"/>
      <point x="1466" y="66" type="curve" smooth="yes"/>
      <point x="1333" y="113"/>
      <point x="1200" y="191"/>
      <point x="1121" y="311" type="curve" smooth="yes"/>
      <point x="1103" y="338"/>
      <point x="1087" y="366"/>
      <point x="1074" y="397" type="curve" smooth="yes"/>
      <point x="1070" y="407"/>
      <point x="1063" y="419"/>
      <point x="1062" y="431" type="curve" smooth="yes"/>
    </contour>
    <contour>
      <point x="1519" y="2168" type="move" smooth="yes"/>
      <point x="1499" y="2143"/>
      <point x="1484" y="2112"/>
      <point x="1468" y="2085" type="curve" smooth="yes"/>
      <point x="1462" y="2075"/>
      <point x="1457" y="2059"/>
      <point x="1448" y="2052" type="curve" smooth="yes"/>
      <point x="1435" y="2042"/>
      <point x="1415" y="2038"/>
      <point x="1400" y="2032" type="curve" smooth="yes"/>
      <point x="1366" y="2018"/>
      <point x="1333" y="2003"/>
      <point x="1300" y="1986" type="curve" smooth="yes"/>
      <point x="1253" y="1963"/>
      <point x="1207" y="1937"/>
      <point x="1166" y="1905" type="curve" smooth="yes"/>
      <point x="1136" y="1883"/>
      <point x="1108" y="1859"/>
      <point x="1088" y="1828" type="curve" smooth="yes"/>
      <point x="1067" y="1796"/>
      <point x="1056" y="1754"/>
      <point x="1045" y="1719" type="curve" smooth="yes"/>
      <point x="1039" y="1701"/>
      <point x="1034" y="1685"/>
      <point x="1029" y="1668" type="curve" smooth="yes"/>
      <point x="1027" y="1660"/>
      <point x="1023" y="1651"/>
      <point x="1023" y="1644" type="curve" smooth="yes"/>
      <point x="1022" y="1623"/>
      <point x="1033" y="1597"/>
      <point x="1038" y="1577" type="curve" smooth="yes"/>
      <point x="1045" y="1552"/>
      <point x="1051" y="1525"/>
      <point x="1064" y="1504" type="curve" smooth="yes"/>
      <point x="1089" y="1463"/>
      <point x="1129" y="1432"/>
      <point x="1169" y="1406" type="curve" smooth="yes"/>
      <point x="1240" y="1360"/>
      <point x="1319" y="1323"/>
      <point x="1399" y="1295" type="curve" smooth="yes"/>
      <point x="1495" y="1261"/>
      <point x="1590" y="1227"/>
      <point x="1688" y="1199" type="curve" smooth="yes"/>
      <point x="1857" y="1149"/>
      <point x="2030" y="1110"/>
      <point x="2202" y="1067" type="curve" smooth="yes"/>
      <point x="2391" y="1019" type="line" smooth="yes"/>
      <point x="2422" y="1011"/>
      <point x="2452" y="1000"/>
      <point x="2484" y="994" type="curve" smooth="yes"/>
      <point x="2539" y="984"/>
      <point x="2597" y="980"/>
      <point x="2653" y="972" type="curve" smooth="yes"/>
      <point x="2705" y="965"/>
      <point x="2758" y="956"/>
      <point x="2811" y="956" type="curve" smooth="yes"/>
    </contour>
  </outline>
</glyph>
<glyph name="ordfeminine" format="1">
  <advance width="601"/>
  <unicode hex="00AA"/>
  <outline>
    <contour>
      <point x="122" y="3049" type="move" smooth="yes"/>
      <point x="126" y="3062"/>
      <point x="126" y="3077"/>
      <point x="130" y="3092" type="curve" smooth="yes"/>
      <point x="140" y="3131"/>
      <point x="160" y="3170"/>
      <point x="191" y="3198" type="curve" smooth="yes"/>
      <point x="225" y="3231"/>
      <point x="269" y="3239"/>
      <point x="315" y="3241" type="curve" smooth="yes"/>
      <point x="380" y="3243"/>
      <point x="451" y="3233"/>
      <point x="493" y="3178" type="curve" smooth="yes"/>
      <point x="514" y="3150"/>
      <point x="531" y="3120"/>
      <point x="541" y="3087" type="curve" smooth="yes"/>
      <point x="557" y="3037"/>
      <point x="557" y="2980"/>
      <point x="560" y="2929" type="curve" smooth="yes"/>
      <point x="565" y="2817"/>
      <point x="562" y="2704"/>
      <point x="562" y="2593" type="curve" smooth="yes"/>
      <point x="562" y="2456" type="line" smooth="yes"/>
      <point x="562" y="2441"/>
      <point x="560" y="2428"/>
      <point x="557" y="2415" type="curve" smooth="yes"/>
      <point x="556" y="2410"/>
      <point x="556" y="2402"/>
      <point x="553" y="2398" type="curve" smooth="yes"/>
      <point x="548" y="2392"/>
      <point x="538" y="2389"/>
      <point x="532" y="2386" type="curve" smooth="yes"/>
      <point x="518" y="2379"/>
      <point x="504" y="2373"/>
      <point x="490" y="2367" type="curve" smooth="yes"/>
      <point x="483" y="2364"/>
      <point x="474" y="2362"/>
      <point x="468" y="2357" type="curve" smooth="yes"/>
      <point x="461" y="2352"/>
      <point x="455" y="2343"/>
      <point x="449" y="2337" type="curve" smooth="yes"/>
      <point x="439" y="2326"/>
      <point x="426" y="2315"/>
      <point x="414" y="2307" type="curve" smooth="yes"/>
      <point x="364" y="2275"/>
      <point x="301" y="2263"/>
      <point x="243" y="2271" type="curve" smooth="yes"/>
      <point x="223" y="2274"/>
      <point x="204" y="2277"/>
      <point x="187" y="2285" type="curve" smooth="yes"/>
      <point x="134" y="2309"/>
      <point x="110" y="2366"/>
      <point x="101" y="2420" type="curve" smooth="yes"/>
      <point x="86" y="2516"/>
      <point x="99" y="2635"/>
      <point x="167" y="2711" type="curve" smooth="yes"/>
      <point x="189" y="2735"/>
      <point x="217" y="2754"/>
      <point x="246" y="2770" type="curve" smooth="yes"/>
      <point x="302" y="2802"/>
      <point x="367" y="2824"/>
      <point x="432" y="2833" type="curve" smooth="yes"/>
      <point x="462" y="2838"/>
      <point x="494" y="2838"/>
      <point x="525" y="2841" type="curve" smooth="yes"/>
      <point x="536" y="2842"/>
      <point x="549" y="2840"/>
      <point x="560" y="2844" type="curve" smooth="yes"/>
    </contour>
    <contour>
      <point x="554" y="2397" type="move"/>
      <point x="569" y="2381" type="line"/>
      <point x="573" y="2345" type="line"/>
      <point x="585" y="2258" type="line"/>
    </contour>
  </outline>
</glyph>
<glyph name="guillemotleft" format="1">
  <advance width="2498"/>
  <unicode hex="00AB"/>
  <outline>
    <contour>
      <point x="1567" y="410" type="move" smooth="yes"/>
      <point x="1552" y="420"/>
      <point x="1540" y="433"/>
      <point x="1527" y="444" type="curve" smooth="yes"/>
      <point x="1504" y="464"/>
      <point x="1482" y="484"/>
      <point x="1460" y="503" type="curve" smooth="yes"/>
      <point x="1387" y="568"/>
      <point x="1315" y="632"/>
      <point x="1243" y="696" type="curve" smooth="yes"/>
      <point x="1041" y="876"/>
      <point x="836" y="1053"/>
      <point x="636" y="1234" type="curve" smooth="yes"/>
      <point x="564" y="1298"/>
      <point x="492" y="1361"/>
      <point x="421" y="1424" type="curve" smooth="yes"/>
      <point x="399" y="1443"/>
      <point x="378" y="1462"/>
      <point x="357" y="1481" type="curve" smooth="yes"/>
      <point x="349" y="1488"/>
      <point x="338" y="1495"/>
      <point x="332" y="1504" type="curve" smooth="yes"/>
      <point x="327" y="1512"/>
      <point x="325" y="1523"/>
      <point x="322" y="1533" type="curve" smooth="yes"/>
      <point x="318" y="1544"/>
      <point x="312" y="1555"/>
      <point x="309" y="1567" type="curve" smooth="yes"/>
      <point x="307" y="1575"/>
      <point x="315" y="1588"/>
      <point x="318" y="1596" type="curve" smooth="yes"/>
      <point x="322" y="1608"/>
      <point x="325" y="1625"/>
      <point x="333" y="1636" type="curve" smooth="yes"/>
      <point x="342" y="1648"/>
      <point x="358" y="1658"/>
      <point x="370" y="1668" type="curve" smooth="yes"/>
      <point x="449" y="1739"/>
      <point x="529" y="1810"/>
      <point x="610" y="1880" type="curve" smooth="yes"/>
      <point x="841" y="2080"/>
      <point x="1071" y="2284"/>
      <point x="1300" y="2488" type="curve" smooth="yes"/>
      <point x="1361" y="2543"/>
      <point x="1424" y="2597"/>
      <point x="1486" y="2652" type="curve" smooth="yes"/>
      <point x="1505" y="2669"/>
      <point x="1525" y="2687"/>
      <point x="1545" y="2704" type="curve" smooth="yes"/>
      <point x="1552" y="2710"/>
      <point x="1561" y="2722"/>
      <point x="1571" y="2726" type="curve" smooth="yes"/>
      <point x="1574" y="2727"/>
      <point x="1578" y="2726"/>
      <point x="1583" y="2726" type="curve" smooth="yes"/>
      <point x="1614" y="2726" type="line" smooth="yes"/>
      <point x="1644" y="2725"/>
      <point x="1675" y="2726"/>
      <point x="1706" y="2726" type="curve" smooth="yes"/>
    </contour>
    <contour>
      <point x="2206" y="410" type="move" smooth="yes"/>
      <point x="2173" y="441"/>
      <point x="2137" y="470"/>
      <point x="2103" y="501" type="curve" smooth="yes"/>
      <point x="2029" y="566"/>
      <point x="1954" y="631"/>
      <point x="1881" y="697" type="curve" smooth="yes"/>
      <point x="1678" y="877"/>
      <point x="1474" y="1056"/>
      <point x="1271" y="1234" type="curve" smooth="yes"/>
      <point x="1195" y="1300"/>
      <point x="1121" y="1366"/>
      <point x="1046" y="1432" type="curve" smooth="yes"/>
      <point x="1028" y="1447"/>
      <point x="1011" y="1462"/>
      <point x="995" y="1477" type="curve" smooth="yes"/>
      <point x="987" y="1484"/>
      <point x="977" y="1490"/>
      <point x="971" y="1499" type="curve" smooth="yes"/>
      <point x="966" y="1505"/>
      <point x="964" y="1515"/>
      <point x="961" y="1523" type="curve" smooth="yes"/>
      <point x="956" y="1537"/>
      <point x="947" y="1553"/>
      <point x="945" y="1568" type="curve" smooth="yes"/>
      <point x="944" y="1576"/>
      <point x="951" y="1588"/>
      <point x="954" y="1596" type="curve" smooth="yes"/>
      <point x="959" y="1609"/>
      <point x="962" y="1627"/>
      <point x="970" y="1638" type="curve" smooth="yes"/>
      <point x="979" y="1652"/>
      <point x="997" y="1663"/>
      <point x="1010" y="1674" type="curve" smooth="yes"/>
      <point x="1084" y="1740"/>
      <point x="1160" y="1804"/>
      <point x="1235" y="1871" type="curve" smooth="yes"/>
      <point x="1449" y="2062"/>
      <point x="1667" y="2249"/>
      <point x="1883" y="2439" type="curve" smooth="yes"/>
      <point x="1953" y="2500"/>
      <point x="2024" y="2561"/>
      <point x="2094" y="2624" type="curve" smooth="yes"/>
      <point x="2119" y="2646"/>
      <point x="2144" y="2668"/>
      <point x="2170" y="2691" type="curve" smooth="yes"/>
      <point x="2183" y="2702"/>
      <point x="2195" y="2715"/>
      <point x="2210" y="2726" type="curve" smooth="yes"/>
    </contour>
    <contour>
      <point x="208" y="1570" type="move"/>
      <point x="277" y="1569" type="line"/>
      <point x="308" y="1569" type="line"/>
    </contour>
    <contour>
      <point x="825" y="1570" type="move"/>
      <point x="945" y="1570" type="line"/>
    </contour>
  </outline>
</glyph>
<glyph name="registered" format="1">
  <advance width="2309"/>
  <unicode hex="00AE"/>
  <outline>
    <contour>
      <point x="1183" y="2706" type="curve" smooth="yes"/>
      <point x="1231" y="2702"/>
      <point x="1279" y="2698"/>
      <point x="1326" y="2689" type="curve" smooth="yes"/>
      <point x="1400" y="2674"/>
      <point x="1471" y="2653"/>
      <point x="1540" y="2621" type="curve" smooth="yes"/>
      <point x="1699" y="2548"/>
      <point x="1836" y="2424"/>
      <point x="1935" y="2281" type="curve" smooth="yes"/>
      <point x="1990" y="2201"/>
      <point x="2030" y="2114"/>
      <point x="2063" y="2024" type="curve" smooth="yes"/>
      <point x="2110" y="1898"/>
      <point x="2125" y="1761"/>
      <point x="2131" y="1629" type="curve" smooth="yes"/>
      <point x="2138" y="1462"/>
      <point x="2118" y="1290"/>
      <point x="2064" y="1132" type="curve" smooth="yes"/>
      <point x="1970" y="863"/>
      <point x="1770" y="620"/>
      <point x="1506" y="506" type="curve" smooth="yes"/>
      <point x="1427" y="472"/>
      <point x="1342" y="451"/>
      <point x="1257" y="440" type="curve" smooth="yes"/>
      <point x="1142" y="425"/>
      <point x="1022" y="428"/>
      <point x="909" y="451" type="curve" smooth="yes"/>
      <point x="838" y="465"/>
      <point x="766" y="486"/>
      <point x="702" y="519" type="curve" smooth="yes"/>
      <point x="619" y="561"/>
      <point x="542" y="611"/>
      <point x="474" y="675" type="curve" smooth="yes"/>
      <point x="216" y="915"/>
      <point x="98" y="1278"/>
      <point x="113" y="1625" type="curve" smooth="yes"/>
      <point x="120" y="1793"/>
      <point x="150" y="1957"/>
      <point x="221" y="2112" type="curve" smooth="yes"/>
      <point x="336" y="2362"/>
      <point x="558" y="2574"/>
      <point x="821" y="2661" type="curve" smooth="yes"/>
      <point x="885" y="2683"/>
      <point x="953" y="2696"/>
      <point x="1021" y="2702" type="curve" smooth="yes"/>
      <point x="1051" y="2705"/>
      <point x="1082" y="2704"/>
      <point x="1112" y="2708" type="curve" smooth="yes"/>
      <point x="1135" y="2711"/>
      <point x="1160" y="2707"/>
    </contour>
    <contour>
      <point x="798" y="938" type="move"/>
      <point x="799" y="1633" type="line"/>
      <point x="1084" y="1633" type="line"/>
      <point x="1145" y="1633" type="line" smooth="yes"/>
      <point x="1166" y="1633"/>
      <point x="1184" y="1633"/>
      <point x="1202" y="1621" type="curve" smooth="yes"/>
    </contour>
    <contour>
      <point x="1537" y="928" type="move"/>
      <point x="1520" y="969"/>
      <point x="1494" y="1007"/>
      <point x="1473" y="1047" type="curve" smooth="yes"/>
      <point x="1410" y="1168"/>
      <point x="1342" y="1286"/>
      <point x="1281" y="1409" type="curve" smooth="yes"/>
      <point x="1263" y="1444"/>
      <point x="1238" y="1478"/>
      <point x="1224" y="1516" type="curve" smooth="yes"/>
      <point x="1217" y="1533"/>
      <point x="1215" y="1554"/>
      <point x="1212" y="1573" type="curve" smooth="yes"/>
      <point x="1209" y="1586"/>
      <point x="1201" y="1606"/>
      <point x="1202" y="1620" type="curve" smooth="yes"/>
      <point x="1205" y="1638"/>
      <point x="1237" y="1633"/>
      <point x="1250" y="1634" type="curve" smooth="yes"/>
      <point x="1301" y="1639"/>
      <point x="1350" y="1645"/>
      <point x="1396" y="1673" type="curve" smooth="yes"/>
      <point x="1468" y="1716"/>
      <point x="1497" y="1791"/>
      <point x="1507" y="1872" type="curve" smooth="yes"/>
      <point x="1509" y="1888"/>
      <point x="1512" y="1906"/>
      <point x="1512" y="1923" type="curve" smooth="yes"/>
      <point x="1512" y="1943"/>
      <point x="1508" y="1964"/>
      <point x="1504" y="1985" type="curve" smooth="yes"/>
      <point x="1500" y="2011"/>
      <point x="1494" y="2038"/>
      <point x="1483" y="2063" type="curve" smooth="yes"/>
      <point x="1474" y="2083"/>
      <point x="1462" y="2101"/>
      <point x="1449" y="2120" type="curve" smooth="yes"/>
      <point x="1380" y="2214"/>
      <point x="1251" y="2218"/>
      <point x="1146" y="2218" type="curve" smooth="yes"/>
      <point x="1084" y="2218" type="line"/>
      <point x="981" y="2218" type="line"/>
      <point x="843" y="2218" type="line"/>
      <point x="810" y="2218" type="line" smooth="yes"/>
      <point x="807" y="2218"/>
      <point x="800" y="2219"/>
      <point x="798" y="2215" type="curve" smooth="yes"/>
      <point x="795" y="2208"/>
      <point x="798" y="2193"/>
      <point x="798" y="2186" type="curve" smooth="yes"/>
      <point x="798" y="2114" type="line"/>
      <point x="799" y="1633" type="line"/>
    </contour>
  </outline>
</glyph>
<glyph name="macron" format="1">
  <advance width="2459"/>
  <unicode hex="00AF"/>
  <outline>
    <contour>
      <point x="0" y="3412" type="move"/>
      <point x="2459" y="3412" type="line"/>
    </contour>
  </outline>
</glyph>
<glyph name="plusminus" format="1">
  <advance width="3765"/>
  <unicode hex="00B1"/>
  <outline>
    <contour>
      <point x="1859" y="3163" type="move"/>
      <point x="1859" y="775" type="line"/>
    </contour>
    <contour>
      <point x="639" y="1976" type="move"/>
      <point x="3078" y="1976" type="line"/>
    </contour>
    <contour>
      <point x="624" y="-24" type="move"/>
      <point x="3093" y="-24" type="line"/>
    </contour>
  </outline>
</glyph>
<glyph name="periodcentered" format="1">
  <advance width="496"/>
  <unicode hex="00B7"/>
  <outline>
    <contour>
      <point x="240" y="1773" type="move"/>
      <point x="240" y="1477" type="line"/>
    </contour>
  </outline>
</glyph>
<glyph name="cedilla" format="1">
  <advance width="327"/>
  <unicode hex="00B8"/>
  <outline>
    <contour>
      <point x="141" y="652" type="move" smooth="yes"/>
      <point x="141" y="493" type="line" smooth="yes"/>
      <point x="141" y="462"/>
      <point x="137" y="430"/>
      <point x="141" y="400" type="curve" smooth="yes"/>
      <point x="145" y="369"/>
      <point x="150" y="339"/>
      <point x="155" y="310" type="curve" smooth="yes"/>
      <point x="162" y="270"/>
      <point x="167" y="231"/>
      <point x="178" y="193" type="curve" smooth="yes"/>
      <point x="182" y="178"/>
      <point x="188" y="163"/>
      <point x="196" y="150" type="curve" smooth="yes"/>
      <point x="204" y="137"/>
      <point x="212" y="130"/>
      <point x="214" y="116" type="curve" smooth="yes"/>
      <point x="218" y="91"/>
      <point x="213" y="66"/>
      <point x="212" y="42" type="curve" smooth="yes"/>
      <point x="207" y="-18"/>
      <point x="200" y="-77"/>
      <point x="182" y="-136" type="curve" smooth="yes"/>
      <point x="160" y="-204"/>
      <point x="131" y="-274"/>
      <point x="64" y="-310" type="curve" smooth="yes"/>
    </contour>
  </outline>
</glyph>
<glyph name="uni00B9" format="1">
  <advance width="287"/>
  <unicode hex="00B9"/>
  <outline>
    <contour>
      <point x="159" y="3429" type="line"/>
      <point x="151" y="3370"/>
      <point x="147" y="3311"/>
      <point x="129" y="3255" type="curve" smooth="yes"/>
      <point x="125" y="3241"/>
      <point x="120" y="3227"/>
      <point x="114" y="3215" type="curve" smooth="yes"/>
      <point x="112" y="3210"/>
      <point x="110" y="3203"/>
      <point x="105" y="3200" type="curve" smooth="yes"/>
      <point x="101" y="3198"/>
      <point x="94" y="3198"/>
      <point x="90" y="3197" type="curve" smooth="yes"/>
      <point x="76" y="3195"/>
      <point x="62" y="3195"/>
      <point x="48" y="3195" type="curve"/>
    </contour>
    <contour>
      <point x="107" y="3200" type="move" smooth="yes"/>
      <point x="114" y="3192"/>
      <point x="130" y="3181"/>
      <point x="134" y="3171" type="curve" smooth="yes"/>
      <point x="136" y="3164"/>
      <point x="135" y="3155"/>
      <point x="135" y="3149" type="curve" smooth="yes"/>
      <point x="135" y="3101" type="line"/>
      <point x="135" y="2937" type="line"/>
      <point x="135" y="2219" type="line"/>
    </contour>
  </outline>
</glyph>
<glyph name="guillemotright" format="1">
  <advance width="2610"/>
  <unicode hex="00BB"/>
  <outline>
    <contour>
      <point x="366" y="2730" type="move"/>
      <point x="448" y="2656" type="line"/>
      <point x="651" y="2475" type="line"/>
      <point x="1237" y="1953" type="line"/>
      <point x="1478" y="1738" type="line"/>
      <point x="1552" y="1672" type="line"/>
      <point x="1587" y="1639" type="line"/>
      <point x="1613" y="1570" type="line"/>
      <point x="1646" y="1570" type="line"/>
      <point x="1737" y="1570" type="line"/>
    </contour>
    <contour>
      <point x="2354" y="1570" type="move" smooth="yes"/>
      <point x="2280" y="1570" type="line" smooth="yes"/>
      <point x="2272" y="1571"/>
      <point x="2256" y="1567"/>
      <point x="2250" y="1571" type="curve" smooth="yes"/>
      <point x="2244" y="1574"/>
      <point x="2243" y="1584"/>
      <point x="2241" y="1590" type="curve" smooth="yes"/>
      <point x="2236" y="1604"/>
      <point x="2232" y="1628"/>
      <point x="2220" y="1639" type="curve" smooth="yes"/>
      <point x="2202" y="1658"/>
      <point x="2181" y="1675"/>
      <point x="2162" y="1693" type="curve" smooth="yes"/>
      <point x="2119" y="1731"/>
      <point x="2075" y="1769"/>
      <point x="2033" y="1807" type="curve" smooth="yes"/>
      <point x="1785" y="2030"/>
      <point x="1534" y="2249"/>
      <point x="1288" y="2472" type="curve" smooth="yes"/>
      <point x="1220" y="2533"/>
      <point x="1152" y="2594"/>
      <point x="1084" y="2654" type="curve" smooth="yes"/>
      <point x="1064" y="2671"/>
      <point x="1045" y="2688"/>
      <point x="1026" y="2705" type="curve" smooth="yes"/>
      <point x="1018" y="2711"/>
      <point x="1010" y="2723"/>
      <point x="1001" y="2726" type="curve" smooth="yes"/>
      <point x="988" y="2731"/>
      <point x="966" y="2727"/>
      <point x="953" y="2727" type="curve" smooth="yes"/>
    </contour>
    <contour>
      <point x="2249" y="1571" type="move" smooth="yes"/>
      <point x="2236" y="1550"/>
      <point x="2237" y="1521"/>
      <point x="2222" y="1503" type="curve" smooth="yes"/>
      <point x="2213" y="1491"/>
      <point x="2199" y="1481"/>
      <point x="2188" y="1471" type="curve" smooth="yes"/>
      <point x="2166" y="1452"/>
      <point x="2144" y="1433"/>
      <point x="2123" y="1413" type="curve" smooth="yes"/>
      <point x="2047" y="1346"/>
      <point x="1971" y="1280"/>
      <point x="1896" y="1212" type="curve" smooth="yes"/>
      <point x="1695" y="1033"/>
      <point x="1492" y="856"/>
      <point x="1292" y="677" type="curve" smooth="yes"/>
      <point x="1224" y="617"/>
      <point x="1156" y="558"/>
      <point x="1089" y="497" type="curve" smooth="yes"/>
      <point x="1068" y="479"/>
      <point x="1047" y="460"/>
      <point x="1026" y="441" type="curve" smooth="yes"/>
      <point x="1017" y="434"/>
      <point x="1008" y="422"/>
      <point x="998" y="417" type="curve" smooth="yes"/>
      <point x="990" y="414"/>
      <point x="978" y="417"/>
      <point x="970" y="416" type="curve" smooth="yes"/>
      <point x="950" y="416"/>
      <point x="931" y="415"/>
      <point x="912" y="415" type="curve" smooth="yes"/>
    </contour>
    <contour>
      <point x="1612" y="1569" type="move" smooth="yes"/>
      <point x="1605" y="1552"/>
      <point x="1600" y="1536"/>
      <point x="1594" y="1520" type="curve" smooth="yes"/>
      <point x="1591" y="1513"/>
      <point x="1590" y="1505"/>
      <point x="1586" y="1500" type="curve" smooth="yes"/>
      <point x="1578" y="1490"/>
      <point x="1566" y="1482"/>
      <point x="1557" y="1473" type="curve" smooth="yes"/>
      <point x="1537" y="1456"/>
      <point x="1517" y="1439"/>
      <point x="1498" y="1421" type="curve" smooth="yes"/>
      <point x="1436" y="1366"/>
      <point x="1374" y="1312"/>
      <point x="1313" y="1257" type="curve" smooth="yes"/>
      <point x="1083" y="1053"/>
      <point x="854" y="848"/>
      <point x="623" y="645" type="curve" smooth="yes"/>
      <point x="560" y="591"/>
      <point x="499" y="535"/>
      <point x="437" y="480" type="curve" smooth="yes"/>
      <point x="419" y="465"/>
      <point x="402" y="450"/>
      <point x="385" y="434" type="curve" smooth="yes"/>
      <point x="378" y="428"/>
      <point x="369" y="418"/>
      <point x="361" y="414" type="curve" smooth="yes"/>
      <point x="349" y="410"/>
      <point x="331" y="414"/>
      <point x="319" y="414" type="curve" smooth="yes"/>
      <point x="224" y="414" type="line"/>
    </contour>
  </outline>
</glyph>
<glyph name="threequarters" format="1">
  <advance width="1985"/>
  <unicode hex="00BE"/>
  <outline>
    <contour>
      <point x="295" y="233" type="move" smooth="yes"/>
      <point x="304" y="266"/>
      <point x="322" y="300"/>
      <point x="336" y="333" type="curve" smooth="yes"/>
      <point x="417" y="526" type="line" smooth="yes"/>
      <point x="498" y="718"/>
      <point x="579" y="911"/>
      <point x="660" y="1104" type="curve" smooth="yes"/>
      <point x="838" y="1528"/>
      <point x="1017" y="1953"/>
      <point x="1195" y="2378" type="curve" smooth="yes"/>
      <point x="1404" y="2876" type="line" smooth="yes"/>
      <point x="1434" y="2947"/>
      <point x="1466" y="3019"/>
      <point x="1495" y="3092" type="curve" smooth="yes"/>
    </contour>
    <contour>
      <point x="97" y="3085" type="move"/>
      <point x="744" y="3082" type="line"/>
      <point x="676" y="3060" type="line"/>
      <point x="647" y="3051" type="line"/>
      <point x="636" y="3060" type="line"/>
      <point x="611" y="3083" type="line"/>
      <point x="591" y="3085" type="line"/>
      <point x="546" y="3085" type="line"/>
    </contour>
    <contour>
      <point x="646" y="3049" type="move" smooth="yes"/>
      <point x="634" y="3023"/>
      <point x="627" y="2995"/>
      <point x="618" y="2969" type="curve" smooth="yes"/>
      <point x="614" y="2958"/>
      <point x="612" y="2943"/>
      <point x="605" y="2934" type="curve" smooth="yes"/>
      <point x="599" y="2925"/>
      <point x="590" y="2919"/>
      <point x="583" y="2911" type="curve" smooth="yes"/>
      <point x="566" y="2895"/>
      <point x="549" y="2879"/>
      <point x="532" y="2862" type="curve" smooth="yes"/>
      <point x="476" y="2810"/>
      <point x="420" y="2757"/>
      <point x="367" y="2704" type="curve" smooth="yes"/>
      <point x="362" y="2699"/>
      <point x="356" y="2695"/>
      <point x="353" y="2689" type="curve" smooth="yes"/>
      <point x="342" y="2673"/>
      <point x="338" y="2649"/>
      <point x="332" y="2631" type="curve" smooth="yes"/>
      <point x="329" y="2621"/>
      <point x="327" y="2605"/>
      <point x="320" y="2598" type="curve" smooth="yes"/>
      <point x="314" y="2592"/>
      <point x="300" y="2590"/>
      <point x="293" y="2588" type="curve" smooth="yes"/>
      <point x="270" y="2580"/>
      <point x="247" y="2573"/>
      <point x="225" y="2566" type="curve" smooth="yes"/>
    </contour>
    <contour>
      <point x="321" y="2598" type="move"/>
      <point x="350" y="2569" type="line" smooth="yes"/>
      <point x="354" y="2564"/>
      <point x="359" y="2557"/>
      <point x="365" y="2555" type="curve" smooth="yes"/>
      <point x="374" y="2550"/>
      <point x="392" y="2554"/>
      <point x="403" y="2553" type="curve" smooth="yes"/>
      <point x="431" y="2551"/>
      <point x="459" y="2548"/>
      <point x="488" y="2542" type="curve" smooth="yes"/>
      <point x="546" y="2528"/>
      <point x="601" y="2494"/>
      <point x="637" y="2446" type="curve" smooth="yes"/>
      <point x="676" y="2393"/>
      <point x="692" y="2329"/>
      <point x="701" y="2266" type="curve" smooth="yes"/>
      <point x="704" y="2238"/>
      <point x="709" y="2210"/>
      <point x="709" y="2183" type="curve" smooth="yes"/>
      <point x="709" y="2159"/>
      <point x="705" y="2134"/>
      <point x="702" y="2111" type="curve" smooth="yes"/>
      <point x="691" y="2026"/>
      <point x="667" y="1944"/>
      <point x="602" y="1885" type="curve" smooth="yes"/>
      <point x="580" y="1866"/>
      <point x="556" y="1851"/>
      <point x="531" y="1839" type="curve" smooth="yes"/>
      <point x="476" y="1813"/>
      <point x="413" y="1809"/>
      <point x="354" y="1806" type="curve" smooth="yes"/>
      <point x="268" y="1803"/>
      <point x="182" y="1804"/>
      <point x="96" y="1804" type="curve" smooth="yes"/>
    </contour>
    <contour>
      <point x="1809" y="547" type="move"/>
      <point x="1170" y="547" type="line"/>
      <point x="1019" y="547" type="line" smooth="yes"/>
      <point x="1000" y="547"/>
      <point x="975" y="541"/>
      <point x="966" y="563" type="curve" smooth="yes"/>
      <point x="963" y="567"/>
      <point x="967" y="576"/>
      <point x="968" y="582" type="curve" smooth="yes"/>
      <point x="972" y="597"/>
      <point x="976" y="613"/>
      <point x="980" y="629" type="curve" smooth="yes"/>
      <point x="986" y="651"/>
      <point x="988" y="678"/>
      <point x="997" y="700" type="curve" smooth="yes"/>
      <point x="1003" y="713"/>
      <point x="1014" y="727"/>
      <point x="1022" y="740" type="curve" smooth="yes"/>
      <point x="1040" y="768"/>
      <point x="1058" y="795"/>
      <point x="1076" y="824" type="curve" smooth="yes"/>
      <point x="1142" y="929"/>
      <point x="1210" y="1033"/>
      <point x="1277" y="1138" type="curve" smooth="yes"/>
      <point x="1313" y="1193"/>
      <point x="1346" y="1253"/>
      <point x="1385" y="1306" type="curve" smooth="yes"/>
      <point x="1392" y="1316"/>
      <point x="1408" y="1320"/>
      <point x="1419" y="1324" type="curve" smooth="yes"/>
      <point x="1440" y="1333"/>
      <point x="1462" y="1343"/>
      <point x="1484" y="1353" type="curve" smooth="yes"/>
      <point x="1493" y="1357"/>
      <point x="1508" y="1360"/>
      <point x="1516" y="1367" type="curve" smooth="yes"/>
      <point x="1522" y="1372"/>
      <point x="1522" y="1387"/>
      <point x="1524" y="1395" type="curve" smooth="yes"/>
      <point x="1530" y="1418"/>
      <point x="1535" y="1443"/>
      <point x="1542" y="1467" type="curve" smooth="yes"/>
    </contour>
    <contour>
      <point x="1518" y="1367" type="move" smooth="yes"/>
      <point x="1526" y="1358"/>
      <point x="1545" y="1345"/>
      <point x="1549" y="1334" type="curve" smooth="yes"/>
      <point x="1551" y="1327"/>
      <point x="1550" y="1316"/>
      <point x="1550" y="1309" type="curve" smooth="yes"/>
      <point x="1550" y="1252" type="line"/>
      <point x="1550" y="1061" type="line"/>
      <point x="1550" y="226" type="line"/>
    </contour>
  </outline>
</glyph>
<glyph name="Atilde" format="1">
  <advance width="2045"/>
  <unicode hex="00C3"/>
  <outline>
    <contour>
      <point x="320" y="2871" type="move" smooth="yes"/>
      <point x="321" y="2885"/>
      <point x="327" y="2899"/>
      <point x="331" y="2914" type="curve" smooth="yes"/>
      <point x="338" y="2943"/>
      <point x="347" y="2972"/>
      <point x="355" y="3002" type="curve" smooth="yes"/>
      <point x="388" y="3113" type="line" smooth="yes"/>
      <point x="393" y="3131"/>
      <point x="397" y="3153"/>
      <point x="406" y="3170" type="curve" smooth="yes"/>
      <point x="416" y="3188"/>
      <point x="436" y="3204"/>
      <point x="450" y="3220" type="curve" smooth="yes"/>
      <point x="492" y="3265"/>
      <point x="537" y="3308"/>
      <point x="597" y="3328" type="curve" smooth="yes"/>
      <point x="621" y="3336"/>
      <point x="646" y="3344"/>
      <point x="672" y="3352" type="curve" smooth="yes"/>
      <point x="681" y="3354"/>
      <point x="694" y="3361"/>
      <point x="704" y="3358" type="curve" smooth="yes"/>
      <point x="723" y="3354"/>
      <point x="742" y="3346"/>
      <point x="761" y="3339" type="curve" smooth="yes"/>
      <point x="805" y="3322"/>
      <point x="847" y="3302"/>
      <point x="884" y="3270" type="curve" smooth="yes"/>
      <point x="984" y="3183"/>
      <point x="1041" y="3054"/>
      <point x="1155" y="2980" type="curve" smooth="yes"/>
      <point x="1179" y="2964"/>
      <point x="1204" y="2954"/>
      <point x="1232" y="2945" type="curve" smooth="yes"/>
      <point x="1248" y="2940"/>
      <point x="1264" y="2935"/>
      <point x="1281" y="2930" type="curve" smooth="yes"/>
      <point x="1288" y="2928"/>
      <point x="1296" y="2924"/>
      <point x="1304" y="2924" type="curve" smooth="yes"/>
      <point x="1310" y="2924"/>
      <point x="1317" y="2927"/>
      <point x="1323" y="2929" type="curve" smooth="yes"/>
      <point x="1338" y="2933"/>
      <point x="1353" y="2938"/>
      <point x="1368" y="2942" type="curve" smooth="yes"/>
      <point x="1394" y="2950"/>
      <point x="1422" y="2957"/>
      <point x="1447" y="2971" type="curve" smooth="yes"/>
      <point x="1481" y="2990"/>
      <point x="1513" y="3021"/>
      <point x="1538" y="3051" type="curve" smooth="yes"/>
      <point x="1554" y="3069"/>
      <point x="1576" y="3088"/>
      <point x="1589" y="3110" type="curve" smooth="yes"/>
      <point x="1595" y="3119"/>
      <point x="1597" y="3131"/>
      <point x="1600" y="3142" type="curve" smooth="yes"/>
      <point x="1615" y="3193" type="line" smooth="yes"/>
      <point x="1630" y="3240"/>
      <point x="1644" y="3289"/>
      <point x="1657" y="3338" type="curve" smooth="yes"/>
      <point x="1663" y="3362"/>
      <point x="1673" y="3387"/>
      <point x="1677" y="3413" type="curve" smooth="yes"/>
    </contour>
    <contour>
      <point x="998" y="2281" type="move"/>
      <point x="998" y="2196" type="line" smooth="yes"/>
      <point x="998" y="2188"/>
      <point x="994" y="2170"/>
      <point x="999" y="2164" type="curve" smooth="yes"/>
      <point x="1005" y="2157"/>
      <point x="1018" y="2151"/>
      <point x="1026" y="2146" type="curve" smooth="yes"/>
      <point x="1041" y="2136"/>
      <point x="1057" y="2125"/>
      <point x="1073" y="2115" type="curve" smooth="yes"/>
      <point x="1081" y="2110"/>
      <point x="1095" y="2104"/>
      <point x="1098" y="2095" type="curve" smooth="yes"/>
      <point x="1108" y="2063"/>
      <point x="1115" y="2031"/>
      <point x="1124" y="2000" type="curve" smooth="yes"/>
      <point x="1143" y="1930"/>
      <point x="1162" y="1860"/>
      <point x="1180" y="1790" type="curve" smooth="yes"/>
      <point x="1226" y="1616"/>
      <point x="1274" y="1444"/>
      <point x="1319" y="1271" type="curve" smooth="yes"/>
      <point x="1328" y="1239"/>
      <point x="1339" y="1207"/>
      <point x="1345" y="1175" type="curve" smooth="yes"/>
      <point x="1354" y="1125"/>
      <point x="1357" y="1073"/>
      <point x="1363" y="1023" type="curve" smooth="yes"/>
      <point x="1365" y="1003"/>
      <point x="1367" y="983"/>
      <point x="1370" y="964" type="curve" smooth="yes"/>
      <point x="1371" y="956"/>
      <point x="1374" y="944"/>
      <point x="1372" y="938" type="curve" smooth="yes"/>
      <point x="1367" y="925"/>
      <point x="1342" y="930"/>
      <point x="1332" y="930" type="curve" smooth="yes"/>
      <point x="1207" y="930" type="line"/>
      <point x="773" y="930" type="line"/>
      <point x="665" y="930" type="line" smooth="yes"/>
      <point x="655" y="930"/>
      <point x="633" y="925"/>
      <point x="626" y="933" type="curve" smooth="yes"/>
      <point x="620" y="938"/>
      <point x="623" y="948"/>
      <point x="624" y="955" type="curve" smooth="yes"/>
      <point x="627" y="973"/>
      <point x="628" y="991"/>
      <point x="630" y="1010" type="curve" smooth="yes"/>
      <point x="637" y="1064"/>
      <point x="640" y="1121"/>
      <point x="650" y="1176" type="curve" smooth="yes"/>
      <point x="654" y="1199"/>
      <point x="662" y="1222"/>
      <point x="668" y="1245" type="curve" smooth="yes"/>
      <point x="699" y="1357"/>
      <point x="726" y="1470"/>
      <point x="755" y="1583" type="curve" smooth="yes"/>
      <point x="778" y="1670"/>
      <point x="802" y="1757"/>
      <point x="824" y="1845" type="curve" smooth="yes"/>
      <point x="838" y="1902"/>
      <point x="854" y="1960"/>
      <point x="869" y="2018" type="curve" smooth="yes"/>
      <point x="873" y="2035"/>
      <point x="878" y="2053"/>
      <point x="882" y="2071" type="curve" smooth="yes"/>
      <point x="884" y="2077"/>
      <point x="885" y="2087"/>
      <point x="889" y="2092" type="curve" smooth="yes"/>
      <point x="896" y="2102"/>
      <point x="912" y="2108"/>
      <point x="922" y="2115" type="curve" smooth="yes"/>
      <point x="946" y="2131"/>
      <point x="971" y="2149"/>
      <point x="997" y="2164" type="curve" smooth="yes"/>
    </contour>
    <contour>
      <point x="628" y="930" type="move"/>
      <point x="401" y="238" type="line"/>
      <point x="524" y="708" type="line"/>
      <point x="559" y="837" type="line"/>
      <point x="569" y="875" type="line"/>
      <point x="574" y="893" type="line"/>
      <point x="592" y="906" type="line"/>
    </contour>
    <contour>
      <point x="1368" y="929" type="move" smooth="yes"/>
      <point x="1380" y="921"/>
      <point x="1403" y="911"/>
      <point x="1412" y="898" type="curve" smooth="yes"/>
      <point x="1421" y="885"/>
      <point x="1424" y="859"/>
      <point x="1428" y="843" type="curve" smooth="yes"/>
      <point x="1437" y="805"/>
      <point x="1449" y="768"/>
      <point x="1459" y="731" type="curve" smooth="yes"/>
      <point x="1478" y="655"/>
      <point x="1500" y="580"/>
      <point x="1521" y="506" type="curve" smooth="yes"/>
      <point x="1546" y="417"/>
      <point x="1569" y="327"/>
      <point x="1595" y="239" type="curve" smooth="yes"/>
    </contour>
  </outline>
</glyph>
